<svg xmlns="http://www.w3.org/2000/svg" width="180.724" height="344.167" viewBox="0 0 180.724 344.167" style="">
  <g id="arrow" transform="translate(-1252.171 -278.052)">
    <path id="Path_37" data-name="Path 37" d="M359.142,278.55s-65.1,5.473-107.671,45.179-40.8,104.842-36.862,136.32S232.155,546.583,283.665,582c34.34,20.032,62.242,18.6,71.185,15.739-2.53,16.812-20.39,18.959-25.755,23.967,29.332-.358,62.957-32.194,62.957-32.194s-42.707-23.329-56.161-25.4c16.428,17.17,18.959,22.536,18.959,22.536a121.467,121.467,0,0,1-45.787-13.732c-23.577-12.574-60.628-61.481-57.592-127.979s40.1-101.282,107.671-116.2c-16.1-.915-33.553-7.262-41.065-17.635C321.654,292.143,359.142,278.55,359.142,278.55Z" transform="translate(1040)" fill="none" stroke="#e9e9e9" stroke-width="1" class="cmnSwPDJ_0"></path>
    <path id="Path_38" data-name="Path 38" d="M334.6,282.867s1.651,8.186,0,8.805-4.953-7.5-6.6-6.329,2.064,10.594,0,11.007-6.535-11.144-8.255-9.356,4.127,15.34,1.376,16.51-11.488-13.827-12.382-11.832,11.282,18.642,8.805,19.812-20.844-20.912-18.711-15.134,30.749,36.459,27.241,38.248S291.6,299.927,284.794,303.5s18.642,42.719,14.033,45.4-35.634-32.951-32.469-34.671,42.444,29.442,45.127,27.791-27.723-38.11-34.4-34.4,12.382,45.677,7.7,49.254-21.807-40.243-26.416-34.946,10.6,53.424,7.98,56.133-29.58-32.813-26.14-36.046,37.147,25.384,39.9,23.114-24.421-37.56-28.892-32.194,14.171,49.667,11.007,53.657-22.219-40.793-23.664-37.7,23.182,35.221,17.886,50.08-37.422,6.191-39.073,9.356,28.135,16.166,32.469,3.3-14.171-59.16-15.134-54.757,15.615,64.066,13.208,70.463-18.055-59.054-20.595-50.8,19.092,59,17.568,63.986-17.06-37.7-23.664-44.026-5.122,8.827-2.752,18.711S246.271,450.235,246,453.743s-29.58-16.372-28.617-24.489,32.469-12.451,32.469-7.98-31.988,23.182-32.469,25.865,29.58-20.568,30.543-15.134-27.516,33.088-26.691,36.872,29.718-25.315,29.993-21.738-28.067,31.713-28.892,36.046,24.9-22.013,25.59-18.711-24.971,24.627-22.839,31.919,32.056,3.164,31.369-2.752-32.813-22.563-34.12-20.912,31,24.575,32.723,31.454-26.3-2.111-25.4,0,27.939,6.334,29,8.445-22.082,9.975-24.764,0,12.589-42.994,14.033-39.9-12.933,35.7-9.356,47.6,22.77-2.889,23.664,0-20.362,9.7-20.087,11.557,17.06-9.218,21.188-4.127-15.065,12.589-12.107,16.785,27.1,3.921,23.939,0-31.093-10.594-29.167-7.98S279.153,549.913,282.867,555s-18.552,7.382-22.013,1.926,5.625-26.844,8.17-23.748,2.011,36.131,2.011,36.131,18.526-7.011,17.335-8.53-23.68.667-22.1,2.456,26.2,2.492,28.426,4.7-21.188,3.44-19.537,4.127,24.214-2.545,26.14-1.376-18.986,5.022-18.436,6.054,17.679-3.1,20.637-1.926-10.8,7.773-8.805,8.255,14.584-7.636,16.785-6.329-9.837,10.8-7.98,11.557,8.276-8.53,16.531-6.879S336.524,594.9,336.524,594.9s-.915-9.937-7.175-10.921-20.2,6.159-17.865,6.985,23.182-5.578,25.04-4.594-20.431,8.049-17.61,8.53,22.976-7.017,28.892-6.6-7.5,8.255-5.228,8.255,10.731-2.133,14.308-8.255,1.513-13.345,0-16.235-2.889,5.71-6.054,4.678-10.456-9.562-6.6-8.805,20.018,8.461,22.013,11.832-18.986-.482-14.033,1.651,33.157,4.127,33.845,6.879-30.623,2.878-31.093,4.127,28.728-.92,29.21.868-24.315,4.233-27.284,6.286,14.859,5.228,15.409,1.926S360.6,585.34,359.087,586.372s8.186,14.928,7.154,19.261-8.943-3.371-11.282-1.926,2.958,5.778,1.926,7.7-2.889-1.376-6.054,0-3.027,3.783-6.6,5.5a16.871,16.871,0,0,1-7.7,1.376" transform="translate(1040)" fill="none" stroke="#e9e9e9" stroke-linecap="round" stroke-linejoin="round" stroke-width="1" class="cmnSwPDJ_1"></path>
  </g>
<style data-made-with="vivus-instant">.cmnSwPDJ_0{stroke-dasharray:1153 1155;stroke-dashoffset:1154;animation:cmnSwPDJ_draw_0 7200ms linear 0ms infinite,cmnSwPDJ_fade 7200ms linear 0ms infinite;}.cmnSwPDJ_1{stroke-dasharray:2969 2971;stroke-dashoffset:2970;animation:cmnSwPDJ_draw_1 7200ms linear 0ms infinite,cmnSwPDJ_fade 7200ms linear 0ms infinite;}@keyframes cmnSwPDJ_draw{100%{stroke-dashoffset:0;}}@keyframes cmnSwPDJ_fade{0%{stroke-opacity:1;}94.44444444444444%{stroke-opacity:1;}100%{stroke-opacity:0;}}@keyframes cmnSwPDJ_draw_0{11.11111111111111%{stroke-dashoffset: 1154}38.88888888888889%{ stroke-dashoffset: 0;}100%{ stroke-dashoffset: 0;}}@keyframes cmnSwPDJ_draw_1{25%{stroke-dashoffset: 2970}52.77777777777778%{ stroke-dashoffset: 0;}100%{ stroke-dashoffset: 0;}}</style></svg>
