<svg xmlns="http://www.w3.org/2000/svg" width="716.513" height="716.513" viewBox="0 0 716.513 716.513"><g transform="translate(-627 -139.5)" opacity="0.33"><g transform="translate(653.323 165.823)" fill="none" stroke="#7e7e7e" stroke-width="1"><circle cx="331.933" cy="331.933" r="331.933" stroke="none"/><circle cx="331.933" cy="331.933" r="331.433" fill="none"/></g><g transform="translate(627.5 497.756)"><line x1="17.215" fill="none" stroke="#7e7e7e" stroke-linecap="round" stroke-width="1"/><line x1="17.215" transform="translate(698.297)" fill="none" stroke="#7e7e7e" stroke-linecap="round" stroke-width="1"/></g><g transform="matrix(0.966, 0.259, -0.259, 0.966, 639.69, 405.162)"><line x1="17.215" transform="translate(0 0)" fill="none" stroke="#7e7e7e" stroke-linecap="round" stroke-width="1"/><line x1="17.215" transform="translate(698.297 0)" fill="none" stroke="#7e7e7e" stroke-linecap="round" stroke-width="1"/></g><g transform="matrix(-0.259, 0.966, -0.966, -0.259, 1077.85, 152.19)"><line x1="17.215" transform="translate(0 0)" fill="none" stroke="#7e7e7e" stroke-linecap="round" stroke-width="1"/><line x1="17.215" transform="translate(698.297 0)" fill="none" stroke="#7e7e7e" stroke-linecap="round" stroke-width="1"/></g><g transform="translate(675.43 318.878) rotate(30)"><line x1="17.215" transform="translate(0 0)" fill="none" stroke="#7e7e7e" stroke-linecap="round" stroke-width="1"/><line x1="17.215" transform="translate(698.297 0)" fill="none" stroke="#7e7e7e" stroke-linecap="round" stroke-width="1"/></g><g transform="translate(1164.134 187.93) rotate(120)"><line x1="17.215" transform="translate(0 0)" fill="none" stroke="#7e7e7e" stroke-linecap="round" stroke-width="1"/><line x1="17.215" transform="translate(698.297 0)" fill="none" stroke="#7e7e7e" stroke-linecap="round" stroke-width="1"/></g><g transform="translate(732.284 244.784) rotate(45)"><line x1="17.215" transform="translate(0)" fill="none" stroke="#7e7e7e" stroke-linecap="round" stroke-width="1"/><line x1="17.215" transform="translate(698.297)" fill="none" stroke="#7e7e7e" stroke-linecap="round" stroke-width="1"/></g><g transform="translate(1238.228 244.784) rotate(135)"><line x1="17.215" transform="translate(0)" fill="none" stroke="#7e7e7e" stroke-linecap="round" stroke-width="1"/><line x1="17.215" transform="translate(698.297)" fill="none" stroke="#7e7e7e" stroke-linecap="round" stroke-width="1"/></g><g transform="translate(806.378 187.93) rotate(60)"><line x1="17.215" transform="translate(0 0)" fill="none" stroke="#7e7e7e" stroke-linecap="round" stroke-width="1"/><line x1="17.215" transform="translate(698.297 0)" fill="none" stroke="#7e7e7e" stroke-linecap="round" stroke-width="1"/></g><g transform="translate(1295.082 318.878) rotate(150)"><line x1="17.215" transform="translate(0 0)" fill="none" stroke="#7e7e7e" stroke-linecap="round" stroke-width="1"/><line x1="17.215" transform="translate(698.297 0)" fill="none" stroke="#7e7e7e" stroke-linecap="round" stroke-width="1"/></g><g transform="matrix(0.259, 0.966, -0.966, 0.259, 892.662, 152.19)"><line x1="17.215" transform="translate(0 0)" fill="none" stroke="#7e7e7e" stroke-linecap="round" stroke-width="1"/><line x1="17.215" transform="translate(698.297 0)" fill="none" stroke="#7e7e7e" stroke-linecap="round" stroke-width="1"/></g><g transform="matrix(-0.966, 0.259, -0.259, -0.966, 1330.822, 405.162)"><line x1="17.215" transform="translate(0 0)" fill="none" stroke="#7e7e7e" stroke-linecap="round" stroke-width="1"/><line x1="17.215" transform="translate(698.297 0)" fill="none" stroke="#7e7e7e" stroke-linecap="round" stroke-width="1"/></g><g transform="translate(985.256 140) rotate(90)"><line x1="17.215" transform="translate(0)" fill="none" stroke="#7e7e7e" stroke-linecap="round" stroke-width="1"/><line x1="17.215" transform="translate(698.297)" fill="none" stroke="#7e7e7e" stroke-linecap="round" stroke-width="1"/></g><g transform="translate(689.441 661.091) rotate(-30)" fill="none" stroke="#7e7e7e" stroke-width="1"><circle cx="6.456" cy="6.456" r="6.456" stroke="none"/><circle cx="6.456" cy="6.456" r="5.956" fill="none"/></g><g transform="translate(695.897 323.24) rotate(30)" fill="none" stroke="#7e7e7e" stroke-width="1"><circle cx="6.456" cy="6.456" r="6.456" stroke="none"/><circle cx="6.456" cy="6.456" r="5.956" fill="none"/></g><g transform="translate(991.712 159.905) rotate(90)" fill="none" stroke="#7e7e7e" stroke-width="1"><circle cx="6.456" cy="6.456" r="6.456" stroke="none"/><circle cx="6.456" cy="6.456" r="5.956" fill="none"/></g><g transform="translate(1263.434 329.696) rotate(-30)" fill="none" stroke="#7e7e7e" stroke-width="1"><circle cx="6.456" cy="6.456" r="6.456" stroke="none"/><circle cx="6.456" cy="6.456" r="5.956" fill="none"/></g><g transform="translate(1269.89 654.635) rotate(30)" fill="none" stroke="#7e7e7e" stroke-width="1"><circle cx="6.456" cy="6.456" r="6.456" stroke="none"/><circle cx="6.456" cy="6.456" r="5.956" fill="none"/></g><g transform="translate(991.712 822.696) rotate(90)" fill="none" stroke="#7e7e7e" stroke-width="1"><circle cx="6.456" cy="6.456" r="6.456" stroke="none"/><circle cx="6.456" cy="6.456" r="5.956" fill="none"/></g></g></svg>