<svg xmlns="http://www.w3.org/2000/svg" xmlns:xlink="http://www.w3.org/1999/xlink" width="203.53" height="384.82" viewBox="0 0 203.53 384.82"><defs><filter id="a" x="0" y="0" width="203.53" height="384.82" filterUnits="userSpaceOnUse"><feOffset input="SourceAlpha"/><feGaussianBlur stdDeviation="3" result="b"/><feFlood flood-color="#e81564" flood-opacity="0.737"/><feComposite operator="in" in2="b"/><feComposite in="SourceGraphic"/></filter></defs><g transform="translate(-511.034 -350.169)"><g transform="matrix(1, 0, 0, 1, 511.03, 350.17)" filter="url(#a)"><path d="M567.895,390.89c24.724,13.65,104.761,84.721,104.4,160.772s-105.18,147.675-105.18,147.675V678.968s-31.437,10.634-46.295,26.879c16.641,9.905,57.054,19.414,57.054,19.414l-8.915-18.424S708.6,677.194,705,554.49s-118.8-193.357-137.1-194.71c14.937,12.619,24.166,25.158,24.8,28.945S583.4,388.906,567.895,390.89Z" transform="translate(-511.03 -350.17)" fill="none" stroke="#e81564" stroke-width="1"/></g><path d="M581.386,364.677s-.044,6.421,3.693,8.918,9.352-1.949,11.252,1.067-6.3,8.97-3.654,11,17.346-6.229,14.256-2.888-27.046,15.071-25.857,15.793,28.788-12.352,31.807-10.244-21.365,17.208-19.731,18.673,21.956-17.5,25.076-15.473-14.618,21.334-12.6,23.562,18.361-17.583,20.679-14.653S610.978,423.141,614.9,426.8s24.809-13.861,27.1-11.722-20.441,17-17.945,20.279,29.384-5.89,27.928-7.151-28.938,7.561-33.752,2.11,11.468-27.342,14.5-23.913-8.022,30.712-2.377,37.628,22.4-12.455,24.957-9.964S637.123,449.194,640.57,454s26.294-4.015,28.523-.7-21.838,10.228-19.609,13.949,30.751,2.872,28.523.938-33.157-2.637-37.436-8.674,20.827-12.162,20.322-15.473-31.212-10.176-26.1-2.147,41.919,25.875,46.543,34.265-28.76-2.755-28.047-.7,29.443,6.682,30.9,8.909-25.759-2.11-25.076,0,26.413,6.183,27.809,8.44-20,5.978-22.224.586,12.33-24.851,13.311-22.155-11.617,26.756-9.389,32.939,17.47-10.462,18.3-8.206-16.311,14.184-14.974,17.232,19.847-7.209,20.322-5.041-19.906,8.821-18.421,13.715,23.917,3.868,24.363,5.861-23-2.022-22.58,2.11,23.65,9.759,24.244,14.418-20.827,10.784-21.867,4.22S695.892,520.669,695.713,518s-18.183,21.364-18.421,19.81,17.292-31.122,17.47-26.023-18.035,37.247-16.757,46.42,23.947-11.009,23.59-7.9-24.17,24.624-25.016,20.328,16.846-37.511,21.63-37.511,4.07,25.76-2.5,37.511-24.63,12.4-23.769,9.495,27.631-24.353,27.215-21.1-28.879,28.4-28.879,34.112,30.038-12.572,28.879-11.253-32,11.576-33.514,16.528,29.319-2.591,27.453,3.282-27.988-2.315-29.949,1.524,13.37,20.719,22.1,13.832,19.7-41.057,12.835-41.379-30.016,22.3-33.765,34.55,19.662,13.111,18.77,14.459-27.468-5.341-28.859-3.527,24.719,9.085,23.293,10.784-27.453-5.949-29-3.986S672.9,638.272,671.35,639.8s-27.75-7.912-29-5.744,25.908,12.338,24.006,14.418-27.869-9.261-31.612-6.1,17.975,16.968,16.638,18.755-20.292-13.1-21.986-11.6,15.212,17.583,15.212,17.583-20-10.99-22.461-9.378,14.826,13.92,12.6,15.825-18.361-10.14-21.511-8.206,5.526,18.873,8.913,15.942.357-24.968,4.635-27.664,10.844,18.609,12.479,16.88-11.142-19.576-5.942-23.8,30.781,3.312,26.74,6.916-35.089,1.67-42.9,7.5,14.321,13.246,11.647,15.825-19.431-7.238-22.343-5.509,12.568,11.048,10.7,12.426-15.717-8.5-18.183-6.916,9.121,11.517,8.319,13.246-9.8-7.18-11.528-6.33,6.863,8.85,4.635,9.729-10.963-7-13.548-6.213,4.932,7.825,3.209,9.378-8.23-4.191-10.1-3.165,4.278,6.008,2.615,7.268-6.536-2.843-9.27-2.227.178,3.927-1.664,4.689-5.7-6.271-5.7-1.641,8.869,23.632,5.7,20.162-12.39-37.159-14.261-37.98,8.26,33.5,6.774,34.7-11.231-29.54-12.716-29.891,8.438,27.664,6.774,28.485-11.26-24.88-13.429-25.2,6.418,23.093,4.754,23.913-9.151-19.81-11.409-20.631,3.506,16.5,2.377,17.349-5.5-13.217-6.893-13.949,2.912,10.11,1.307,11.019-4.991-6.359-7.725-7.385-3.441,4.731-3.441,4.731" fill="none" stroke="#e81564" stroke-linecap="round" stroke-width="1"/></g></svg>