<svg xmlns="http://www.w3.org/2000/svg" width="1089" height="841.5" viewBox="0 0 1089 841.5" style="">
  <defs>
    <style>
      .cls-1, .cls-3, .cls-7 {
        fill: none;
      }

      .cls-1, .cls-3 {
        stroke: #7d7d7d;
        stroke-width: 2px;
      }

      .cls-2 {
        fill: #e81564;
      }

      .cls-3 {
        stroke-linecap: round;
      }

      .cls-4, .cls-5 {
        fill: #3f3841;
      }

      .cls-4 {
        font-size: 194px;
        font-family: SegoeUIBlack, Segoe UI;
        opacity: 0.14;
      }

      .cls-5 {
        font-size: 16px;
        font-family: SegoeUI, Segoe UI;
      }

      .cls-6 {
        stroke: none;
      }
    </style>
  </defs>
  <g id="infograph" transform="translate(-416 -2076)">
    <g id="Point">
      <g id="Ellipse_9" data-name="Ellipse 9" class="cls-1" transform="translate(943 2082)">
        <path class="cls-6 rjXXVimm_0" d="M0,17.5A17.5,17.5 0,1,1 35,17.5A17.5,17.5 0,1,1 0,17.5"></path>
        <path class="cls-7 rjXXVimm_1" d="M1,17.5A16.5,16.5 0,1,1 34,17.5A16.5,16.5 0,1,1 1,17.5"></path>
      </g>
      <path id="Ellipse_10" data-name="Ellipse 10" class="cls-2 rjXXVimm_2" transform="translate(951 2090)" d="M0,9.5A9.5,9.5 0,1,1 19,9.5A9.5,9.5 0,1,1 0,9.5"></path>
    </g>
    <g id="Point-2" data-name="Point" transform="translate(943 2882.5)">
      <g id="Ellipse_9-2" data-name="Ellipse 9" class="cls-1">
        <path class="cls-6 rjXXVimm_3" d="M0,17.5A17.5,17.5 0,1,1 35,17.5A17.5,17.5 0,1,1 0,17.5"></path>
        <path class="cls-7 rjXXVimm_4" d="M1,17.5A16.5,16.5 0,1,1 34,17.5A16.5,16.5 0,1,1 1,17.5"></path>
      </g>
      <path id="Ellipse_10-2" data-name="Ellipse 10" class="cls-2 rjXXVimm_5" transform="translate(8 8)" d="M0,9.5A9.5,9.5 0,1,1 19,9.5A9.5,9.5 0,1,1 0,9.5"></path>
    </g>
    <g id="Point-3" data-name="Point" transform="translate(0 115)">
      <g id="Ellipse_9-3" data-name="Ellipse 9" class="cls-1" transform="translate(943 2082)">
        <path class="cls-6 rjXXVimm_6" d="M0,17.5A17.5,17.5 0,1,1 35,17.5A17.5,17.5 0,1,1 0,17.5"></path>
        <path class="cls-7 rjXXVimm_7" d="M1,17.5A16.5,16.5 0,1,1 34,17.5A16.5,16.5 0,1,1 1,17.5"></path>
      </g>
      <path id="Ellipse_10-3" data-name="Ellipse 10" class="cls-2 rjXXVimm_8" transform="translate(951 2090)" d="M0,9.5A9.5,9.5 0,1,1 19,9.5A9.5,9.5 0,1,1 0,9.5"></path>
    </g>
    <g id="Point-4" data-name="Point" transform="translate(0 305)">
      <g id="Ellipse_9-4" data-name="Ellipse 9" class="cls-1" transform="translate(943 2082)">
        <path class="cls-6 rjXXVimm_9" d="M0,17.5A17.5,17.5 0,1,1 35,17.5A17.5,17.5 0,1,1 0,17.5"></path>
        <path class="cls-7 rjXXVimm_10" d="M1,17.5A16.5,16.5 0,1,1 34,17.5A16.5,16.5 0,1,1 1,17.5"></path>
      </g>
      <path id="Ellipse_10-4" data-name="Ellipse 10" class="cls-2 rjXXVimm_11" transform="translate(951 2090)" d="M0,9.5A9.5,9.5 0,1,1 19,9.5A9.5,9.5 0,1,1 0,9.5"></path>
    </g>
    <g id="Point-5" data-name="Point" transform="translate(0 495)">
      <g id="Ellipse_9-5" data-name="Ellipse 9" class="cls-1" transform="translate(943 2082)">
        <path class="cls-6 rjXXVimm_12" d="M0,17.5A17.5,17.5 0,1,1 35,17.5A17.5,17.5 0,1,1 0,17.5"></path>
        <path class="cls-7 rjXXVimm_13" d="M1,17.5A16.5,16.5 0,1,1 34,17.5A16.5,16.5 0,1,1 1,17.5"></path>
      </g>
      <path id="Ellipse_10-5" data-name="Ellipse 10" class="cls-2 rjXXVimm_14" transform="translate(951 2090)" d="M0,9.5A9.5,9.5 0,1,1 19,9.5A9.5,9.5 0,1,1 0,9.5"></path>
    </g>
    <g id="Point-6" data-name="Point" transform="translate(0 685)">
      <g id="Ellipse_9-6" data-name="Ellipse 9" class="cls-1" transform="translate(943 2082)">
        <path class="cls-6 rjXXVimm_15" d="M0,17.5A17.5,17.5 0,1,1 35,17.5A17.5,17.5 0,1,1 0,17.5"></path>
        <path class="cls-7 rjXXVimm_16" d="M1,17.5A16.5,16.5 0,1,1 34,17.5A16.5,16.5 0,1,1 1,17.5"></path>
      </g>
      <path id="Ellipse_10-6" data-name="Ellipse 10" class="cls-2 rjXXVimm_17" transform="translate(951 2090)" d="M0,9.5A9.5,9.5 0,1,1 19,9.5A9.5,9.5 0,1,1 0,9.5"></path>
    </g>
    <path id="Line_9" data-name="Line 9" class="cls-3 rjXXVimm_18" transform="translate(960 2116.5)" d="M0,0L0,81"></path>
    <path id="Line_13" data-name="Line 13" class="cls-3 rjXXVimm_19" transform="translate(960 2802)" d="M0,81L0,0"></path>
    <path id="Line_10" data-name="Line 10" class="cls-3 rjXXVimm_20" transform="translate(960 2231.5)" d="M0,0L0,156"></path>
    <path id="Line_11" data-name="Line 11" class="cls-3 rjXXVimm_21" transform="translate(960 2421.5)" d="M0,0L0,156"></path>
    <path id="Line_12" data-name="Line 12" class="cls-3 rjXXVimm_22" transform="translate(960 2611.5)" d="M0,0L0,156"></path>
    <g id="step">
      <path id="Line_8" data-name="Line 8" class="cls-3 rjXXVimm_23" transform="translate(735.5 2214.5)" d="M208,0L0,0"></path>
      <text id="_1" data-name="1" class="cls-4" transform="translate(839.5 2285)"><tspan x="-46.89" y="0">1</tspan></text>
      <text id="Оставить_свой_номер_телефона_в_форме_обратной_связи" data-name="Оставить свой номер телефона в форме обратной связи" class="cls-5" transform="translate(416 2215)"><tspan x="25.914" y="17">Оставить свой номер телефона в </tspan><tspan x="63.438" y="38">форме обратной связи</tspan></text>
      <g id="phone" transform="translate(427.767 2102)">
        <g id="Group_31" data-name="Group 31" transform="translate(127.067 4.4)">
          <g id="Group_30" data-name="Group 30">
            <path id="Path_60" data-name="Path 60" class="cls-2 rjXXVimm_24" d="M220.934,25.6H206.268a1.467,1.467,0,1,0,0,2.933h14.667a1.467,1.467,0,0,0,0-2.933Z" transform="translate(-204.801 -25.6)"></path>
          </g>
        </g>
        <g id="Group_33" data-name="Group 33" transform="translate(150.533 4.4)">
          <g id="Group_32" data-name="Group 32" transform="translate(0)">
            <path id="Path_61" data-name="Path 61" class="cls-2 rjXXVimm_25" d="M344.267,25.6H342.8a1.467,1.467,0,0,0,0,2.933h1.467a1.467,1.467,0,1,0,0-2.933Z" transform="translate(-341.334 -25.6)"></path>
          </g>
        </g>
        <g id="Group_35" data-name="Group 35" transform="translate(130 74.8)">
          <g id="Group_34" data-name="Group 34">
            <path id="Path_62" data-name="Path 62" class="cls-2 rjXXVimm_26" d="M229.555,435.2h-3.642a4.052,4.052,0,0,0-4.046,4.046v.708A4.05,4.05,0,0,0,225.912,444h3.642a4.05,4.05,0,0,0,4.046-4.045v-.708A4.051,4.051,0,0,0,229.555,435.2Zm1.112,4.755a1.113,1.113,0,0,1-1.112,1.112h-3.642a1.113,1.113,0,0,1-1.113-1.112v-.708a1.114,1.114,0,0,1,1.113-1.113h3.64a1.114,1.114,0,0,1,1.113,1.113Z" transform="translate(-221.867 -435.2)"></path>
          </g>
        </g>
        <g id="Group_37" data-name="Group 37" transform="translate(110.933)">
          <g id="Group_36" data-name="Group 36" transform="translate(0)">
            <path id="Path_63" data-name="Path 63" class="cls-2 rjXXVimm_27" d="M155.5,0H116.235a5.309,5.309,0,0,0-5.3,5.3V82.7a5.309,5.309,0,0,0,5.3,5.3H155.5a5.308,5.308,0,0,0,5.3-5.3V5.3A5.308,5.308,0,0,0,155.5,0Zm2.367,82.7a2.371,2.371,0,0,1-2.367,2.369H116.235a2.371,2.371,0,0,1-2.369-2.367V5.3a2.371,2.371,0,0,1,2.369-2.369H155.5A2.371,2.371,0,0,1,157.866,5.3V82.7Z" transform="translate(-110.933)"></path>
          </g>
        </g>
        <g id="Group_39" data-name="Group 39" transform="translate(110.933 8.8)">
          <g id="Group_38" data-name="Group 38" transform="translate(0)">
            <path id="Path_64" data-name="Path 64" class="cls-2 rjXXVimm_28" d="M159.334,51.2H112.4a1.467,1.467,0,0,0-1.467,1.467v61.6a1.467,1.467,0,0,0,1.467,1.467h46.933a1.467,1.467,0,0,0,1.467-1.467v-61.6A1.467,1.467,0,0,0,159.334,51.2Zm-1.467,61.6h-44V54.133h44Z" transform="translate(-110.934 -51.2)"></path>
          </g>
        </g>
      </g>
    </g>
    <g id="step-2" data-name="step" transform="translate(0 380)">
      <path id="Line_8-2" data-name="Line 8" class="cls-3 rjXXVimm_29" transform="translate(735.5 2214.5)" d="M208,0L0,0"></path>
      <text id="_3" data-name="3" class="cls-4" transform="translate(839.5 2285)"><tspan x="-58.115" y="0">3</tspan></text>
      <text id="Получить_ссылку_на_скачивание_демо_и_установить_систему" data-name="Получить ссылку на скачивание демо и установить систему" class="cls-5" transform="translate(416 2215)"><tspan x="2.09" y="17">Получить ссылку на скачивание демо и </tspan><tspan x="76.395" y="38">установить систему</tspan></text>
      <g id="link" transform="translate(511.893 2105.42)">
        <path id="Path_73" data-name="Path 73" class="cls-2 rjXXVimm_30" d="M21.971,122.945a21.836,21.836,0,0,0,15.538-6.435l7.593-7.594a2.478,2.478,0,0,0-3.5-3.5L34,113A17.017,17.017,0,0,1,9.938,88.939l22.2-22.2A17.017,17.017,0,1,1,56.2,90.808L52.11,94.9A2.479,2.479,0,1,0,55.615,98.4L59.7,94.314A21.974,21.974,0,1,0,28.629,63.238l-22.2,22.2a21.973,21.973,0,0,0,15.538,37.51Zm0,0" transform="translate(0 -42.549)"></path>
        <path id="Path_74" data-name="Path 74" class="cls-2 rjXXVimm_31" d="M180.1,17.77l7.593-7.593a17.016,17.016,0,0,1,24.065,24.064l-22.2,22.2A17.017,17.017,0,1,1,165.5,32.373l4.089-4.089a2.479,2.479,0,0,0-3.505-3.505L162,28.868a21.974,21.974,0,0,0,31.076,31.075l22.2-22.2A21.974,21.974,0,0,0,184.193,6.672L176.6,14.265A2.479,2.479,0,0,0,180.1,17.77Zm0,0" transform="translate(-117.013)"></path>
      </g>
    </g>
    <g id="step-3" data-name="step" transform="translate(658 2266)">
      <path id="Line_8-3" data-name="Line 8" class="cls-3 rjXXVimm_32" transform="translate(319.5 138.5)" d="M208,0L0,0"></path>
      <text id="_2" data-name="2" class="cls-4" transform="translate(423.5 209)"><tspan x="-58.115" y="0">2</tspan></text>
      <text id="Дождаться_звонка_менеджера_и_обсудить_все_детали" data-name="Дождаться звонка менеджера и обсудить все детали" class="cls-5" transform="translate(551 139)"><tspan x="30.039" y="17">Дождаться звонка менеджера и </tspan><tspan x="73.504" y="38">обсудить все детали</tspan></text>
      <g id="help-line" transform="translate(671.178 25.86)">
        <path id="Path_65" data-name="Path 65" class="cls-2 rjXXVimm_33" d="M6.136,45.139h5.469a1.475,1.475,0,0,0,1.454-1.378l1.416-20.676a1.532,1.532,0,0,0-.388-1.126,1.493,1.493,0,0,0-1.065-.5H10.076v-.042a18.576,18.576,0,0,1,37.152,0v.042H44.281a1.5,1.5,0,0,0-1.453,1.6l1.416,20.694A1.481,1.481,0,0,0,45.7,45.139h1.529v.623a2.09,2.09,0,0,1-2.146,2.109H37.6a1.457,1.457,0,0,0,0,2.914h7.482a5.006,5.006,0,0,0,5.06-5.022v-.623h1.027a5.73,5.73,0,0,0,5.7-5.726c0-.105,0-.221-.009-.325,0-.011,0-.028,0-.039L55.92,26.864a5.734,5.734,0,0,0-5.7-5.4h-.083v-.042a21.489,21.489,0,0,0-42.979,0v.042H7.08a5.732,5.732,0,0,0-5.7,5.4L.442,39.03c0,.011,0,.029,0,.04-.006.105-.009.234-.009.339a5.732,5.732,0,0,0,5.705,5.73Zm46.876-18.1c0,.011,0,.035,0,.045l.941,12.158c0,.047,0,.119,0,.166a2.816,2.816,0,0,1-2.792,2.816h-4.11L45.841,24.378h4.384a2.816,2.816,0,0,1,2.787,2.663ZM3.349,39.25,4.291,27.1c0-.01,0-.048,0-.058a2.817,2.817,0,0,1,2.787-2.663h4.384L10.246,42.225H6.136a2.812,2.812,0,0,1-2.791-2.812c0-.047,0-.115,0-.163Zm0,0"></path>
        <path id="Path_66" data-name="Path 66" class="cls-2 rjXXVimm_34" d="M92.8,148.106A13.938,13.938,0,1,0,78.86,134.168,13.938,13.938,0,0,0,92.8,148.106Zm0-24.962a11.024,11.024,0,1,1-11.024,11.024A11.024,11.024,0,0,1,92.8,123.144Zm0,0" transform="translate(-64.146 -98.335)"></path>
        <path id="Path_67" data-name="Path 67" class="cls-2 rjXXVimm_35" d="M68.926,319.619V297.57a12.732,12.732,0,0,0-12.7-12.71,1.467,1.467,0,0,0-1.174.6,13.51,13.51,0,0,1-21.791,0,1.467,1.467,0,0,0-1.174-.6,12.732,12.732,0,0,0-12.7,12.71v22.049a1.489,1.489,0,0,0,1.47,1.482h46.6a1.489,1.489,0,0,0,1.47-1.482Zm-2.914-1.432H22.3V297.57a9.8,9.8,0,0,1,9.081-9.751,16.46,16.46,0,0,0,25.545,0,9.8,9.8,0,0,1,9.082,9.751Zm0,0" transform="translate(-15.507 -232.983)"></path>
      </g>
    </g>
    <g id="step-4" data-name="step" transform="translate(658 2646)">
      <path id="Line_8-4" data-name="Line 8" class="cls-3 rjXXVimm_36" transform="translate(319.5 138.5)" d="M208,0L0,0"></path>
      <text id="_4" data-name="4" class="cls-4" transform="translate(423.5 209)"><tspan x="-60.199" y="0">4</tspan></text>
      <text id="Получить_30_000_бонусов_и_начать_зарабатывать_" data-name="Получить 30 000 бонусов и 
начать зарабатывать!" class="cls-5" transform="translate(551 139)"><tspan x="47.637" y="17">Получить 30 000 бонусов и </tspan><tspan x="69.254" y="38">начать зарабатывать!</tspan></text>
      <g id="money2" transform="translate(628.962 29.237)">
        <g id="Group_41" data-name="Group 41" transform="translate(72.437 21.007)">
          <g id="Group_40" data-name="Group 40">
            <path id="Path_75" data-name="Path 75" class="cls-2 rjXXVimm_37" d="M286.653,157.756V128.439A1.565,1.565,0,0,0,285,126.9h-6.406a1.609,1.609,0,0,0-1.705,1.539v26.453a15.453,15.453,0,0,0-3.145.414V137.081a1.62,1.62,0,0,0-1.688-1.573h-6.406a1.6,1.6,0,0,0-1.672,1.573V161.8a16.249,16.249,0,0,0-3.013,9.5,16.413,16.413,0,1,0,25.691-13.541ZM280.2,130.211h3.145V156a14.751,14.751,0,0,0-3.145-.861Zm-12.912,8.608h3.145v17.63a16.855,16.855,0,0,0-3.145,1.887Zm21.371,39.15A13.1,13.1,0,1,1,272.384,159.2a1.572,1.572,0,0,0,.546-.215,12.847,12.847,0,0,1,4.47-.795c.348,0,.679.017,1.026.05h.017a12.789,12.789,0,0,1,5.628,1.788A13.092,13.092,0,0,1,288.656,177.968Z" transform="translate(-260.962 -126.9)"></path>
          </g>
        </g>
        <g id="Group_43" data-name="Group 43" transform="translate(83.495 53.899)">
          <g id="Group_42" data-name="Group 42" transform="translate(0)">
            <path id="Path_76" data-name="Path 76" class="cls-2 rjXXVimm_38" d="M333.142,335.764a2.094,2.094,0,1,1,2.069-2.1,1.66,1.66,0,0,0,1.655,1.655,1.678,1.678,0,0,0,1.688-1.655,5.407,5.407,0,0,0-3.427-5.032v-1.374a1.655,1.655,0,0,0-3.311,0v1.192a5.4,5.4,0,0,0-3.874,6.572,5.33,5.33,0,0,0,5.181,4.039,2.078,2.078,0,1,1-2.086,2.069,1.66,1.66,0,0,0-1.655-1.655,1.608,1.608,0,0,0-1.622,1.639v.017a5.42,5.42,0,0,0,4.039,5.214v.745a1.655,1.655,0,1,0,3.311,0v-.91a5.39,5.39,0,0,0-1.97-10.412Z" transform="translate(-327.761 -325.6)"></path>
          </g>
        </g>
        <g id="Group_45" data-name="Group 45" transform="translate(49.46 42.858)">
          <g id="Group_44" data-name="Group 44">
            <path id="Path_77" data-name="Path 77" class="cls-2 rjXXVimm_39" d="M130.274,258.9h-6.456a1.66,1.66,0,0,0-1.655,1.655v25.989a1.66,1.66,0,0,0,1.655,1.655h6.456a1.66,1.66,0,0,0,1.655-1.655V260.555A1.66,1.66,0,0,0,130.274,258.9Zm-1.655,26.155h-3.145V262.211h3.145Z" transform="translate(-122.163 -258.9)"></path>
          </g>
        </g>
        <g id="Group_47" data-name="Group 47" transform="translate(62.538 39.05)">
          <g id="Group_46" data-name="Group 46" transform="translate(0)">
            <path id="Path_78" data-name="Path 78" class="cls-2 rjXXVimm_40" d="M209.274,235.9h-6.456a1.66,1.66,0,0,0-1.655,1.655v29.962a1.66,1.66,0,0,0,1.655,1.655h6.456a1.66,1.66,0,0,0,1.655-1.655V237.555A1.66,1.66,0,0,0,209.274,235.9Zm-1.655,29.962h-3.145V239.211h3.145Z" transform="translate(-201.163 -235.9)"></path>
          </g>
        </g>
        <g id="Group_49" data-name="Group 49" transform="translate(36.383 57.094)">
          <g id="Group_48" data-name="Group 48" transform="translate(0)">
            <path id="Path_79" data-name="Path 79" class="cls-2 rjXXVimm_41" d="M51.274,344.9H44.818a1.66,1.66,0,0,0-1.655,1.655v11.753a1.66,1.66,0,0,0,1.655,1.655h6.456a1.66,1.66,0,0,0,1.655-1.655V346.555A1.66,1.66,0,0,0,51.274,344.9Zm-1.655,11.919H46.474v-8.608h3.145Z" transform="translate(-43.163 -344.9)"></path>
          </g>
        </g>
        <g id="Group_51" data-name="Group 51" transform="translate(35.038)">
          <g id="Group_50" data-name="Group 50" transform="translate(0)">
            <path id="Path_80" data-name="Path 80" class="cls-2 rjXXVimm_42" d="M97.88,0,86.557.017a1.655,1.655,0,1,0-.033,3.311h.033l7.333-.017L75.93,21.205l-6.274-6.224a1.82,1.82,0,0,0-2.351,0L35.522,46.764a1.651,1.651,0,0,0,2.351,2.318L68.5,18.457l6.274,6.324a1.657,1.657,0,0,0,1.175.53,1.76,1.76,0,0,0,1.175-.53l19.1-19.12-.017,7.366a1.656,1.656,0,1,0,3.311,0l.017-11.356A1.675,1.675,0,0,0,97.88,0Z" transform="translate(-35.038)"></path>
          </g>
        </g>
      </g>
    </g>
  </g>
<style data-made-with="vivus-instant">.rjXXVimm_0{stroke-dasharray:110 112;stroke-dashoffset:111;animation:rjXXVimm_draw 2000ms linear 0ms forwards;}.rjXXVimm_1{stroke-dasharray:104 106;stroke-dashoffset:105;animation:rjXXVimm_draw 2000ms linear 23ms forwards;}.rjXXVimm_2{stroke-dasharray:60 62;stroke-dashoffset:61;animation:rjXXVimm_draw 2000ms linear 47ms forwards;}.rjXXVimm_3{stroke-dasharray:110 112;stroke-dashoffset:111;animation:rjXXVimm_draw 2000ms linear 71ms forwards;}.rjXXVimm_4{stroke-dasharray:104 106;stroke-dashoffset:105;animation:rjXXVimm_draw 2000ms linear 95ms forwards;}.rjXXVimm_5{stroke-dasharray:60 62;stroke-dashoffset:61;animation:rjXXVimm_draw 2000ms linear 119ms forwards;}.rjXXVimm_6{stroke-dasharray:110 112;stroke-dashoffset:111;animation:rjXXVimm_draw 2000ms linear 142ms forwards;}.rjXXVimm_7{stroke-dasharray:104 106;stroke-dashoffset:105;animation:rjXXVimm_draw 2000ms linear 166ms forwards;}.rjXXVimm_8{stroke-dasharray:60 62;stroke-dashoffset:61;animation:rjXXVimm_draw 2000ms linear 190ms forwards;}.rjXXVimm_9{stroke-dasharray:110 112;stroke-dashoffset:111;animation:rjXXVimm_draw 2000ms linear 214ms forwards;}.rjXXVimm_10{stroke-dasharray:104 106;stroke-dashoffset:105;animation:rjXXVimm_draw 2000ms linear 238ms forwards;}.rjXXVimm_11{stroke-dasharray:60 62;stroke-dashoffset:61;animation:rjXXVimm_draw 2000ms linear 261ms forwards;}.rjXXVimm_12{stroke-dasharray:110 112;stroke-dashoffset:111;animation:rjXXVimm_draw 2000ms linear 285ms forwards;}.rjXXVimm_13{stroke-dasharray:104 106;stroke-dashoffset:105;animation:rjXXVimm_draw 2000ms linear 309ms forwards;}.rjXXVimm_14{stroke-dasharray:60 62;stroke-dashoffset:61;animation:rjXXVimm_draw 2000ms linear 333ms forwards;}.rjXXVimm_15{stroke-dasharray:110 112;stroke-dashoffset:111;animation:rjXXVimm_draw 2000ms linear 357ms forwards;}.rjXXVimm_16{stroke-dasharray:104 106;stroke-dashoffset:105;animation:rjXXVimm_draw 2000ms linear 380ms forwards;}.rjXXVimm_17{stroke-dasharray:60 62;stroke-dashoffset:61;animation:rjXXVimm_draw 2000ms linear 404ms forwards;}.rjXXVimm_18{stroke-dasharray:81 83;stroke-dashoffset:82;animation:rjXXVimm_draw 2000ms linear 428ms forwards;}.rjXXVimm_19{stroke-dasharray:81 83;stroke-dashoffset:82;animation:rjXXVimm_draw 2000ms linear 452ms forwards;}.rjXXVimm_20{stroke-dasharray:156 158;stroke-dashoffset:157;animation:rjXXVimm_draw 2000ms linear 476ms forwards;}.rjXXVimm_21{stroke-dasharray:156 158;stroke-dashoffset:157;animation:rjXXVimm_draw 2000ms linear 500ms forwards;}.rjXXVimm_22{stroke-dasharray:156 158;stroke-dashoffset:157;animation:rjXXVimm_draw 2000ms linear 523ms forwards;}.rjXXVimm_23{stroke-dasharray:208 210;stroke-dashoffset:209;animation:rjXXVimm_draw 2000ms linear 547ms forwards;}.rjXXVimm_24{stroke-dasharray:39 41;stroke-dashoffset:40;animation:rjXXVimm_draw 2000ms linear 571ms forwards;}.rjXXVimm_25{stroke-dasharray:13 15;stroke-dashoffset:14;animation:rjXXVimm_draw 2000ms linear 595ms forwards;}.rjXXVimm_26{stroke-dasharray:50 52;stroke-dashoffset:51;animation:rjXXVimm_draw 2000ms linear 619ms forwards;}.rjXXVimm_27{stroke-dasharray:515 517;stroke-dashoffset:516;animation:rjXXVimm_draw 2000ms linear 642ms forwards;}.rjXXVimm_28{stroke-dasharray:432 434;stroke-dashoffset:433;animation:rjXXVimm_draw 2000ms linear 666ms forwards;}.rjXXVimm_29{stroke-dasharray:208 210;stroke-dashoffset:209;animation:rjXXVimm_draw 2000ms linear 690ms forwards;}.rjXXVimm_30{stroke-dasharray:357 359;stroke-dashoffset:358;animation:rjXXVimm_draw 2000ms linear 714ms forwards;}.rjXXVimm_31{stroke-dasharray:357 359;stroke-dashoffset:358;animation:rjXXVimm_draw 2000ms linear 738ms forwards;}.rjXXVimm_32{stroke-dasharray:208 210;stroke-dashoffset:209;animation:rjXXVimm_draw 2000ms linear 761ms forwards;}.rjXXVimm_33{stroke-dasharray:379 381;stroke-dashoffset:380;animation:rjXXVimm_draw 2000ms linear 785ms forwards;}.rjXXVimm_34{stroke-dasharray:157 159;stroke-dashoffset:158;animation:rjXXVimm_draw 2000ms linear 809ms forwards;}.rjXXVimm_35{stroke-dasharray:307 309;stroke-dashoffset:308;animation:rjXXVimm_draw 2000ms linear 833ms forwards;}.rjXXVimm_36{stroke-dasharray:208 210;stroke-dashoffset:209;animation:rjXXVimm_draw 2000ms linear 857ms forwards;}.rjXXVimm_37{stroke-dasharray:386 388;stroke-dashoffset:387;animation:rjXXVimm_draw 2000ms linear 880ms forwards;}.rjXXVimm_38{stroke-dasharray:89 91;stroke-dashoffset:90;animation:rjXXVimm_draw 2000ms linear 904ms forwards;}.rjXXVimm_39{stroke-dasharray:128 130;stroke-dashoffset:129;animation:rjXXVimm_draw 2000ms linear 928ms forwards;}.rjXXVimm_40{stroke-dasharray:143 145;stroke-dashoffset:144;animation:rjXXVimm_draw 2000ms linear 952ms forwards;}.rjXXVimm_41{stroke-dasharray:71 73;stroke-dashoffset:72;animation:rjXXVimm_draw 2000ms linear 976ms forwards;}.rjXXVimm_42{stroke-dasharray:220 222;stroke-dashoffset:221;animation:rjXXVimm_draw 2000ms linear 1000ms forwards;}@keyframes rjXXVimm_draw{100%{stroke-dashoffset:0;}}@keyframes rjXXVimm_fade{0%{stroke-opacity:1;}94.44444444444444%{stroke-opacity:1;}100%{stroke-opacity:0;}}</style></svg>
