<svg xmlns="http://www.w3.org/2000/svg" viewBox="0 0 114.884 121.331"><defs><style>.a{fill:#0a5a7f;}</style></defs><g transform="translate(0)"><g transform="translate(0 34.753)"><path class="a" d="M126.116,228.492h-5.2V153.024a6.378,6.378,0,0,0-6.37-6.37H102.93a6.378,6.378,0,0,0-6.37,6.37v75.468h-13.2V187.217a6.377,6.377,0,0,0-6.37-6.37H65.375a6.378,6.378,0,0,0-6.37,6.37v41.275h-13.2V207.116a6.378,6.378,0,0,0-6.37-6.37H27.819a6.378,6.378,0,0,0-6.37,6.37v21.376H15.971a2.37,2.37,0,0,0,0,4.739H126.116a2.37,2.37,0,1,0,0-4.739Zm-85.049,0H26.188V207.116a1.633,1.633,0,0,1,1.631-1.631H39.436a1.633,1.633,0,0,1,1.631,1.631v21.376Zm37.556,0H63.744V187.217a1.633,1.633,0,0,1,1.631-1.631H76.992a1.633,1.633,0,0,1,1.631,1.631Zm37.556,0H101.3V153.024a1.633,1.633,0,0,1,1.631-1.631h11.617a1.633,1.633,0,0,1,1.631,1.631v75.468Z" transform="translate(-13.601 -146.654)"/></g><g transform="translate(20.319)"><path class="a" d="M186.338,2.492A2.361,2.361,0,0,0,183.852.006c-.038,0-.076-.006-.115-.006H169.4a2.37,2.37,0,0,0,0,4.739h8.853L154.826,28.166l-8.834-8.834a2.37,2.37,0,0,0-3.351,0l-42.6,42.6a2.37,2.37,0,0,0,3.351,3.351l40.925-40.925,8.834,8.834a2.37,2.37,0,0,0,3.352,0l25.1-25.1V16.1a2.37,2.37,0,1,0,4.739,0V2.607C186.344,2.568,186.34,2.53,186.338,2.492Z" transform="translate(-99.346)"/></g><g transform="translate(12.332 69.507)"><g transform="translate(0)"><circle class="a" cx="2.37" cy="2.37" r="2.37"/></g></g></g></svg>