<svg xmlns="http://www.w3.org/2000/svg" viewBox="0 0 48.89 67.537"><defs><style>.a{fill:#fff;}</style></defs><g transform="translate(0 0)"><path class="a" d="M48.067,19.931a4.415,4.415,0,0,0-.419-.986,2.377,2.377,0,0,1,0-2.37,4.349,4.349,0,0,0-3.766-6.524,2.377,2.377,0,0,1-2.053-1.185,4.38,4.38,0,0,0-4.976-2,5.193,5.193,0,0,0-4.532-2.6A3.278,3.278,0,0,1,29.49,2.624a5.248,5.248,0,0,0-9.089,0,3.278,3.278,0,0,1-2.831,1.635,5.193,5.193,0,0,0-4.532,2.6,4.38,4.38,0,0,0-4.976,2,2.376,2.376,0,0,1-2.053,1.185,4.349,4.349,0,0,0-3.766,6.524,2.377,2.377,0,0,1,0,2.37,4.415,4.415,0,0,0-.419.986A1.977,1.977,0,0,0,.5,21.794v6.848a1.978,1.978,0,0,0,1.976,1.976h.967L14.671,47.463a1.834,1.834,0,0,0-.3,1.553l1.16,4.462a1.848,1.848,0,0,0,.949,1.181l-1.891,8.094a3.946,3.946,0,0,0,.593,3.133,3.78,3.78,0,0,0,3.136,1.652,3.413,3.413,0,0,0,2.248-.815,1.552,1.552,0,0,1,2.127,0,3.507,3.507,0,0,0,4.5,0,1.553,1.553,0,0,1,2.128,0,3.412,3.412,0,0,0,2.248.815,3.861,3.861,0,0,0,.514-.033A3.815,3.815,0,0,0,34.7,65.885a3.949,3.949,0,0,0,.594-3.133l-1.891-8.094a1.848,1.848,0,0,0,.949-1.18l1.16-4.462a1.835,1.835,0,0,0-.3-1.553l5.329-8a.989.989,0,1,0-1.646-1.1L33.35,46.7H26.792a.989.989,0,1,0,0,1.979h6.767l-1.093,4.2H17.425l-1.093-4.2h6.9a.989.989,0,0,0,0-1.979H16.541L5.821,30.617H44.07l-3.136,4.705a.989.989,0,1,0,1.647,1.1l3.867-5.8h.967a1.978,1.978,0,0,0,1.976-1.976V21.793a1.977,1.977,0,0,0-1.323-1.863ZM33.076,64.762a1.809,1.809,0,0,1-1.257.782,1.9,1.9,0,0,1-.25.015,1.5,1.5,0,0,1-1.064-.422,3.507,3.507,0,0,0-4.5,0,1.552,1.552,0,0,1-2.127,0,3.507,3.507,0,0,0-4.5,0,1.5,1.5,0,0,1-1.064.422,1.877,1.877,0,0,1-.249-.015,1.81,1.81,0,0,1-1.257-.781,1.968,1.968,0,0,1-.3-1.56l1.949-8.34h3.4L20.4,59.413a.99.99,0,0,0,.637,1.246.979.979,0,0,0,.3.048.99.99,0,0,0,.941-.685l1.669-5.16h2l1.669,5.16a.99.99,0,0,0,.941.685,1,1,0,0,0,.305-.048.99.99,0,0,0,.637-1.246l-1.472-4.551h3.4l1.948,8.34a1.966,1.966,0,0,1-.3,1.56Zm7.04-54.907a4.361,4.361,0,0,0,3.767,2.174,2.371,2.371,0,0,1,2.053,3.556,4.361,4.361,0,0,0,0,4.349,2.37,2.37,0,0,1-2.053,3.555,4.361,4.361,0,0,0-3.767,2.174,2.37,2.37,0,0,1-4.106,0,4.361,4.361,0,0,0-3.766-2.174,2.4,2.4,0,0,1-.736-.114,3.247,3.247,0,0,1,.814-.1,5.186,5.186,0,0,0,3.811-1.639,4.327,4.327,0,1,0,.3-7.88,3.265,3.265,0,0,1,.436-1.622,5.2,5.2,0,0,0,.651-3.394,2.367,2.367,0,0,1,2.6,1.119ZM20.22,24.63c.064.089.125.18.18.276a5.247,5.247,0,0,0,9.089,0,3.178,3.178,0,0,1,.18-.274,4.285,4.285,0,0,0,2.574.837A2.377,2.377,0,0,1,34.3,26.654a4.3,4.3,0,0,0,2.491,1.985l-23.689,0a4.3,4.3,0,0,0,2.5-1.987,2.378,2.378,0,0,1,2.053-1.186,4.3,4.3,0,0,0,2.573-.838Zm16.786-8.968a2.349,2.349,0,1,1,.2,4.283,5.175,5.175,0,0,0-.2-4.283ZM17.569,6.238a5.264,5.264,0,0,0,4.545-2.624,3.269,3.269,0,0,1,5.662,0,5.263,5.263,0,0,0,4.545,2.624,3.269,3.269,0,0,1,2.831,4.9,5.263,5.263,0,0,0,0,5.248,3.269,3.269,0,0,1-2.831,4.9,5.262,5.262,0,0,0-4.545,2.624,3.269,3.269,0,0,1-5.662,0,5.263,5.263,0,0,0-4.545-2.624,3.269,3.269,0,0,1-2.831-4.9,5.264,5.264,0,0,0,0-5.248,3.269,3.269,0,0,1,2.831-4.9ZM12.687,19.946a2.348,2.348,0,1,1,.2-4.284A5.174,5.174,0,0,0,12.687,19.946Zm-8.731-4.36A2.371,2.371,0,0,1,6.009,12.03,4.36,4.36,0,0,0,9.775,9.855a2.367,2.367,0,0,1,2.6-1.119,5.2,5.2,0,0,0,.651,3.394,3.27,3.27,0,0,1,.436,1.622,4.327,4.327,0,1,0,.3,7.88,5.183,5.183,0,0,0,3.811,1.639,3.242,3.242,0,0,1,.813.1,2.4,2.4,0,0,1-.735.114,4.361,4.361,0,0,0-3.767,2.174,2.37,2.37,0,0,1-4.106,0A4.361,4.361,0,0,0,6.009,23.49a2.37,2.37,0,0,1-2.053-3.555,4.362,4.362,0,0,0,0-4.349ZM2.477,23.655a4.3,4.3,0,0,0,3.532,1.814,2.378,2.378,0,0,1,2.053,1.186,4.3,4.3,0,0,0,2.5,1.987H4.018a.9.9,0,0,0-.091,0H2.48Zm43.439,4.984H39.339a4.3,4.3,0,0,0,2.491-1.985,2.377,2.377,0,0,1,2.053-1.185,4.3,4.3,0,0,0,3.531-1.812l0,4.982Zm0,0" transform="translate(-0.5 0)"/><path class="a" d="M150.078,74.045a5.43,5.43,0,1,0-5.43-5.43A5.437,5.437,0,0,0,150.078,74.045Zm0-8.882a3.452,3.452,0,1,1-3.452,3.452A3.456,3.456,0,0,1,150.078,65.163Zm0,0" transform="translate(-125.634 -54.849)"/></g></svg>