<svg xmlns="http://www.w3.org/2000/svg" viewBox="0 0 51.151 55.087"><defs><style>.a{fill:#fff;}</style></defs><g transform="translate(0 0)"><path class="a" d="M68.26,9.038A3.78,3.78,0,0,0,65.493,7.87H61.559V4.919a4.737,4.737,0,0,0-1.445-3.473A4.737,4.737,0,0,0,56.64,0H54.673A4.736,4.736,0,0,0,51.2,1.445a4.735,4.735,0,0,0-1.445,3.473V7.87H37.95V4.919a4.736,4.736,0,0,0-1.445-3.473A4.736,4.736,0,0,0,33.031,0H31.064A4.737,4.737,0,0,0,27.59,1.445a4.737,4.737,0,0,0-1.445,3.473V7.87H22.211a3.781,3.781,0,0,0-2.767,1.168A3.782,3.782,0,0,0,18.276,11.8V51.153a3.99,3.99,0,0,0,3.935,3.934H65.493a3.99,3.99,0,0,0,3.935-3.934V11.8A3.782,3.782,0,0,0,68.26,9.038Zm-37.2,42.114H22.211V42.3h8.853Zm0-10.82H22.211V30.5h8.853Zm0-11.8H22.211V19.674h8.853Zm-.691-14.063a.944.944,0,0,1-.292-.692V4.919a1,1,0,0,1,.984-.984h1.967a1,1,0,0,1,.984.984v8.853a1,1,0,0,1-.984.984H31.064A.945.945,0,0,1,30.373,14.463Zm12.5,36.689H33.031V42.3h9.837v8.854Zm0-10.82H33.031V30.5h9.837v9.836Zm0-11.8H33.031V19.674h9.837v8.853Zm11.8,22.625H44.836V42.3h9.837Zm0-10.82H44.836V30.5h9.837Zm0-11.8H44.836V19.674h9.837Zm-.692-14.063a.945.945,0,0,1-.291-.692V4.919a1,1,0,0,1,.983-.984H56.64a1,1,0,0,1,.983.984v8.853a1,1,0,0,1-.983.984H54.673A.944.944,0,0,1,53.981,14.463ZM65.493,51.152H56.639V42.3h8.853Zm0-10.82H56.639V30.5h8.853Zm0-11.8H56.639V19.674h8.853Z" transform="translate(-18.276 0)"/></g></svg>