<svg xmlns="http://www.w3.org/2000/svg" viewBox="0 0 121.657 149.038"><defs><style>.a{fill:#0a5a7f;}</style></defs><g transform="translate(0)"><g transform="translate(14.935 22.402)"><g transform="translate(0)"><path class="a" d="M115.607,84.428a2.334,2.334,0,0,0-2.334,2.334,5.134,5.134,0,1,1-5.134-5.134,2.334,2.334,0,1,0,0-4.667,9.8,9.8,0,1,0,9.8,9.8A2.333,2.333,0,0,0,115.607,84.428Z" transform="translate(-98.338 -76.96)"/></g></g><g transform="translate(14.935 49.783)"><g transform="translate(0)"><path class="a" d="M115.607,178.49a2.334,2.334,0,0,0-2.334,2.334,5.134,5.134,0,1,1-5.134-5.134,2.334,2.334,0,0,0,0-4.667,9.8,9.8,0,1,0,9.8,9.8A2.333,2.333,0,0,0,115.607,178.49Z" transform="translate(-98.338 -171.022)"/></g></g><g transform="translate(39.826 62.229)"><path class="a" d="M203.607,213.779H186.183a2.334,2.334,0,1,0,0,4.667h17.424a2.334,2.334,0,1,0,0-4.667Z" transform="translate(-183.849 -213.779)"/></g><g transform="translate(39.826 52.272)"><path class="a" d="M203.607,179.574H186.183a2.334,2.334,0,0,0,0,4.667h17.424a2.334,2.334,0,0,0,0-4.667Z" transform="translate(-183.849 -179.574)"/></g><g transform="translate(39.826 89.609)"><path class="a" d="M198.628,307.841H186.183a2.334,2.334,0,0,0,0,4.667h12.446a2.334,2.334,0,0,0,0-4.667Z" transform="translate(-183.849 -307.841)"/></g><g transform="translate(39.826 79.653)"><path class="a" d="M203.607,273.637H186.183a2.334,2.334,0,0,0,0,4.667h17.424a2.334,2.334,0,0,0,0-4.667Z" transform="translate(-183.849 -273.637)"/></g><g transform="translate(39.826 34.848)"><path class="a" d="M226.009,119.716H186.183a2.334,2.334,0,0,0,0,4.667h39.826a2.334,2.334,0,0,0,0-4.667Z" transform="translate(-183.849 -119.716)"/></g><g transform="translate(39.826 24.891)"><path class="a" d="M216.053,85.511h-29.87a2.334,2.334,0,0,0,0,4.667h29.87a2.334,2.334,0,1,0,0-4.667Z" transform="translate(-183.849 -85.511)"/></g><g transform="translate(14.935 77.163)"><g transform="translate(0)"><path class="a" d="M115.607,272.553a2.334,2.334,0,0,0-2.334,2.334,5.134,5.134,0,1,1-5.134-5.134,2.334,2.334,0,0,0,0-4.667,9.8,9.8,0,1,0,9.8,9.8A2.333,2.333,0,0,0,115.607,272.553Z" transform="translate(-98.338 -265.085)"/></g></g><g transform="translate(0)"><path class="a" d="M138.974,0H54.343a7.32,7.32,0,0,0-7.312,7.312V111.856a7.32,7.32,0,0,0,7.312,7.312H96.659a2.334,2.334,0,0,0,0-4.667H54.343a2.648,2.648,0,0,1-2.645-2.645V7.312a2.648,2.648,0,0,1,2.645-2.645h84.631a2.648,2.648,0,0,1,2.645,2.645V84.476a2.334,2.334,0,1,0,4.667,0V7.312A7.32,7.32,0,0,0,138.974,0Z" transform="translate(-47.031)"/></g><g transform="translate(56.012 52.273)"><g transform="translate(0)"><path class="a" d="M297.415,221.936a8.61,8.61,0,0,0-6.052,1.7,8.5,8.5,0,0,0-6.393-4.19,8.611,8.611,0,0,0-6.052,1.7,8.5,8.5,0,0,0-6.393-4.19,8.622,8.622,0,0,0-4.764.893V188.133a8.558,8.558,0,0,0-9.431-8.513,8.829,8.829,0,0,0-7.682,8.868v29.793l-6.86,6.86a14.687,14.687,0,0,0-3.936,13.836l5.208,22.134a19.682,19.682,0,0,0,19.232,15.232h21.048A19.78,19.78,0,0,0,305.1,256.585V230.8A8.828,8.828,0,0,0,297.415,221.936Zm3.015,34.649a15.108,15.108,0,0,1-15.09,15.09H264.292a15.033,15.033,0,0,1-14.69-11.634l-5.208-22.134a10.049,10.049,0,0,1,2.693-9.467l3.56-3.56v8.057a2.334,2.334,0,1,0,4.667,0v-44.45a4.126,4.126,0,0,1,3.48-4.223,3.891,3.891,0,0,1,4.3,3.869V229.2a2.334,2.334,0,1,0,4.667,0v-3.734a3.891,3.891,0,0,1,4.3-3.869,4.127,4.127,0,0,1,3.48,4.224v5.867a2.334,2.334,0,1,0,4.667,0v-3.734a3.891,3.891,0,0,1,4.3-3.869,4.127,4.127,0,0,1,3.48,4.224v5.868a2.334,2.334,0,1,0,4.667,0v-3.734a3.89,3.89,0,0,1,4.3-3.869,4.126,4.126,0,0,1,3.48,4.223v25.782Z" transform="translate(-239.452 -179.578)"/></g></g></g></svg>