<svg xmlns="http://www.w3.org/2000/svg" viewBox="0 0 147.817 147.818"><defs><style>.a{fill:#0a5a7f;fill-rule:evenodd;}</style></defs><g transform="translate(0)"><path class="a" d="M145.5,71.079l-45.992-9.3A28.564,28.564,0,0,0,86.035,48.308l-9.3-45.994a2.887,2.887,0,0,0-5.659,0l-9.3,45.994A28.574,28.574,0,0,0,48.307,61.782l-45.992,9.3a2.887,2.887,0,0,0,0,5.659l45.994,9.3A28.567,28.567,0,0,0,61.782,99.51l9.3,45.992a2.887,2.887,0,0,0,5.659,0l9.3-45.992A28.567,28.567,0,0,0,99.509,86.035l45.994-9.3a2.888,2.888,0,0,0,0-5.66ZM96.9,80.672a2.887,2.887,0,0,0-2.1,1.739A22.714,22.714,0,0,1,82.411,94.8a2.886,2.886,0,0,0-1.74,2.1l-6.763,33.459L67.146,96.9a2.888,2.888,0,0,0-1.74-2.1A22.708,22.708,0,0,1,53.017,82.412a2.886,2.886,0,0,0-2.1-1.74L17.458,73.909l33.457-6.763a2.891,2.891,0,0,0,2.1-1.739A22.708,22.708,0,0,1,65.4,53.018a2.886,2.886,0,0,0,1.74-2.1l6.763-33.459,6.763,33.459a2.886,2.886,0,0,0,1.74,2.1A22.714,22.714,0,0,1,94.8,65.406a2.887,2.887,0,0,0,2.1,1.739l33.457,6.763Zm0,0" transform="translate(0.001 0.001)"/><path class="a" d="M220.346,205.871a14.473,14.473,0,1,0,14.473,14.473A14.488,14.488,0,0,0,220.346,205.871Zm0,23.171a8.7,8.7,0,1,1,8.7-8.7A8.708,8.708,0,0,1,220.346,229.042Zm0,0" transform="translate(-146.437 -146.434)"/><path class="a" d="M83.688,300.478a2.887,2.887,0,0,0-5.512,1.72,53.442,53.442,0,0,0,5.7,12.4,2.887,2.887,0,1,0,4.9-3.06,47.7,47.7,0,0,1-5.082-11.06Zm0,0" transform="translate(-55.512 -212.285)"/><path class="a" d="M80.074,117.035a2.883,2.883,0,0,0,3.616-1.9,47.885,47.885,0,0,1,31.45-31.449,2.887,2.887,0,1,0-1.719-5.512A53.657,53.657,0,0,0,78.179,113.42a2.885,2.885,0,0,0,1.9,3.616Zm0,0" transform="translate(-55.514 -55.514)"/><path class="a" d="M400.806,168.395a2.887,2.887,0,1,0,5.511-1.72,53.44,53.44,0,0,0-5.7-12.4,2.887,2.887,0,1,0-4.9,3.06,47.7,47.7,0,0,1,5.083,11.06Zm0,0" transform="translate(-281.163 -108.769)"/><path class="a" d="M300.478,83.692a47.652,47.652,0,0,1,11.06,5.082,2.887,2.887,0,1,0,3.06-4.9,53.4,53.4,0,0,0-12.4-5.7,2.887,2.887,0,0,0-1.72,5.512Zm0,0" transform="translate(-212.286 -55.515)"/><path class="a" d="M168.4,400.8a47.65,47.65,0,0,1-11.06-5.082,2.887,2.887,0,0,0-3.06,4.9,53.451,53.451,0,0,0,12.4,5.7A2.887,2.887,0,1,0,168.4,400.8Zm0,0" transform="translate(-108.77 -281.16)"/><path class="a" d="M335.544,298.58a2.885,2.885,0,0,0-3.616,1.9,47.887,47.887,0,0,1-31.451,31.449,2.887,2.887,0,1,0,1.72,5.513A53.665,53.665,0,0,0,337.439,302.2a2.886,2.886,0,0,0-1.9-3.616Zm0,0" transform="translate(-212.285 -212.284)"/><path class="a" d="M124.5,370.383a2.887,2.887,0,1,0,2.887,2.887A2.893,2.893,0,0,0,124.5,370.383Zm0,0" transform="translate(-86.505 -263.451)"/><path class="a" d="M373.27,127.391a2.887,2.887,0,1,0-2.887-2.887A2.893,2.893,0,0,0,373.27,127.391Zm0,0" transform="translate(-263.451 -86.505)"/></g></svg>