<svg xmlns="http://www.w3.org/2000/svg" viewBox="0 0 120.95 136.539"><defs><style>.a{fill:#0a5a7f;}</style></defs><g transform="translate(0)"><path class="a" d="M206.613,127.672a11.6,11.6,0,0,0,4.472.892,10.872,10.872,0,0,0,9.762-5.658c2.475-4.872.116-10.661-5.258-12.9a11.676,11.676,0,0,0-8.206-.289,10.326,10.326,0,0,0-6.028,5.056,8.837,8.837,0,0,0-.319,7.439A10.105,10.105,0,0,0,206.613,127.672Zm-1.249-11.231a6.08,6.08,0,0,1,3.549-2.977,6.872,6.872,0,0,1,4.831.17,5.522,5.522,0,0,1,3.1,7.6,6.611,6.611,0,0,1-8.381,2.806,5.949,5.949,0,0,1-3.283-3.217A5.2,5.2,0,0,1,205.364,116.441Z" transform="translate(-156.255 -80.008)"/><path class="a" d="M122.02,174.313l7.533,3.145a2.39,2.39,0,0,0,.921.184,2.233,2.233,0,0,0,2.005-1.164,1.927,1.927,0,0,0-1.081-2.654l-6.957-2.9,5.321-7.456a1.967,1.967,0,0,0,.152-.25,5.633,5.633,0,0,0,.2-4.742,6.441,6.441,0,0,0-3.555-3.484,7.44,7.44,0,0,0-5.231-.184,6.583,6.583,0,0,0-3.843,3.223,1.911,1.911,0,0,0-.111.267l-2.79,8.511-5.538-2.312a218.071,218.071,0,0,1,11.639-48.735,1.96,1.96,0,0,0-1.361-2.545,2.269,2.269,0,0,0-2.808,1.234,220.992,220.992,0,0,0-12.01,51.094,1.979,1.979,0,0,0,1.275,1.993l7.533,3.145-2.65,8.085h0a3.065,3.065,0,0,0,1.892,3.788,3.836,3.836,0,0,0,1.479.3,3.578,3.578,0,0,0,2.926-1.456Zm-.463-14.721a2.353,2.353,0,0,1,1.3-1.036,2.64,2.64,0,0,1,1.856.066,2.286,2.286,0,0,1,1.261,1.236,1.994,1.994,0,0,1-.02,1.572L116.7,174.4Z" transform="translate(-88.593 -82.939)"/><path class="a" d="M237.577,26.915a2.345,2.345,0,0,0-2.084-.632l-8.555,1.56a.712.712,0,0,1-.329-.018l-8.359-2.478c-5.9-1.746-12.263,1.182-14.188,6.526l-.924,2.561q.136-1.572.124-3.206a1.852,1.852,0,0,0,.015-.259C203.022,15.713,193.021,1.508,192.6.911a2.286,2.286,0,0,0-2.046-.9c-.034,0-.068,0-.1.006l-.07.009C188.936.206,171,2.649,158.309,12.194a2.141,2.141,0,0,0-.209.179,32.026,32.026,0,0,0-9.352,10.8l-.362.723a1.929,1.929,0,0,0,1.1,2.645,2.3,2.3,0,0,0,2.918-1l.351-.7a27.233,27.233,0,0,1,7.328-8.744L198.86,32.277a24.718,24.718,0,0,1-2.573,10.732,127.538,127.538,0,0,1-11.413,17.543l-23.058-2.335-.031,0c-3.729-.33-7.054,2.153-7.416,5.531,0,.039-.006.078-.009.117-.006.065-.012.129-.015.193,0,.027,0,.055,0,.082,0,.078-.006.156-.005.233,0,.008,0,.016,0,.025a5.774,5.774,0,0,0,1.546,3.857c.029.032.062.06.091.091q.129.137.267.267c.068.064.138.127.209.188s.169.143.257.211.17.129.257.191.168.116.255.171.186.116.282.171.2.109.3.161.171.085.258.125c.126.058.253.113.384.164.061.024.123.046.185.069.159.057.321.111.487.158l.1.026c.185.049.373.093.565.128l.043.007c.208.037.419.066.634.086l19.319,1.956-7.16,8.766-.009.01-3.543,4.337c-.007.009-.011.018-.018.027a1.985,1.985,0,0,0-.158.231h0c0,.006-.008.011-.011.017l-.684,1.112-.018.031-22.879,37.188a1.9,1.9,0,0,0,.778,2.682l10.114,5.595a2.37,2.37,0,0,0,1.148.293,2.292,2.292,0,0,0,1.754-.785l18.457-21.866a1.879,1.879,0,0,0-.411-2.8,2.362,2.362,0,0,0-3.093.373l-17.251,20.436-6.608-3.656L165.34,99.764l2.485-4.038a10.043,10.043,0,0,0,4.081,4.157l20.333,11.383-6.072,19.717a1.981,1.981,0,0,0,1.505,2.457l11.374,3.019a2.418,2.418,0,0,0,.62.081,2.387,2.387,0,0,0,1.069-.251,2.047,2.047,0,0,0,1.055-1.208l8.905-28.719a7.081,7.081,0,0,0-3.6-8.379l-13.376-7.331L207.237,74.1a9.807,9.807,0,0,0,2.277-6.245,10.27,10.27,0,0,0-4.695-8.451A12.585,12.585,0,0,0,191,59.427a133.334,133.334,0,0,0,7.918-12.187c-.482,5.508,3.225,10.818,9.267,12.608a14.721,14.721,0,0,0,4.2.609c5.86,0,11.02-3.393,12.838-8.443l1.906-5.283h0a11.182,11.182,0,0,0,.661-3.453,12.3,12.3,0,0,0,7.658-7.268l2.574-7.145A1.859,1.859,0,0,0,237.577,26.915Zm-73.583-13.6c9.657-6.055,21.593-8.452,25.633-9.124a68.7,68.7,0,0,1,5.845,11.436l.026.065q.312.793.61,1.617l.071.2q.108.3.213.609l.082.238q.131.386.257.777c.026.08.051.161.076.241.058.183.116.367.172.552.038.125.076.25.113.376q.064.214.125.43c.039.137.079.273.117.41s.081.3.121.45q.1.37.193.744.041.164.082.329.061.253.12.508.034.146.066.292.2.9.366,1.813c.014.079.029.158.042.237q.05.287.1.576c.012.076.024.153.035.229q.111.728.194,1.462Zm-1.207,53.361-1.859-.188-.031,0q-.122-.011-.239-.032l-.027-.006a2.253,2.253,0,0,1-1.865-1.857c0-.008,0-.016,0-.024-.006-.053-.008-.106-.01-.16,0-.019,0-.038,0-.057,0-.051,0-.1.008-.155,0-.021,0-.042,0-.063s0-.027.006-.041c.007-.057.016-.114.028-.169.006-.03.016-.06.024-.09s.019-.076.031-.113.025-.066.038-.1.024-.063.038-.094.034-.069.051-.1.027-.054.043-.081.043-.069.065-.1.03-.047.046-.07.051-.068.079-.1.032-.041.049-.06.06-.066.091-.1l.051-.051c.034-.032.068-.063.1-.093l.053-.044c.037-.03.075-.058.114-.086l.055-.038c.041-.027.082-.053.124-.077l.058-.032c.043-.023.087-.046.132-.067l.062-.027c.045-.019.09-.038.137-.055l.069-.023c.046-.015.092-.03.139-.043l.077-.018c.046-.011.092-.022.139-.03.029-.005.059-.009.089-.013s.088-.013.133-.017.074,0,.11-.006.078,0,.118-.005c.076,0,.152,0,.229.009l.772.078,1.314.133Zm42.026,34.729h0a3.243,3.243,0,0,1,1.639,3.852l-8.308,26.794-7.142-1.9,5.932-19.264a1.92,1.92,0,0,0-.966-2.24L174.225,96.48a5.386,5.386,0,0,1-2.191-7.594l.67-1.088,2.251-2.755,7.527,4.124Zm-2.621-38.786a6.28,6.28,0,0,1,2.908,5.236,6.074,6.074,0,0,1-1.411,3.866l-13.761,16.85-4.943-2.708-7.393-4.052,7.251-8.878,10.964,1.11.031,0q.336.03.67.03a7.177,7.177,0,0,0,4.3-1.4,5.971,5.971,0,0,0,2.445-4.158,5.735,5.735,0,0,0-1.515-4.507,6.973,6.973,0,0,0-4.57-2.215l-1.408-.143A7.782,7.782,0,0,1,202.193,62.621Zm-5.5,3.152.031,0a2.226,2.226,0,0,1,2.137,2.354,2.09,2.09,0,0,1-.856,1.456,2.533,2.533,0,0,1-1.728.482l-29.1-2.947.642-4.273,22,2.228.024,0Zm26.244-20.286-1.907,5.284a9.035,9.035,0,0,1-8.643,5.685,9.9,9.9,0,0,1-2.827-.41c-4.768-1.412-7.38-6.077-5.822-10.4l.562-1.561,4.571,1.355a2.421,2.421,0,0,0,.308.067l.066.01a2.414,2.414,0,0,0,.3.022h.01l.026,0a2.454,2.454,0,0,0,.288-.021l.045-.005a2.367,2.367,0,0,0,.294-.064l.051-.016a2.367,2.367,0,0,0,.284-.105h0a2.262,2.262,0,0,0,.263-.143l.049-.031a2.18,2.18,0,0,0,.231-.174l.03-.028a2.029,2.029,0,0,0,.184-.19l.031-.036a1.946,1.946,0,0,0,.162-.234l.03-.054a1.919,1.919,0,0,0,.125-.269l.12-.33a2.32,2.32,0,0,1,.1-.233l.019-.034c.032-.064.066-.127.1-.187l0-.007a2.785,2.785,0,0,1,2.37-1.233h.022c.07,0,.14.006.211.012l.059,0c.061.006.123.017.184.028.028,0,.056.007.084.013.088.018.176.039.264.065l4.046,1.2c.249.074.5.138.752.2l.126.03q.374.085.751.149l.093.015a14,14,0,0,0,1.592.168l.09,0c.221.009.441.015.662.013A7.636,7.636,0,0,1,222.938,45.487Zm8.319-10.72a8.235,8.235,0,0,1-6.208,5.1,9.242,9.242,0,0,1-4.438-.2l-4.046-1.2c-.181-.054-.364-.1-.547-.139l-.067-.015q-.272-.057-.547-.094l-.044-.006a7.72,7.72,0,0,0-4.234.633c-.072.033-.141.07-.211.105l-.043.022a7.043,7.043,0,0,0-1.774,1.269l-.021.021q-.185.185-.355.382l-.015.017c-.118.139-.232.281-.337.428l-2.691-.8-.009,0,2.586-7.169a7.017,7.017,0,0,1,8.622-3.966l8.357,2.478a5.575,5.575,0,0,0,2.571.137l4.848-.884Z" transform="translate(-117.184 -0.001)"/><path class="a" d="M74.551,479.864H52.626a2.01,2.01,0,1,0,0,4H74.551a2.01,2.01,0,1,0,0-4Z" transform="translate(-50.42 -351.89)"/><path class="a" d="M90.189,436.811H74.782a2.01,2.01,0,1,0,0,4H90.189a2.01,2.01,0,1,0,0-4Z" transform="translate(-66.058 -320.319)"/><path class="a" d="M111.513,393.759h-6.519a2.01,2.01,0,1,0,0,4h6.519a2.01,2.01,0,1,0,0-4Z" transform="translate(-87.382 -288.748)"/></g></svg>