<svg xmlns="http://www.w3.org/2000/svg" viewBox="0 0 41.167 41.167"><defs><style>.a{fill:#fff;}</style></defs><g transform="translate(0)"><path class="a" d="M29.208,0H11.958A11.972,11.972,0,0,0,0,11.958v17.25A11.972,11.972,0,0,0,11.958,41.166h17.25A11.972,11.972,0,0,0,41.166,29.208V11.958A11.972,11.972,0,0,0,29.208,0ZM37.95,29.208a8.752,8.752,0,0,1-8.742,8.742H11.958a8.752,8.752,0,0,1-8.742-8.742V11.958a8.752,8.752,0,0,1,8.742-8.742h17.25a8.752,8.752,0,0,1,8.742,8.742Z"/><g transform="translate(9.488 9.488)"><path class="a" d="M129.1,118a11.1,11.1,0,1,0,11.1,11.1A11.108,11.108,0,0,0,129.1,118Zm0,18.975a7.88,7.88,0,1,1,7.88-7.88A7.888,7.888,0,0,1,129.1,136.975Z" transform="translate(-118 -118)"/></g><g transform="translate(30.232 7.719)"><circle class="a" cx="1.608" cy="1.608" r="1.608"/></g></g></svg>