<svg xmlns="http://www.w3.org/2000/svg" viewBox="0 0 42.26 42.26"><defs><style>.a{fill:#0a5a7f;}</style></defs><g transform="translate(0)"><path class="a" d="M29.984,0H12.276A12.29,12.29,0,0,0,0,12.276V29.984A12.29,12.29,0,0,0,12.276,42.26H29.984A12.29,12.29,0,0,0,42.26,29.984V12.276A12.29,12.29,0,0,0,29.984,0Zm8.974,29.984a8.984,8.984,0,0,1-8.974,8.974H12.276A8.984,8.984,0,0,1,3.3,29.984V12.276A8.984,8.984,0,0,1,12.276,3.3H29.984a8.984,8.984,0,0,1,8.974,8.974Z"/><g transform="translate(9.74 9.74)"><path class="a" d="M129.39,118a11.39,11.39,0,1,0,11.39,11.39A11.4,11.4,0,0,0,129.39,118Zm0,19.479a8.089,8.089,0,1,1,8.089-8.089A8.1,8.1,0,0,1,129.39,137.479Z" transform="translate(-118 -118)"/></g><g transform="translate(31.035 7.924)"><ellipse class="a" cx="1.651" cy="1.651" rx="1.651" ry="1.651"/></g></g></svg>