<svg xmlns="http://www.w3.org/2000/svg" viewBox="0 0 63.606 44.632"><defs><style>.a{fill:#0a5a7f;}</style></defs><g transform="translate(0 -2)"><g transform="translate(0 2)"><path class="a" d="M30.683,14.25,22.814,7.484.316,26.43a4.651,4.651,0,0,0,3.139,1.21H57.911a4.616,4.616,0,0,0,3.126-1.21L38.552,7.484Z" transform="translate(1.12 16.992)"/><path class="a" d="M61.043,3.21A4.621,4.621,0,0,0,57.9,2H3.448A4.6,4.6,0,0,0,.318,3.218L30.676,28.779Z" transform="translate(1.127 -2)"/><path class="a" d="M0,2.878v37.08l21.958-18.33Z" transform="translate(0 1.041)"/><path class="a" d="M9.167,21.638l21.958,18.33V2.875Z" transform="translate(32.481 1.03)"/></g></g></svg>