<svg xmlns="http://www.w3.org/2000/svg" viewBox="0 0 137.109 133.896"><defs><style>.a{fill:#0a5a7f;}</style></defs><g transform="translate(80.325 67.001)"><path class="a" d="M311.2,275.295c-3.249,0-5.891-2.26-5.891-5.039s2.643-5.039,5.891-5.039,5.891,2.26,5.891,5.039a2.678,2.678,0,0,0,5.356,0c0-4.849-3.656-8.926-8.569-10.033v-1.376a2.678,2.678,0,0,0-5.356,0v1.376c-4.913,1.107-8.569,5.184-8.569,10.033,0,5.7,5.045,10.331,11.247,10.331,3.249,0,5.891,2.26,5.891,5.039s-2.643,5.039-5.891,5.039-5.891-2.26-5.891-5.039a2.678,2.678,0,0,0-5.356,0c0,4.849,3.656,8.926,8.569,10.033V296.8a2.678,2.678,0,0,0,5.356,0v-1.143c4.913-1.107,8.569-5.184,8.569-10.033C322.449,279.929,317.4,275.295,311.2,275.295Z" transform="translate(-299.954 -256.201)"/></g><g transform="translate(102.812 57.629)"><path class="a" d="M402.016,233.51a34.762,34.762,0,0,0-14.252-12.464,2.692,2.692,0,0,0-3.574,1.238,2.632,2.632,0,0,0,1.253,3.531,29.255,29.255,0,0,1,16.712,26.25,28.886,28.886,0,0,1-3.433,13.652,2.63,2.63,0,0,0,1.106,3.579,2.7,2.7,0,0,0,3.622-1.093,34.087,34.087,0,0,0-1.434-34.694Z" transform="translate(-383.924 -220.785)"/></g><g transform="translate(92.924 54.511)"><path class="a" d="M349.858,209h-.18a2.646,2.646,0,1,0,0,5.292h.168a2.646,2.646,0,1,0,.012-5.292Z" transform="translate(-347 -209.001)"/></g><g transform="translate(56.772 71.37)"><path class="a" d="M234.069,316.5a29.256,29.256,0,0,1-16.712-26.25,28.886,28.886,0,0,1,3.433-13.652,2.63,2.63,0,0,0-1.106-3.579,2.694,2.694,0,0,0-3.622,1.093,34.087,34.087,0,0,0,1.433,34.694,34.764,34.764,0,0,0,14.252,12.464,2.695,2.695,0,0,0,3.574-1.238A2.633,2.633,0,0,0,234.069,316.5Z" transform="translate(-212.002 -272.711)"/></g><g transform="translate(84.723 118.019)"><path class="a" d="M319.223,449h-.155a2.646,2.646,0,1,0-.024,5.292h.179a2.646,2.646,0,1,0,0-5.292Z" transform="translate(-316.378 -448.999)"/></g><g transform="translate(0 0)"><path class="a" d="M103.745,48.558a12.1,12.1,0,0,0-1.19-2.161h6.972a12.173,12.173,0,1,0,0-24.345H88.082a12,12,0,0,0,2.164-6.88A12.26,12.26,0,0,0,77.927,3H12.318A12.26,12.26,0,0,0,0,15.172,12.26,12.26,0,0,0,12.318,27.345H33.763a12.02,12.02,0,0,0,0,13.76H26.779A12.26,12.26,0,0,0,14.461,53.277,12.1,12.1,0,0,0,19.124,62.8a12.061,12.061,0,0,0,0,19.052,12.061,12.061,0,0,0,0,19.052,12.1,12.1,0,0,0-4.664,9.526,12.26,12.26,0,0,0,12.318,12.172H58.338A45.657,45.657,0,0,0,91.585,136.9c25.1,0,45.525-20.18,45.525-44.985A45.153,45.153,0,0,0,103.745,48.558Zm5.782-21.214a6.881,6.881,0,1,1,0,13.76H43.918a6.881,6.881,0,1,1,0-13.76ZM12.318,22.052a6.881,6.881,0,1,1,0-13.76H77.927a6.881,6.881,0,1,1,0,13.76ZM26.779,46.4H92.388a7.028,7.028,0,0,1,3.038.691c-1.267-.105-2.547-.162-3.841-.162A45.657,45.657,0,0,0,59.37,60.157H26.779a6.881,6.881,0,1,1,0-13.76Zm0,19.052H54.794a44.645,44.645,0,0,0-6.883,13.76H26.779a6.881,6.881,0,1,1,0-13.76Zm0,19.052h19.9a44.493,44.493,0,0,0-.165,13.76H26.779a6.881,6.881,0,1,1,0-13.76Zm0,32.812a6.881,6.881,0,1,1,0-13.76H47.61a44.563,44.563,0,0,0,6.425,13.76ZM91.585,131.6c-22.149,0-40.169-17.806-40.169-39.692s18.02-39.692,40.169-39.692,40.169,17.806,40.169,39.692S113.734,131.6,91.585,131.6Z" transform="translate(0 -3)"/></g></svg>