<svg xmlns="http://www.w3.org/2000/svg" viewBox="0 0 111.377 134.111"><defs><style>.a{fill:#0a5a7f;}</style></defs><g transform="translate(0)"><path class="a" d="M151.051,119.381,133.3,76.518a2.14,2.14,0,1,0-3.954,1.638l16.051,38.75-14.641-4.242a2.139,2.139,0,0,0-2.47,1.023l-7.353,13.352L103.707,85.459A43.154,43.154,0,1,0,60.936,68.84L40,119.381a2.14,2.14,0,0,0,2.573,2.875l17.273-5.005L68.521,133a2.141,2.141,0,0,0,1.874,1.108c.039,0,.079,0,.119,0a2.141,2.141,0,0,0,1.859-1.318L88.962,92.741A2.14,2.14,0,0,0,85.007,91.1L70.122,127.038,62.77,113.686a2.14,2.14,0,0,0-2.47-1.023l-14.64,4.242L64.035,72.543a43.007,43.007,0,0,0,31.492,13.7c1.281,0,2.549-.06,3.8-.169L118.68,132.79a2.14,2.14,0,0,0,1.859,1.318c.04,0,.079,0,.119,0A2.14,2.14,0,0,0,122.531,133l8.675-15.753,17.273,5.005a2.14,2.14,0,0,0,2.573-2.875ZM56.686,43.121a38.84,38.84,0,1,1,38.841,38.84A38.885,38.885,0,0,1,56.686,43.121Z" transform="translate(-39.838 0)"/><path class="a" d="M197.534,77.965a2.14,2.14,0,0,0-1.681-1.449l-14.4-2.417L174.7,61.151a2.14,2.14,0,0,0-3.8,0L164.16,74.1l-14.4,2.417a2.14,2.14,0,0,0-1.173,3.61l10.23,10.419-2.151,14.442a2.14,2.14,0,0,0,3.071,2.231l13.071-6.509,13.07,6.509a2.14,2.14,0,0,0,3.071-2.231L186.8,90.546l10.23-10.42A2.14,2.14,0,0,0,197.534,77.965ZM183,88.307a2.14,2.14,0,0,0-.59,1.814l1.7,11.435L173.76,96.4a2.139,2.139,0,0,0-1.908,0L161.5,101.557l1.7-11.435a2.139,2.139,0,0,0-.59-1.814l-8.1-8.25,11.4-1.914a2.14,2.14,0,0,0,1.544-1.121l5.343-10.252,5.343,10.252a2.14,2.14,0,0,0,1.544,1.121l11.4,1.914-8.1,8.25Z" transform="translate(-117.118 -42.879)"/><path class="a" d="M180.86,66.719a2.139,2.139,0,0,0-2.4,1.84,30.28,30.28,0,1,1,0-8A2.14,2.14,0,1,0,182.7,60a34.559,34.559,0,1,0,0,9.122A2.14,2.14,0,0,0,180.86,66.719Z" transform="translate(-92.753 -21.44)"/></g></svg>