<?xml version="1.0" encoding="iso-8859-1"?>
<!-- Generator: Adobe Illustrator 19.0.0, SVG Export Plug-In . SVG Version: 6.00 Build 0)  -->
<svg xmlns="http://www.w3.org/2000/svg" xmlns:xlink="http://www.w3.org/1999/xlink" version="1.1" id="Layer_1" x="0px" y="0px" viewBox="0 0 512 512" style="enable-background:new 0 0 512 512;" xml:space="preserve" width="512px" height="512px">
<g>
	<g>
		<path d="M492.938,383.717H19.062C8.535,383.717,0,392.252,0,402.779s8.535,19.062,19.062,19.062h473.875    c10.527,0,19.062-8.535,19.062-19.062S503.465,383.717,492.938,383.717z" fill="#ff6636"/>
	</g>
</g>
<g>
	<g>
		<path d="M452.977,264.879c0-66.91-54.439-121.346-121.353-121.346H180.377c-66.914,0-121.353,54.436-121.353,121.346v99.777    h393.955v-99.777H452.977z M180.377,199.774c-35.732,0-64.802,29.205-64.802,65.103c0,5.264-4.266,9.531-9.531,9.531    s-9.531-4.267-9.531-9.531c0-46.409,37.621-84.165,83.864-84.165c5.265,0,9.531,4.267,9.531,9.531S185.64,199.774,180.377,199.774    z" fill="#ff6636"/>
	</g>
</g>
<g>
	<g>
		<path d="M282.687,128.051v-26.042c0-6.396-4.702-11.85-11.098-11.85h-31.177c-6.396,0-11.098,5.454-11.098,11.85v26.043    l-0.503,0.231h54.38v-0.001L282.687,128.051z" fill="#ff6636"/>
	</g>
</g>
<g>
</g>
<g>
</g>
<g>
</g>
<g>
</g>
<g>
</g>
<g>
</g>
<g>
</g>
<g>
</g>
<g>
</g>
<g>
</g>
<g>
</g>
<g>
</g>
<g>
</g>
<g>
</g>
<g>
</g>
</svg>
