<svg xmlns="http://www.w3.org/2000/svg" viewBox="0 0 121.491 121.49"><defs><style>.a{fill:#0a5a7f;}</style></defs><g transform="translate(0 0)"><g transform="translate(0 0)"><path class="a" d="M115.272,47.993l-8.527-1.447a48.149,48.149,0,0,0-3.426-8.274l5.025-7.03a7.482,7.482,0,0,0-.812-9.669L99.969,14.01a7.45,7.45,0,0,0-5.3-2.208,7.374,7.374,0,0,0-4.34,1.4l-7.055,5.025A47.65,47.65,0,0,0,74.691,14.7L73.27,6.27A7.5,7.5,0,0,0,65.859,0H55.174A7.5,7.5,0,0,0,47.764,6.27L46.292,14.9a46.964,46.964,0,0,0-8.248,3.477L31.064,13.35a7.5,7.5,0,0,0-9.669.812l-7.588,7.563a7.513,7.513,0,0,0-.812,9.669l5.076,7.132a47.031,47.031,0,0,0-3.375,8.3L6.269,48.247A7.5,7.5,0,0,0,0,55.658V66.342a7.5,7.5,0,0,0,6.269,7.411L14.9,75.225a46.964,46.964,0,0,0,3.477,8.248l-5,6.954a7.482,7.482,0,0,0,.812,9.669l7.563,7.563a7.45,7.45,0,0,0,5.3,2.208,7.374,7.374,0,0,0,4.34-1.4l7.132-5.076a48.009,48.009,0,0,0,8.02,3.3l1.421,8.527a7.5,7.5,0,0,0,7.411,6.269h10.71a7.5,7.5,0,0,0,7.411-6.269l1.447-8.527a48.15,48.15,0,0,0,8.274-3.426l7.03,5.025a7.451,7.451,0,0,0,4.365,1.4h0a7.45,7.45,0,0,0,5.3-2.208l7.563-7.563a7.513,7.513,0,0,0,.812-9.669l-5.025-7.055a47.8,47.8,0,0,0,3.426-8.274l8.527-1.421a7.5,7.5,0,0,0,6.269-7.411V55.4A7.407,7.407,0,0,0,115.272,47.993Zm-.584,18.1a.657.657,0,0,1-.558.66l-10.659,1.777a3.407,3.407,0,0,0-2.741,2.513,40.628,40.628,0,0,1-4.416,10.634,3.431,3.431,0,0,0,.152,3.731l6.269,8.832a.691.691,0,0,1-.076.863L95.1,102.66a.645.645,0,0,1-.482.2.623.623,0,0,1-.381-.127l-8.807-6.269a3.429,3.429,0,0,0-3.731-.152,40.628,40.628,0,0,1-10.634,4.416,3.369,3.369,0,0,0-2.513,2.741l-1.8,10.659a.657.657,0,0,1-.66.558H55.4a.657.657,0,0,1-.66-.558l-1.777-10.659a3.407,3.407,0,0,0-2.513-2.741,42.187,42.187,0,0,1-10.405-4.264,3.513,3.513,0,0,0-1.726-.457,3.342,3.342,0,0,0-1.98.634l-8.883,6.319a.755.755,0,0,1-.381.127.68.68,0,0,1-.482-.2l-7.563-7.563a.688.688,0,0,1-.076-.863L25.2,85.707a3.474,3.474,0,0,0,.152-3.756,40.245,40.245,0,0,1-4.467-10.609,3.476,3.476,0,0,0-2.741-2.513L7.411,67a.657.657,0,0,1-.558-.66V55.658A.657.657,0,0,1,7.411,55l10.583-1.777a3.431,3.431,0,0,0,2.766-2.538A40.587,40.587,0,0,1,25.1,40.024a3.388,3.388,0,0,0-.178-3.705L18.6,27.436a.691.691,0,0,1,.076-.863l7.563-7.563a.645.645,0,0,1,.482-.2.623.623,0,0,1,.381.127l8.756,6.243a3.474,3.474,0,0,0,3.756.152,40.245,40.245,0,0,1,10.609-4.467,3.476,3.476,0,0,0,2.513-2.741L54.565,7.386a.657.657,0,0,1,.66-.558H65.91a.657.657,0,0,1,.66.558l1.777,10.583a3.431,3.431,0,0,0,2.538,2.766A41.194,41.194,0,0,1,81.772,25.2,3.431,3.431,0,0,0,85.5,25.05l8.756-6.294a.755.755,0,0,1,.381-.127.68.68,0,0,1,.482.2l7.563,7.563a.688.688,0,0,1,.076.863l-6.269,8.807a3.429,3.429,0,0,0-.152,3.731,40.628,40.628,0,0,1,4.416,10.634,3.369,3.369,0,0,0,2.741,2.513l10.659,1.8a.657.657,0,0,1,.558.66V66.088Z" transform="translate(0 -0.001)"/><path class="a" d="M162.317,136a26.217,26.217,0,1,0,26.217,26.217A26.233,26.233,0,0,0,162.317,136Zm0,45.581a19.364,19.364,0,1,1,19.364-19.364A19.377,19.377,0,0,1,162.317,181.582Z" transform="translate(-101.559 -101.485)"/></g></g></svg>