<svg xmlns="http://www.w3.org/2000/svg" viewBox="0 0 129.977 130.01"><defs><style>.a{fill:#0a5a7f;}</style></defs><g transform="translate(0)"><g transform="translate(0)"><path class="a" d="M359.541,184.1a7.489,7.489,0,1,1-7.489-7.489A7.489,7.489,0,0,1,359.541,184.1Z" transform="translate(-265.632 -136.147)"/><path class="a" d="M171.622,184.1a7.489,7.489,0,1,1-7.489-7.489A7.49,7.49,0,0,1,171.622,184.1Z" transform="translate(-120.77 -136.147)"/><path class="a" d="M193.348,361.673h-10.4a23.773,23.773,0,0,1-23.887-23.6,3.086,3.086,0,1,1,6.172,0A17.388,17.388,0,0,0,182.948,355.5h10.4c9.935,0,17.715-7.53,17.715-17.143a3.086,3.086,0,1,1,6.172,0C217.235,351.432,206.743,361.673,193.348,361.673Z" transform="translate(-122.632 -258.23)"/><path class="a" d="M65.062,130.01A65.005,65.005,0,1,1,130.049,65,65.071,65.071,0,0,1,65.062,130.01Zm0-123.836A58.831,58.831,0,1,0,123.877,65,58.89,58.89,0,0,0,65.062,6.174Z" transform="translate(-0.072)"/></g></g></svg>