<svg xmlns="http://www.w3.org/2000/svg" viewBox="0 0 116.749 144.553"><defs><style>.a{fill:#0a5a7f;}</style></defs><path class="a" d="M113.711,110.723,91.432,83.607l3.862-3.862a13.3,13.3,0,0,0,0-18.819s0,0,0,0L78.753,44.385a34.681,34.681,0,0,0-13.3-7.657,21.8,21.8,0,1,0-31.719,0,34.668,34.668,0,0,0-13.3,7.657L3.9,60.926a13.306,13.306,0,0,0,0,18.818l9.072,9.073a13.336,13.336,0,0,0,14.247,2.994v39.435a13.3,13.3,0,0,0,22.38,9.727,13.3,13.3,0,0,0,22.379-9.727v-4.837H106.3c4.677,0,8.222-1.823,9.723-5S116.679,114.337,113.711,110.723ZM49.6,8.47A13.328,13.328,0,1,1,36.268,21.8,13.342,13.342,0,0,1,49.6,8.47ZM25.8,82.828a4.836,4.836,0,0,1-6.841,0L9.886,73.754a4.838,4.838,0,0,1,0-6.84L26.428,50.374c3.61-3.611,11.257-6.778,16.364-6.778H56.4c5.107,0,12.753,3.167,16.364,6.778L89.3,66.915s0,0,0,0a4.835,4.835,0,0,1,0,6.84l-9.072,9.072a4.837,4.837,0,0,1-8.257-3.394v-.051a4.8,4.8,0,0,1,1.416-3.394l2.658-2.658a4.234,4.234,0,0,0,0-5.989l-5.315-5.314a4.234,4.234,0,0,0-7.229,2.994V81.65H35.686V65.021a4.235,4.235,0,0,0-7.229-3L23.142,67.34a4.234,4.234,0,0,0,0,5.989L25.8,75.988a4.8,4.8,0,0,1,1.416,3.39v.058A4.805,4.805,0,0,1,25.8,82.828Zm37.706,48.419a4.837,4.837,0,0,1-9.674,0V104.03a4.235,4.235,0,0,0-8.47,0v27.216a4.838,4.838,0,0,1-9.675,0V90.12h27.82ZM106.3,117.939H71.976V91.8a13.334,13.334,0,0,0,13.406-2.218L107.166,116.1a6.1,6.1,0,0,1,1.01,1.6A6.1,6.1,0,0,1,106.3,117.939Zm0,0" transform="translate(0)"/></svg>