<svg xmlns="http://www.w3.org/2000/svg" viewBox="0 0 132.61 120.458"><defs><style>.a{fill:#0a5a7f;}</style></defs><g transform="translate(0 0)"><g transform="translate(121.107 79.071)"><path class="a" d="M478.324,335.773,472,329.5a2.591,2.591,0,0,0-3.649,3.679l6.322,6.27a2.591,2.591,0,0,0,3.649-3.679Z" transform="translate(-467.587 -328.751)"/></g><g transform="translate(114.654 72.648)"><path class="a" d="M447.1,304.71a2.591,2.591,0,0,0-3.664,0l0,0a2.591,2.591,0,1,0,3.668,0Z" transform="translate(-442.675 -303.952)"/></g><g transform="translate(0 0)"><path class="a" d="M96.994,108.813l25.131-25.13a9.755,9.755,0,0,0-4.708-16.41,9.765,9.765,0,0,0-7.2-13.734,9.746,9.746,0,0,0-7.6-12.671A9.767,9.767,0,0,0,88.685,29.223l-.25-.269A17.287,17.287,0,0,0,75.82,23.462H55.478a2.591,2.591,0,0,0-2.591,2.591v3.4a11.769,11.769,0,0,0,.67,3.928A9.763,9.763,0,0,0,40.546,45.46a9.762,9.762,0,0,0-7.614,12.673,9.762,9.762,0,0,0-7.19,13.728,9.763,9.763,0,0,0-4.709,16.416L26.2,93.444.758,118.887a2.591,2.591,0,1,0,3.663,3.664L30.11,96.862A9.757,9.757,0,0,0,44.683,87.98c.131.005.263.009.394.009a9.754,9.754,0,0,0,9.762-9.757c0-.132,0-.263-.01-.394.13.005.26.009.39.009A9.754,9.754,0,0,0,64.98,68.09c0-.132,0-.263-.01-.394.13.005.26.009.39.009a9.757,9.757,0,0,0,7.55-15.945l17.2-17.2a4.581,4.581,0,1,1,6.478,6.478l-2.535,2.535-9.2,9.2a2.591,2.591,0,1,0,3.663,3.664l9.2-9.2a4.581,4.581,0,1,1,6.478,6.478l-2.536,2.536L94.992,62.92a2.591,2.591,0,1,0,3.663,3.664l6.664-6.664A4.581,4.581,0,1,1,111.8,66.4l-3.48,3.48-3.183,3.183a2.591,2.591,0,1,0,3.663,3.664l3.186-3.186a4.581,4.581,0,0,1,6.476,6.481l-25.131,25.13a35.094,35.094,0,0,1-23.615,10.288,2.59,2.59,0,0,0-1.741.761L44.756,139.5a2.59,2.59,0,1,0,3.67,3.657L65.5,126.019a24.079,24.079,0,0,0,14.625,3.763L93.49,143.146a2.591,2.591,0,1,0,3.663-3.664l-14.209-14.21a2.592,2.592,0,0,0-2.044-.75l-.821.067a18.91,18.91,0,0,1-10.81-2.353l1.665-1.671A40.252,40.252,0,0,0,96.994,108.813Zm-58.82-17.2a4.58,4.58,0,0,1-6.478,0l-7-7a4.581,4.581,0,1,1,6.478-6.479l7,7A4.587,4.587,0,0,1,38.174,91.613ZM48.316,81.471a4.586,4.586,0,0,1-6.479,0l-7-7-3.48-3.48a4.581,4.581,0,1,1,6.478-6.478l10.48,10.48h0a4.581,4.581,0,0,1,0,6.479ZM58.458,71.329a4.587,4.587,0,0,1-6.479,0L38.964,58.313a4.581,4.581,0,0,1,6.476-6.48l5.932,5.932,7.085,7.085h0a4.582,4.582,0,0,1,0,6.478ZM68.6,61.187a4.586,4.586,0,0,1-6.478,0L49.106,48.171l0,0L46.57,45.636a4.581,4.581,0,0,1,6.478-6.479L68.6,54.708a4.582,4.582,0,0,1,0,6.479Zm.681-13.124-7.115-7.115a11.853,11.853,0,0,0,2.481.263H64.7l7.109-.033A2.591,2.591,0,0,0,71.8,36h-.012l-7.109.033h-.032a6.58,6.58,0,0,1-6.579-6.58v-.807H75.82a12.09,12.09,0,0,1,8.822,3.841l.105.113Z" transform="translate(0 -23.462)"/></g></g></svg>