<svg xmlns="http://www.w3.org/2000/svg" viewBox="0 0 134.268 135.026"><defs><style>.a{fill:#0a5a7f;}</style></defs><g transform="translate(0 0)"><g transform="translate(0 0)"><g transform="translate(0 0)"><path class="a" d="M134.268,9.2A9.124,9.124,0,0,0,131.6,2.685,9.033,9.033,0,0,0,125.122.006a9.14,9.14,0,0,0-6.48,2.72c-.734.738-2.07,2.333-2.8,3.219a2.2,2.2,0,0,0,.284,3.08,2.167,2.167,0,0,0,3.063-.286c1.144-1.386,2.09-2.478,2.53-2.92a4.829,4.829,0,0,1,3.422-1.439h.021a4.712,4.712,0,0,1,3.366,1.4,4.767,4.767,0,0,1,1.39,3.406,4.885,4.885,0,0,1-1.431,3.442,77.783,77.783,0,0,1-7.687,5.918,13.767,13.767,0,0,0-11.9-6.883H77.049A15.948,15.948,0,0,0,65.666,16.4L2,80.434a6.882,6.882,0,0,0,0,9.694l42.658,42.9a6.8,6.8,0,0,0,9.639,0L117.963,69a16.129,16.129,0,0,0,4.715-11.447V25.516a13.926,13.926,0,0,0-.276-2.761,83.309,83.309,0,0,0,9.16-7.035A9.241,9.241,0,0,0,134.268,9.2Zm-15.94,48.346a11.77,11.77,0,0,1-3.44,8.353l-63.67,64.031a2.458,2.458,0,0,1-3.486,0L5.073,87.034a2.489,2.489,0,0,1,0-3.506L68.743,19.5a11.637,11.637,0,0,1,8.306-3.46H108.9a9.427,9.427,0,0,1,8.292,4.974c-2.569,1.711-5.446,3.531-8.5,5.32-.1-.1-.192-.209-.293-.31a9.11,9.11,0,0,0-12.921,0,9.235,9.235,0,0,0,0,12.994,9.111,9.111,0,0,0,12.921,0,9.227,9.227,0,0,0,2.37-8.839c2.655-1.554,5.2-3.143,7.556-4.679,0,.007,0,.014,0,.021V57.549ZM100,33.5a2.167,2.167,0,0,0,2.921.971q1.913-.968,3.8-2a4.792,4.792,0,1,1-8.165-3.354,4.761,4.761,0,0,1,6.147-.52q-1.847,1.01-3.74,1.97A2.192,2.192,0,0,0,100,33.5Z" transform="translate(0 -0.006)"/></g></g><g transform="translate(62.288 44.058)"><g transform="translate(0)"><path class="a" d="M241.41,168.962a2.376,2.376,0,0,0-2.543,2.163v45.681a2.577,2.577,0,0,0,5.086,0V171.125A2.376,2.376,0,0,0,241.41,168.962Z" transform="translate(-238.867 -168.962)"/></g></g><g transform="translate(39.056 59.981)"><path class="a" d="M165.923,232.792a9.465,9.465,0,1,0,2.772,6.692A9.47,9.47,0,0,0,165.923,232.792Zm-3.186,10.2a4.958,4.958,0,1,1,1.452-3.506A4.961,4.961,0,0,1,162.737,242.989Z" transform="translate(-149.775 -230.024)"/></g><g transform="translate(71.686 59.981)"><g transform="translate(0)"><path class="a" d="M291.056,232.791a9.46,9.46,0,1,0,0,13.385A9.475,9.475,0,0,0,291.056,232.791Zm-3.187,10.2a4.955,4.955,0,1,1,0-7.011A4.963,4.963,0,0,1,287.869,242.989Z" transform="translate(-274.904 -230.024)"/></g></g></g></svg>