<svg xmlns="http://www.w3.org/2000/svg" viewBox="0 0 62.996 63.432"><defs><style>.a{fill:#0a5a7f;}</style></defs><g transform="translate(-0.799)"><g transform="translate(0.799)"><path class="a" d="M45.2,22.239s-2.014-2.273-3.4-2.273H40.65V14.731a2.725,2.725,0,0,0-5.448,0v5.234H28.277V14.731a2.725,2.725,0,0,0-5.448,0v5.234H21.676c-1.384,0-3.4,2.273-3.4,2.273L3.378,35.78A3.347,3.347,0,0,0,2.343,37.9V54.63a4.939,4.939,0,0,0,5,4.869H56.135a4.938,4.938,0,0,0,5-4.869V37.9A3.359,3.359,0,0,0,60.1,35.779Zm9.128,30.633H9.151V39.6L22.926,27.083l.241-.213.241-.272,0-.005H40.064l.218.245.267.244L54.324,39.6l0,13.272Z" transform="translate(-0.24 3.932)"/><path class="a" d="M43.366,0H21.229C9.948,0,.8,8.9.8,19.887v2.656A1.374,1.374,0,0,0,2.194,23.9H14.738a3.36,3.36,0,0,0,3.406-3.314v-6.83a3.361,3.361,0,0,1,3.4-3.314h21.5a3.36,3.36,0,0,1,3.4,3.314v6.83a3.359,3.359,0,0,0,3.4,3.314H62.4A1.372,1.372,0,0,0,63.8,22.543V19.887C63.8,8.9,54.65,0,43.366,0Z" transform="translate(-0.799)"/><path class="a" d="M26.689,25.564a10.12,10.12,0,1,0,0,20.233,10.12,10.12,0,1,0,0-20.233Zm0,12.587a2.469,2.469,0,1,1,2.536-2.467A2.5,2.5,0,0,1,26.689,38.151Z" transform="translate(4.809 8.321)"/></g></g></svg>