<svg xmlns="http://www.w3.org/2000/svg" viewBox="0 0 125.646 139.455"><defs><style>.a{fill:#0a5a7f;}</style></defs><g transform="translate(0)"><g transform="translate(0)"><path class="a" d="M149.477,51.216a3.114,3.114,0,0,0-3.072-.069L126.276,61.981V52.7a3.113,3.113,0,0,0-3.113-3.113H118.1A27.9,27.9,0,1,0,73.426,21.36,21.032,21.032,0,1,0,42.3,49.584H39.453A3.113,3.113,0,0,0,36.34,52.7v14.13H28.46a3.113,3.113,0,0,0-3.113,3.113V82.182a3.113,3.113,0,0,0,3.113,3.113h7.88v14.13a3.113,3.113,0,0,0,3.113,3.113H76.175L59.3,134.9a3.113,3.113,0,1,0,5.52,2.878l16.485-31.622,16.485,31.622a3.113,3.113,0,0,0,5.52-2.878L86.441,102.538h36.723a3.113,3.113,0,0,0,3.113-3.113V90.141L146.4,100.975a3.113,3.113,0,0,0,4.588-2.741V53.888A3.112,3.112,0,0,0,149.477,51.216ZM36.34,79.068H31.573V73.052H36.34ZM100.553,6.226A21.679,21.679,0,1,1,78.874,27.9,21.7,21.7,0,0,1,100.553,6.226ZM76.783,42.5a28.114,28.114,0,0,0,6.223,7.079H72.146A21.109,21.109,0,0,0,76.783,42.5ZM57.221,19.951A14.817,14.817,0,1,1,42.4,34.767,14.834,14.834,0,0,1,57.221,19.951Zm62.83,47.241v29.12H42.566v-40.5h77.485Zm24.716,25.831-18.491-9.953V69.051L144.767,59.1Z" transform="translate(-25.347)"/></g><g transform="translate(22.418 25.312)"><path class="a" d="M117.11,92.931a9.456,9.456,0,1,0,9.456,9.456A9.466,9.466,0,0,0,117.11,92.931Zm0,13.308a3.853,3.853,0,1,1,3.853-3.853A3.857,3.857,0,0,1,117.11,106.239Z" transform="translate(-107.654 -92.931)"/></g><g transform="translate(61.627 14.325)"><path class="a" d="M265.188,52.6a13.579,13.579,0,1,0,13.579,13.58A13.595,13.595,0,0,0,265.188,52.6Zm0,20.933a7.354,7.354,0,1,1,7.354-7.354A7.362,7.362,0,0,1,265.188,73.528Z" transform="translate(-251.609 -52.595)"/></g><g transform="translate(28.362 64.861)"><path class="a" d="M166.278,238.137H132.433a2.957,2.957,0,0,0-2.957,2.957v16.484a2.957,2.957,0,0,0,2.957,2.957h33.845a2.957,2.957,0,0,0,2.957-2.957V241.094A2.957,2.957,0,0,0,166.278,238.137Zm-2.957,16.484H135.39V244.052h27.93v10.569Z" transform="translate(-129.476 -238.137)"/></g><g transform="translate(78.377 67.818)"><ellipse class="a" cx="3.113" cy="3.113" rx="3.113" ry="3.113"/></g><g transform="translate(78.377 78.075)"><ellipse class="a" cx="3.113" cy="3.113" rx="3.113" ry="3.113"/></g></g></svg>