<svg xmlns="http://www.w3.org/2000/svg" width="71.479" height="65" viewBox="0 0 71.479 65"><path d="M79.006,175a9.96,9.96,0,0,0,9.96,9.96,8.17,8.17,0,0,0,8.144-8.145,6.692,6.692,0,0,0-6.2-6.666,1.219,1.219,0,0,0-.441,0h0c-1.5,0-2.957,1.686-4.176.389a.233.233,0,0,0-.415.156,5.188,5.188,0,0,0,2.957,4.15,2.594,2.594,0,0,0,3.994-1.582,3.654,3.654,0,0,0,0-.519,4.7,4.7,0,0,1,2.438,4.124,6.225,6.225,0,0,1-6.2,6.2,8.041,8.041,0,0,1-8.015-8.015,10.375,10.375,0,0,1,10.375-10.22A12.969,12.969,0,0,1,104.4,177.8a16.574,16.574,0,0,1-15.9,16.522l-.83-.1H60.719l-15.07-.156a43.032,43.032,0,0,0,9.83-8.144c4.332-4.384,8.43-8.508,13.825-8.508a6.1,6.1,0,0,1,6.1,6.1,4.7,4.7,0,0,1-4.669,4.695,3.553,3.553,0,0,1-3.553-3.553.986.986,0,1,0-1.971,0,5.5,5.5,0,0,0,5.525,5.5,6.64,6.64,0,0,0,6.562-6.692,8.093,8.093,0,0,0-8.067-8.067c-6.225,0-10.79,4.643-15.225,9.1s-8.534,8.637-14.421,9.493h-4.1a.986.986,0,0,0-.96.986.83.83,0,0,0,0,.363,1.037,1.037,0,0,0,0,.389.96.96,0,0,0,.96.96h4.176c5.888.856,10.219,5.188,14.421,9.467s9,9.1,15.225,9.1a8.067,8.067,0,0,0,7.989-8.067,6.64,6.64,0,0,0-6.64-6.64,5.525,5.525,0,0,0-5.525,5.525.986.986,0,1,0,1.971,0,3.553,3.553,0,0,1,3.553-3.553,4.7,4.7,0,0,1,4.669,4.669,6.121,6.121,0,0,1-6.1,6.121c-5.395,0-9.493-4.15-13.825-8.534a43.031,43.031,0,0,0-9.83-8.144h15.07l19.3-.182h8.326a16.574,16.574,0,0,1,15.9,16.522A12.969,12.969,0,0,1,91.2,225.943,10.375,10.375,0,0,1,80.821,215.7a8.015,8.015,0,0,1,8.015-7.988,6.225,6.225,0,0,1,6.2,6.2,4.747,4.747,0,0,1-2.438,4.124,3.3,3.3,0,0,0,0-.519,2.594,2.594,0,0,0-3.994-1.582,5.188,5.188,0,0,0-2.957,4.124.233.233,0,0,0,.415.156c1.219-1.271,2.594.311,4.176.415H90.7a6.692,6.692,0,0,0,6.173-6.666,8.17,8.17,0,0,0-8.144-8.17,9.96,9.96,0,0,0-9.96,9.96A12.217,12.217,0,0,0,90.963,227.94a15.018,15.018,0,0,0,15.018-14.992A18.571,18.571,0,0,0,93.453,195.44a18.546,18.546,0,0,0,12.528-17.482A15.044,15.044,0,0,0,90.963,162.94,12.217,12.217,0,0,0,79.006,175Z" transform="translate(-34.502 -162.94)" fill="#d29e44"/></svg>