<svg xmlns="http://www.w3.org/2000/svg" width="143.675" height="265.117" viewBox="0 0 143.675 265.117"><g transform="translate(-96 -1010)"><g transform="translate(95.987 1010.002)"><path d="M556.463,260.043a2.508,2.508,0,0,0,1.393-1.738,5.294,5.294,0,0,0-.46-3.447,8.9,8.9,0,0,0-3.671-3.865,11.115,11.115,0,0,0-6.342-1.405,12.969,12.969,0,0,0-4.065.975,16,16,0,0,0-4.464,2.75,18.675,18.675,0,0,0-3.634,4.289,20.831,20.831,0,0,0-2.229,4.991,23.091,23.091,0,0,0-.812,4.8c0,.745-.036,1.454,0,2.108s.085,1.266.158,1.817.182,1.048.273,1.484a9.4,9.4,0,0,0,.321,1.108c.218.606.412.927.606.927s.345-.327.606-.9.551-1.423.9-2.32c.188-.472.424-.969.642-1.5s.515-1.072.8-1.623a24.585,24.585,0,0,1,2.108-3.253,17.418,17.418,0,0,1,2.617-2.7,12.97,12.97,0,0,1,2.847-1.714,9.389,9.389,0,0,1,2.423-.7,3.761,3.761,0,0,1,.479-.067,2.812,2.812,0,0,1,.43-.036,3.358,3.358,0,0,0,.363-.036,1.724,1.724,0,0,0,.309,0c.757-.048,1.363-.1,1.969-.121a11.828,11.828,0,0,1,1.993.048C553.489,260.067,555.124,260.624,556.463,260.043Z" transform="translate(-487.951 -229.727)" fill="rgba(219,183,120,0.15)"/><path d="M521.555,235.251c-4.04,9.171-5.124,22.036-5.258,23.738,0,.109-.067.188-.139.188l-3.949,4.464a1.314,1.314,0,0,1-1.963,0l-3.943-4.464c-.079,0-.139-.079-.145-.188-.133-1.7-1.042-13.58-5.258-23.738-.03-.079,8.123-14.665,9.964-17.711a.406.406,0,0,1,.733,0C513.426,220.586,521.586,235.172,521.555,235.251Z" transform="translate(-475.945 -217.31)" fill="rgba(219,183,120,0.15)"/><path d="M461.763,260.043a2.508,2.508,0,0,1-1.393-1.738,5.294,5.294,0,0,1,.46-3.447,8.9,8.9,0,0,1,3.671-3.865,11.115,11.115,0,0,1,6.342-1.405,12.967,12.967,0,0,1,4.064.975,16,16,0,0,1,4.464,2.75,18.674,18.674,0,0,1,3.634,4.289,20.831,20.831,0,0,1,2.229,4.991,22.7,22.7,0,0,1,.812,4.8c0,.745.036,1.454,0,2.108s-.085,1.266-.164,1.817-.182,1.048-.273,1.484a9.4,9.4,0,0,1-.321,1.108c-.218.606-.412.927-.576.927s-.345-.327-.606-.9-.551-1.423-.9-2.32c-.188-.472-.424-.969-.642-1.5s-.515-1.072-.8-1.623a24.583,24.583,0,0,0-2.108-3.253,17.418,17.418,0,0,0-2.689-2.7,12.829,12.829,0,0,0-2.847-1.714,9.388,9.388,0,0,0-2.423-.7,3.626,3.626,0,0,0-.479-.067,2.73,2.73,0,0,0-.424-.036,3.324,3.324,0,0,1-.369-.036,1.73,1.73,0,0,1-.309,0c-.751-.048-1.363-.1-1.969-.121a11.825,11.825,0,0,0-1.993.048C464.737,260.067,463.132,260.624,461.763,260.043Z" transform="translate(-460.25 -229.727)" fill="rgba(219,183,120,0.15)"/><path d="M515.673,299.635s-7.354,15.6,0,15.634C523.184,315.293,516.109,298.7,515.673,299.635Z" transform="translate(-480.482 -249.143)" fill="rgba(219,183,120,0.15)"/><path d="M524.4,299.672s4.912,11.963,8.65,7.911S524.1,298.957,524.4,299.672Z" transform="translate(-485.115 -249.143)" fill="rgba(219,183,120,0.15)"/><path d="M504.621,300.469s-12.763,2.108-9.649,6.663C498.152,311.766,505.384,300.336,504.621,300.469Z" transform="translate(-473.515 -249.486)" fill="rgba(219,183,120,0.15)"/></g><path d="M646.614,349.048a13.557,13.557,0,0,0-6.883-4.774,17.183,17.183,0,0,0-10.3-.1,18.668,18.668,0,0,0-3.362,1.392c.619-15.4-10.69-32.084-12.061-34.046v-.042h0v.042c-1.343,2.088-12.618,19.9-10.843,35.564a19.488,19.488,0,0,0-5.289-2.422,17.19,17.19,0,0,0-10.3.244,13.676,13.676,0,0,0-6.82,4.872,10.649,10.649,0,0,0-1.984,6.848l.084.856.049.425.1.39c.132.522.278,1.037.431,1.538a9.471,9.471,0,0,0,.606,1.343c.1.223.195.425.32.654l.424.7a10.439,10.439,0,0,0,4.405,3.675,9.465,9.465,0,0,0,4.872.814,6.264,6.264,0,0,0,2.519-.807,4.515,4.515,0,0,0,.626-.445,3.426,3.426,0,0,0,.564-.578,3.64,3.64,0,0,0,.7-1.448,3.7,3.7,0,0,0-.223-2.338,4.489,4.489,0,0,0-.828-1.176c-1.135-1.058-2-1.12-2.4-.8s-.341,1.211-.32,2.213a3.062,3.062,0,0,1-.056.466,2.512,2.512,0,0,1-.174-.313c-.077-.209-.063-.139-.091-.181a.285.285,0,0,0-.083-.056l-.292-.111a6.022,6.022,0,0,1-1.726-.981,4.656,4.656,0,0,1-1.308-1.7c0-.084-.063-.16-.09-.244s-.063-.216-.1-.32c-.063-.23-.139-.452-.216-.7a4.573,4.573,0,0,0-.084-.619l-.035-.153v-.418a3.481,3.481,0,0,1,.7-1.99,6.849,6.849,0,0,1,3.048-2.29,10.516,10.516,0,0,1,6.006-.7,15.9,15.9,0,0,1,7.092,3.417,22.834,22.834,0,0,1,5.568,6.674,17.669,17.669,0,0,1,2.332,7.857,11.222,11.222,0,0,1-.418,3.605,11.476,11.476,0,0,1-.571,1.58,12.265,12.265,0,0,1-.766,1.392,13.871,13.871,0,0,1-3.48,3.556c-1,.7-1.615,1.093-1.566,1.2s.759,0,1.984-.431a12.849,12.849,0,0,0,4.649-3.062,14.369,14.369,0,0,0,1.211-1.461,13.223,13.223,0,0,0,1.023-1.8,11.249,11.249,0,0,0,.7-1.656,9.606,9.606,0,0,0,.571,1.343,12.534,12.534,0,0,0,1.044,1.775,13.519,13.519,0,0,0,1.225,1.448,12.8,12.8,0,0,0,4.663,3c1.225.418,1.935.529,1.969.438s-.557-.522-1.566-1.218a14.038,14.038,0,0,1-3.48-3.48,13.434,13.434,0,0,1-.779-1.392,10.616,10.616,0,0,1-.578-1.559,11.037,11.037,0,0,1-.466-3.584,15.665,15.665,0,0,1,.828-4.635,40.053,40.053,0,0,1,6.66-9.521c.063-.132.111-.271.174-.411l.042-.035a15.763,15.763,0,0,1,6.96-3.48,9.874,9.874,0,0,1,3.236-.132,9.743,9.743,0,0,1,2.784.7,6.828,6.828,0,0,1,3.083,2.248,3.48,3.48,0,0,1,.7,1.97c0,.1,0,.188,0,.278v.3a6.038,6.038,0,0,0-.076.619q-.111.334-.209.7a3.126,3.126,0,0,1-.09.327l-.084.244a4.642,4.642,0,0,1-1.288,1.712,6.062,6.062,0,0,1-1.719,1.009l-.285.118s-.083.035-.083.049,0,0-.091.181a2.242,2.242,0,0,1-.167.32,3.023,3.023,0,0,1-.063-.466c0-1.009.091-1.872-.348-2.213s-1.267-.237-2.394.835a4.581,4.581,0,0,0-.807,1.19,3.627,3.627,0,0,0-.195,2.338,3.711,3.711,0,0,0,.745,1.441,3.407,3.407,0,0,0,.571.571,4.175,4.175,0,0,0,.626.431,6.327,6.327,0,0,0,2.533.78,9.619,9.619,0,0,0,4.872-.877,10.487,10.487,0,0,0,4.357-3.737l.411-.7c.125-.23.209-.432.313-.654.2-.445.4-.891.592-1.357a11.311,11.311,0,0,0,.4-1.538l.1-.4.042-.425.07-.856A10.7,10.7,0,0,0,646.614,349.048Zm-32.662-.32c-9.883-4.934-.334-20.378-.334-20.378C622.075,343.9,613.953,348.728,613.953,348.728Z" transform="translate(-412.463 765.05)" fill="rgba(219,183,120,0.15)"/><g transform="translate(118 1146.03)"><path d="M511.708,382s-29,5.2,0,41.752C511.708,423.775,541.27,389.558,511.708,382Zm.126,8.374a1.373,1.373,0,1,0,0,.022Zm-.037,24.351s-8.716-2.383,0-19.057c0,.022,8.887,15.642,0,19.08Z" transform="translate(-498.82 -382.03)" fill="rgba(219,183,120,0.15)"/><path d="M518.856,440.6a3.838,3.838,0,0,1-3.838,3.838h0a3.846,3.846,0,0,1-3.838-3.838h0a3.838,3.838,0,0,1,3.838-3.838h0a3.831,3.831,0,0,1,3.838,3.838Z" transform="translate(-502.004 -396.136)" fill="rgba(219,183,120,0.15)"/><path d="M522.992,457.311s-10.119-13.17-10.171-13.051c-.052-.119-10.171,13.051-10.171,13.051,3.319,1.544,10.156,13.133,10.171,13.111C512.932,470.607,519.673,458.855,522.992,457.311Z" transform="translate(-499.807 -398.068)" fill="rgba(219,183,120,0.15)"/></g><g transform="translate(163 1218)"><path d="M578.179,475.231a5.99,5.99,0,1,1-5.981-5.981,5.99,5.99,0,0,1,5.981,5.981Z" transform="translate(-533.622 -446.299)" fill="rgba(219,183,120,0.15)"/><path d="M577.5,459.095a5.232,5.232,0,0,1-10.417,0c0-2.248,3.142-16.285,4.991-16.285S577.5,456.864,577.5,459.095Z" transform="translate(-533.738 -442.81)" fill="rgba(219,183,120,0.15)"/><path d="M575.682,495a5.053,5.053,0,0,1-1.259-4.019,11.859,11.859,0,0,1,1.5-3.967c2.656-4.931,5.981-9.479,8.533-14.47,2.231-4.34,3.924-8.238,8.611-10.6a9.349,9.349,0,0,1,2.222-.755,11.576,11.576,0,0,1,1.97-.217,14.415,14.415,0,0,1,3.472.3,12.689,12.689,0,0,1,3.03,1.016,7.257,7.257,0,0,1,2.448,1.832,3.768,3.768,0,0,1,.946,2.674,3.4,3.4,0,0,1-.651,1.78,2.914,2.914,0,0,1-.773.755c-.208.139-.347.182-.425.13a6.417,6.417,0,0,1,0-1.328,2.17,2.17,0,0,0-.226-1.1,1.441,1.441,0,0,0-.868-.668,7.64,7.64,0,0,0-3.75-.174,11.014,11.014,0,0,0-2.231.608,5.662,5.662,0,0,0-.946.486,2.064,2.064,0,0,0-.564.512,11.284,11.284,0,0,0-2.023,3.863c-.278.8-.521,1.658-.747,2.543s-.434,1.78-.651,2.7-.443,1.832-.712,2.778-.556,1.788-.816,2.6-.582,1.563-.868,2.248a17.912,17.912,0,0,1-.868,1.806,22.3,22.3,0,0,1-1.84,2.934c-.33.46-.668.868-1.007,1.319a11.785,11.785,0,0,1-1.1,1.163c-1.736,1.736-4.861,4.436-7.457,4.514A3.785,3.785,0,0,1,575.682,495Z" transform="translate(-534.702 -445.205)" fill="rgba(219,183,120,0.15)"/><path d="M611.762,498.278s-.564-.061-1.536-.217l-1.736-.252c-.686-.061-1.441-.2-2.266-.243a16.7,16.7,0,0,0-5.26.269l-.651.174-.339.078-.339.13-.694.243c-.226.087-.443.191-.668.286a4.584,4.584,0,0,0-.66.313l-.66.339a15.678,15.678,0,0,0-1.337.868c-.911.608-1.832,1.3-2.786,2.014l-.738.538-.807.564-.8.538-.868.477a16.614,16.614,0,0,1-6.4,2.066,14.974,14.974,0,0,1-4.392-.286c-1-.243-1.528-.408-1.528-.408s.538-.217,1.458-.547a25.308,25.308,0,0,0,3.576-1.693,24.623,24.623,0,0,0,4.288-3.342l.556-.53.564-.582,1.233-1.233a21.394,21.394,0,0,1,3.22-2.674,16.092,16.092,0,0,1,2-1.146c.347-.156.712-.3,1.068-.434a7.824,7.824,0,0,1,1.076-.356c.356-.087.72-.191,1.076-.269l1.059-.156.512-.069h1.6a14.115,14.115,0,0,1,6.571,1.97,23.051,23.051,0,0,1,2.066,1.372c.564.451,1.042.868,1.415,1.172C611.354,497.879,611.762,498.278,611.762,498.278Z" transform="translate(-535.087 -449.398)" fill="rgba(219,183,120,0.15)"/><path d="M564.985,495a5.017,5.017,0,0,0,1.259-4.019,11.675,11.675,0,0,0-1.5-3.967c-2.656-4.931-5.981-9.479-8.524-14.47-2.24-4.34-3.932-8.238-8.62-10.6a9.345,9.345,0,0,0-2.222-.755,11.579,11.579,0,0,0-1.971-.217,14.416,14.416,0,0,0-3.472.3,12.619,12.619,0,0,0-3.021,1.016,7.2,7.2,0,0,0-2.457,1.832,3.8,3.8,0,0,0-.946,2.674,3.559,3.559,0,0,0,.651,1.78,3.047,3.047,0,0,0,.773.755c.208.139.356.182.434.13a6.417,6.417,0,0,0,0-1.328,2.37,2.37,0,0,1,.226-1.1,1.466,1.466,0,0,1,.868-.668,7.638,7.638,0,0,1,3.75-.174,11.01,11.01,0,0,1,2.231.608,5.347,5.347,0,0,1,.946.486,2.065,2.065,0,0,1,.564.512,11.386,11.386,0,0,1,2.031,3.863c.269.8.512,1.658.738,2.543s.443,1.78.66,2.7.434,1.832.7,2.778.556,1.788.868,2.6.573,1.563.868,2.248a16.146,16.146,0,0,0,.868,1.806,21.377,21.377,0,0,0,1.832,2.934c.33.46.668.868,1.016,1.319a11.8,11.8,0,0,0,1.1,1.163c1.736,1.736,4.852,4.436,7.448,4.514a3.785,3.785,0,0,0,2.9-1.267Z" transform="translate(-529.308 -445.205)" fill="rgba(219,183,120,0.15)"/><path d="M528.67,498.278s.564-.061,1.545-.217l1.736-.252c.686-.061,1.441-.2,2.266-.243a16.7,16.7,0,0,1,5.26.269l.66.174.33.078.339.13.694.243c.226.087.443.191.668.286a5.211,5.211,0,0,1,.668.313l.66.339a14.367,14.367,0,0,1,1.328.868c.911.608,1.832,1.3,2.8,2.014l.729.538.807.564.8.538.868.477a16.67,16.67,0,0,0,6.4,2.066,15.037,15.037,0,0,0,4.4-.286c1-.243,1.519-.408,1.519-.408s-.538-.217-1.458-.547a25.289,25.289,0,0,1-3.576-1.693,24.3,24.3,0,0,1-4.28-3.342l-.564-.53-.556-.582-1.233-1.233a21.5,21.5,0,0,0-3.229-2.674,16.088,16.088,0,0,0-2-1.146c-.347-.156-.712-.3-1.059-.434a8.338,8.338,0,0,0-1.085-.356c-.356-.087-.712-.191-1.068-.269l-1.059-.156-.521-.069h-1.589a14.045,14.045,0,0,0-6.571,1.97,22.088,22.088,0,0,0-2.075,1.371c-.564.451-1.042.868-1.415,1.172C529.061,497.879,528.67,498.278,528.67,498.278Z" transform="translate(-528.67 -449.398)" fill="rgba(219,183,120,0.15)"/></g></g></svg>