<svg xmlns="http://www.w3.org/2000/svg" width="288" height="1140" viewBox="0 0 288 1140">
  <g id="Group_Min2" transform="translate(-193 -6827)">
    <g id="Group_25" data-name="Group 25" transform="translate(216 6827)">
      <g id="Шаг" transform="translate(34.322)">
        <g id="Круг-пункт">
          <g id="Ellipse_26" data-name="Ellipse 26" fill="none" stroke="#600d0d" stroke-width="2">
            <circle cx="61.387" cy="61.387" r="61.387" stroke="none"/>
            <circle cx="61.387" cy="61.387" r="60.387" fill="none"/>
          </g>
          <circle id="Ellipse_27" data-name="Ellipse 27" cx="46.752" cy="46.752" r="46.752" transform="translate(14.635 14.635)" fill="#fff"/>
          <g id="Ellipse_28" data-name="Ellipse 28" transform="translate(18.701 18.701)" fill="none" stroke="#dbb778" stroke-width="2">
            <circle cx="42.687" cy="42.687" r="42.687" stroke="none"/>
            <circle cx="42.687" cy="42.687" r="41.687" fill="none"/>
          </g>
        </g>
      </g>
      <text id="_1._Оставить_имя_и_свой_номер_телефона_в_форме_обратной_связи" data-name="1. Оставить имя и свой
номер телефона в форме обратной связи" transform="translate(-23 135)" fill="#260c0c" font-size="20" font-family="Roboto-Bold, Roboto" font-weight="700"><tspan x="9.591" y="19">1.</tspan><tspan y="19" xml:space="preserve" font-family="Roboto-Regular, Roboto" font-weight="400"> Оставить имя и свой</tspan><tspan font-family="Roboto-Regular, Roboto" font-weight="400"><tspan x="33.521" y="43">номер телефона в </tspan><tspan x="11.319" y="67">форме обратной связи</tspan></tspan></text>
      <g id="talk" transform="translate(73.081 39.171)">
        <path id="Path_661" data-name="Path 661" d="M20.938,20.244H24.3a3.1,3.1,0,0,0,3.094-3.094V3.094A3.1,3.1,0,0,0,24.3,0H3.169A3.1,3.1,0,0,0,.075,3.094V17.15a3.1,3.1,0,0,0,3.094,3.094H11.49l5.787,5.032a2.192,2.192,0,0,0,1.443.546,2.224,2.224,0,0,0,.924-.2,2.187,2.187,0,0,0,1.294-2.011Zm-2.652-1.326v3.72l-5.43-4.721a1.326,1.326,0,0,0-.87-.325H3.169a.443.443,0,0,1-.442-.442V3.094a.443.443,0,0,1,.442-.442H24.3a.443.443,0,0,1,.442.442V17.15a.443.443,0,0,1-.442.442H19.612a1.326,1.326,0,0,0-1.326,1.326Z" transform="translate(-0.075)" fill="#600d0d"/>
        <path id="Path_662" data-name="Path 662" d="M61.4,72.652H68.65a1.326,1.326,0,1,0,0-2.652H61.4a1.326,1.326,0,0,0,0,2.652Z" transform="translate(-54.771 -63.812)" fill="#600d0d"/>
        <path id="Path_663" data-name="Path 663" d="M76.783,131.326A1.326,1.326,0,0,0,75.457,130H61.4a1.326,1.326,0,1,0,0,2.652H75.457A1.326,1.326,0,0,0,76.783,131.326Z" transform="translate(-54.771 -118.508)" fill="#600d0d"/>
        <path id="Path_664" data-name="Path 664" d="M256.492,246.3l-.687-5.809a9.069,9.069,0,0,0-6.618-7.68,6.484,6.484,0,1,0-9.986-.037,9.069,9.069,0,0,0-6.756,7.717l-.687,5.809a1.326,1.326,0,0,0,1.317,1.482h22.1a1.326,1.326,0,0,0,1.317-1.482ZM244.209,224.83a3.832,3.832,0,1,1-3.832,3.832A3.836,3.836,0,0,1,244.209,224.83Zm-9.643,20.3.512-4.328a6.413,6.413,0,0,1,6.367-5.658H246.8a6.413,6.413,0,0,1,6.367,5.658l.512,4.327Z" transform="translate(-211.268 -202.537)" fill="#600d0d"/>
      </g>
    </g>
    <g id="Group_24" data-name="Group 24" transform="translate(179.459 7060)">
      <text id="_2._Дождаться_звонка_менеджера_и_обсудить_детали" data-name="2. Дождаться звонка менеджера и обсудить детали" transform="translate(63.541 135)" fill="#260c0c" font-size="20" font-family="Roboto-Bold, Roboto" font-weight="700"><tspan x="19.176" y="19">2.</tspan><tspan y="19" xml:space="preserve" font-family="Roboto-Regular, Roboto" font-weight="400"> Дождаться звонка </tspan><tspan x="11.671" y="43" font-family="Roboto-Regular, Roboto" font-weight="400">менеджера и обсудить </tspan><tspan x="86.002" y="67" font-family="Roboto-Regular, Roboto" font-weight="400">детали</tspan></text>
      <g id="Group_33" data-name="Group 33" transform="translate(50)">
        <g id="Шаг-2" data-name="Шаг" transform="translate(70.917)">
          <g id="Круг-пункт-2" data-name="Круг-пункт">
            <g id="Ellipse_26-2" data-name="Ellipse 26" fill="none" stroke="#600d0d" stroke-width="2">
              <circle cx="61.379" cy="61.379" r="61.379" stroke="none"/>
              <circle cx="61.379" cy="61.379" r="60.379" fill="none"/>
            </g>
            <circle id="Ellipse_27-2" data-name="Ellipse 27" cx="46.745" cy="46.745" r="46.745" transform="translate(14.633 14.633)" fill="#fff"/>
            <g id="Ellipse_28-2" data-name="Ellipse 28" transform="translate(18.698 18.698)" fill="none" stroke="#dbb778" stroke-width="2">
              <circle cx="42.681" cy="42.681" r="42.681" stroke="none"/>
              <circle cx="42.681" cy="42.681" r="41.681" fill="none"/>
            </g>
          </g>
        </g>
        <g id="call-center" transform="translate(110.04 38.616)">
          <path id="Path_665" data-name="Path 665" d="M43.514,35.369a13.726,13.726,0,0,0-4.7-4.971l-7.452-4.675a11.082,11.082,0,0,0,.788-1.167h.537A4.864,4.864,0,0,0,37.54,19.7V13.6a4.866,4.866,0,0,0-4.115-4.8,11.042,11.042,0,0,0-21.854,2.24v7.95a10.985,10.985,0,0,0,2.3,6.732L6.415,30.4A13.691,13.691,0,0,0,0,42v1.9a1.325,1.325,0,0,0,1.325,1.325H43.9A1.325,1.325,0,0,0,45.225,43.9V42A13.725,13.725,0,0,0,43.514,35.369ZM31,11.306h-1.83a5.767,5.767,0,0,1-4.158-1.782L23.572,8.008a1.325,1.325,0,0,0-.957-.411h0A1.325,1.325,0,0,0,21.657,8L20.209,9.513a5.769,5.769,0,0,1-4.143,1.767H14.221v-.238a8.391,8.391,0,0,1,16.783,0ZM16.066,13.929a8.432,8.432,0,0,0,6.055-2.582l.488-.508.489.513a8.43,8.43,0,0,0,6.077,2.6H31v5.035a8.351,8.351,0,0,1-.522,2.915H24.467a1.325,1.325,0,0,0,0,2.65h4.42a8.387,8.387,0,0,1-14.666-5.565V13.929Zm6.546,16.1a10.975,10.975,0,0,0,5.708-1.593,5.741,5.741,0,0,1-11.416,0A10.975,10.975,0,0,0,22.613,30.032ZM34.89,13.6V19.7a2.212,2.212,0,0,1-1.6,2.124,11.017,11.017,0,0,0,.368-2.83V11.62A2.211,2.211,0,0,1,34.89,13.6Zm7.685,28.972H2.65V42a10.98,10.98,0,0,1,5.174-9.353l6.434-4.037a8.391,8.391,0,0,0,16.709,0L37.4,32.643A10.981,10.981,0,0,1,42.575,42Z" transform="translate(0)" fill="#600d0d"/>
          <path id="Path_666" data-name="Path 666" d="M330.8,422h-8.257a1.548,1.548,0,1,0,0,3.1H330.8a1.548,1.548,0,1,0,0-3.1Z" transform="translate(-293.953 -386.064)" fill="#600d0d"/>
        </g>
      </g>
    </g>
    <g id="Group_26" data-name="Group 26" transform="translate(180.172 7293)">
      <text id="_3._Получить_демоверсию_и_инструкцию_по_установке" data-name="3. Получить демоверсию и инструкцию по установке" transform="translate(12.828 133)" fill="#260c0c" font-size="20" font-family="Roboto-Bold, Roboto" font-weight="700"><tspan x="2.455" y="19">3.</tspan><tspan y="19" xml:space="preserve" font-family="Roboto-Regular, Roboto" font-weight="400"> Получить демоверсию </tspan><tspan x="41.684" y="43" font-family="Roboto-Regular, Roboto" font-weight="400">и инструкцию по </tspan><tspan x="73.129" y="67" font-family="Roboto-Regular, Roboto" font-weight="400">установке</tspan></text>
      <g id="Group_34" data-name="Group 34">
        <g id="Шаг-3" data-name="Шаг" transform="translate(70.5)">
          <g id="Круг-пункт-3" data-name="Круг-пункт">
            <g id="Ellipse_26-3" data-name="Ellipse 26" fill="none" stroke="#600d0d" stroke-width="2">
              <circle cx="61.456" cy="61.456" r="61.456" stroke="none"/>
              <circle cx="61.456" cy="61.456" r="60.456" fill="none"/>
            </g>
            <circle id="Ellipse_27-3" data-name="Ellipse 27" cx="46.804" cy="46.804" r="46.804" transform="translate(14.652 14.652)" fill="#fff"/>
            <g id="Ellipse_28-3" data-name="Ellipse 28" transform="translate(18.722 18.722)" fill="none" stroke="#dbb778" stroke-width="2">
              <circle cx="42.734" cy="42.734" r="42.734" stroke="none"/>
              <circle cx="42.734" cy="42.734" r="41.734" fill="none"/>
            </g>
          </g>
        </g>
        <path id="email" d="M43.663,16.222,25.456,1.112a4.812,4.812,0,0,0-6.142,0L1.106,16.222A3.052,3.052,0,0,0,0,18.577V39.964a4.815,4.815,0,0,0,4.809,4.809H39.96a4.815,4.815,0,0,0,4.809-4.809V18.577A3.052,3.052,0,0,0,43.663,16.222ZM42.146,39.964a2.174,2.174,0,0,1-.134.754l-13.34-9.142L42.146,20.395Zm-39.523,0V20.395L16.1,31.576,2.757,40.718a2.175,2.175,0,0,1-.134-.755ZM36.812,21.412,23.743,32.258a2.129,2.129,0,0,1-2.718,0L7.957,21.412V19.679a.438.438,0,0,1,.437-.437H36.375a.438.438,0,0,1,.437.437ZM18.2,33.318l1.154.958a4.753,4.753,0,0,0,6.068,0l1.154-.958L39.46,42.15H5.309ZM20.989,3.131a2.187,2.187,0,0,1,2.792,0l17.53,14.548L39.406,19.26a3.065,3.065,0,0,0-3.031-2.641H8.394A3.065,3.065,0,0,0,5.363,19.26L3.458,17.679Z" transform="translate(109.838 36.625)" fill="#600d0d"/>
      </g>
    </g>
    <g id="Group_27" data-name="Group 27" transform="translate(-325 780)">
      <text id="_4._Установить_в_своем_зале_систему_и_получить_30_000_кредитов" data-name="4. Установить в своем зале систему и получить 
30 000 кредитов" transform="translate(568 6881)" fill="#260c0c" font-size="20" font-family="Roboto-Bold, Roboto" font-weight="700"><tspan x="13.307" y="19">4.</tspan><tspan y="19" xml:space="preserve" font-family="Roboto-Regular, Roboto" font-weight="400"> Установить в своем </tspan><tspan x="2.687" y="43" font-family="Roboto-Regular, Roboto" font-weight="400">зале систему и получить </tspan><tspan font-family="Roboto-Regular, Roboto" font-weight="400"><tspan x="41.866" y="67">30 000 кредитов</tspan></tspan></text>
      <g id="Group_35" data-name="Group 35" transform="translate(12 -28)">
        <g id="Шаг-4" data-name="Шаг" transform="translate(613.5 6773)">
          <g id="Круг-пункт-4" data-name="Круг-пункт" transform="translate(0 0)">
            <g id="Ellipse_26-4" data-name="Ellipse 26" fill="none" stroke="#600d0d" stroke-width="2">
              <circle cx="61.947" cy="61.947" r="61.947" stroke="none"/>
              <circle cx="61.947" cy="61.947" r="60.947" fill="none"/>
            </g>
            <circle id="Ellipse_27-4" data-name="Ellipse 27" cx="47.178" cy="47.178" r="47.178" transform="translate(14.769 14.769)" fill="#fff"/>
            <g id="Ellipse_28-4" data-name="Ellipse 28" transform="translate(18.871 18.871)" fill="none" stroke="#dbb778" stroke-width="2">
              <circle cx="43.075" cy="43.075" r="43.075" stroke="none"/>
              <circle cx="43.075" cy="43.075" r="42.075" fill="none"/>
            </g>
          </g>
        </g>
        <g id="tv" transform="translate(653.09 6814.571)">
          <path id="Path_667" data-name="Path 667" d="M42.042,25.174H3.085A3.088,3.088,0,0,0,0,28.259V52.937a3.088,3.088,0,0,0,3.085,3.085H16.107v3.534L5.382,63.292a1.322,1.322,0,0,0,.87,2.5l14.427-5.025a5.751,5.751,0,0,1,3.769,0l14.427,5.025a1.322,1.322,0,0,0,.87-2.5L29.019,59.556V56.022H42.042a3.088,3.088,0,0,0,3.085-3.085V28.259a3.088,3.088,0,0,0-3.085-3.085ZM26.375,58.635l-1.058-.368a8.406,8.406,0,0,0-5.509,0l-1.058.368V56.022h7.624Zm16.107-5.7a.441.441,0,0,1-.441.441H3.085a.441.441,0,0,1-.441-.441V28.259a.441.441,0,0,1,.441-.441H42.042a.441.441,0,0,1,.441.441Z" transform="translate(0 -25.174)" fill="#600d0d"/>
          <path id="Path_668" data-name="Path 668" d="M57.743,84.149l2.395-2.395a1.022,1.022,0,0,0-1.445-1.445L56.3,82.7a1.022,1.022,0,1,0,1.445,1.445Z" transform="translate(-52.186 -76.276)" fill="#600d0d"/>
          <path id="Path_669" data-name="Path 669" d="M74.217,91.973l-6.254,6.254a1.021,1.021,0,1,0,1.445,1.445l6.254-6.254a1.021,1.021,0,0,0-1.445-1.445Z" transform="translate(-63.056 -87.145)" fill="#600d0d"/>
        </g>
      </g>
    </g>
    <g id="Group_28" data-name="Group 28" transform="translate(-364 1029)">
      <text id="_5._Начать_зарабатывать_по_установленному_проценту_отдачи_зала" data-name="5. Начать зарабатывать по установленному проценту отдачи зала" transform="translate(557 6865)" fill="#260c0c" font-size="20" font-family="Roboto-Bold, Roboto" font-weight="700"><tspan x="5.475" y="19">5.</tspan><tspan y="19" xml:space="preserve" font-family="Roboto-Regular, Roboto" font-weight="400"> Начать зарабатывать </tspan><tspan x="27.335" y="43" font-family="Roboto-Regular, Roboto" font-weight="400">по установленному </tspan><tspan x="15.89" y="67" font-family="Roboto-Regular, Roboto" font-weight="400">проценту отдачи зала</tspan></text>
      <g id="Group_36" data-name="Group 36" transform="translate(0 -43)">
        <g id="Шаг-5" data-name="Шаг" transform="translate(613.5 6773)">
          <g id="Круг-пункт-5" data-name="Круг-пункт" transform="translate(0 0)">
            <g id="Ellipse_26-5" data-name="Ellipse 26" fill="none" stroke="#600d0d" stroke-width="2">
              <circle cx="61.436" cy="61.436" r="61.436" stroke="none"/>
              <circle cx="61.436" cy="61.436" r="60.436" fill="none"/>
            </g>
            <circle id="Ellipse_27-5" data-name="Ellipse 27" cx="46.789" cy="46.789" r="46.789" transform="translate(14.647 14.647)" fill="#fff"/>
            <g id="Ellipse_28-5" data-name="Ellipse 28" transform="translate(18.715 18.715)" fill="none" stroke="#dbb778" stroke-width="2">
              <circle cx="42.72" cy="42.72" r="42.72" stroke="none"/>
              <circle cx="42.72" cy="42.72" r="41.72" fill="none"/>
            </g>
          </g>
        </g>
        <g id="like" transform="translate(652.358 6811.455)">
          <path id="Path_670" data-name="Path 670" d="M41.555,0H5.225A4.37,4.37,0,0,0,.86,4.365V35.072a4.37,4.37,0,0,0,4.365,4.365h6.731V43a2.21,2.21,0,0,0,3.334,1.9l9.234-5.467h17.03a4.37,4.37,0,0,0,4.365-4.365V4.365A4.37,4.37,0,0,0,41.555,0ZM43.27,35.072a1.717,1.717,0,0,1-1.715,1.715H24.162a1.325,1.325,0,0,0-.675.185l-8.88,5.257V38.113a1.325,1.325,0,0,0-1.325-1.325H5.225a1.717,1.717,0,0,1-1.715-1.715V4.365A1.717,1.717,0,0,1,5.225,2.651H41.555A1.717,1.717,0,0,1,43.27,4.365Z" transform="translate(-0.86 0)" fill="#600d0d"/>
          <path id="Path_671" data-name="Path 671" d="M131.955,77.455h-3.789V73.832a4.865,4.865,0,0,0-4.859-4.859h-1.414a2.211,2.211,0,0,0-2.209,2.209v4.464a.442.442,0,0,1-.061.225l-2.359,3.988a.444.444,0,0,1-.38.217h-2.526a3.1,3.1,0,0,0-3.092,3.092v6.361a3.1,3.1,0,0,0,3.092,3.092h2.951a.445.445,0,0,1,.263.087l2.6,1.925a3.113,3.113,0,0,0,1.842.609h8.533a4.851,4.851,0,0,0,4.787-4.021l1.413-8.069a4.859,4.859,0,0,0-4.787-5.7Zm-1.413,15.137h-8.533a.445.445,0,0,1-.263-.087l-2.6-1.925a3.113,3.113,0,0,0-1.842-.609h-2.951a.442.442,0,0,1-.442-.442V83.168a.442.442,0,0,1,.442-.442h2.526a3.105,3.105,0,0,0,2.662-1.518l2.359-3.988a3.094,3.094,0,0,0,.431-1.574V71.624h.972a2.211,2.211,0,0,1,2.209,2.209V78.78a1.325,1.325,0,0,0,1.325,1.325h5.115a2.209,2.209,0,0,1,2.176,2.59l-1.413,8.069A2.2,2.2,0,0,1,130.543,92.592Z" transform="translate(-101.51 -62.879)" fill="#600d0d"/>
        </g>
      </g>
    </g>
    <path id="Path_672" data-name="Path 672" d="M4031.966,6905.058h84.2s11.32,2.423,11.32,14.484v203.265s1.109,16.083-12.568,16.083c-5.581,0-.657.023-32.438,0" transform="translate(-3660 -17)" fill="none" stroke="#600d0d" stroke-width="2"/>
    <path id="Path_673" data-name="Path 673" d="M4127.508,6905.058h-84.2s-11.32,2.423-11.32,14.484v203.265s-1.109,16.083,12.568,16.083c5.581,0,.657.023,32.438,0" transform="translate(-3826 217)" fill="none" stroke="#600d0d" stroke-width="2"/>
    <path id="Path_675" data-name="Path 675" d="M4127.508,6905.058h-84.2s-11.32,2.423-11.32,14.484v203.265s-1.109,16.083,12.568,16.083c5.581,0,.657.023,32.438,0" transform="translate(-3826 681)" fill="none" stroke="#600d0d" stroke-width="2"/>
    <path id="Path_674" data-name="Path 674" d="M4031.966,6905.058h84.2s11.32,2.423,11.32,14.484v203.265s1.109,16.083-12.568,16.083c-5.581,0-.657.023-32.438,0" transform="translate(-3659 448)" fill="none" stroke="#600d0d" stroke-width="2"/>
  </g>
</svg>
