<svg xmlns="http://www.w3.org/2000/svg" width="155.18" height="44" viewBox="0 0 155.18 44"><g transform="translate(0 -0.005)"><path d="M746.7,390.86c-7.4,0,12.847,0-8.493-.19l-36.018-.167a10.73,10.73,0,0,0,5.162-3.592,7.8,7.8,0,0,0-.4-9.968,5.828,5.828,0,0,0-8.184,0,4.758,4.758,0,0,0-.143,6.59v.143h0c.642.666,1.832.952,1.57,2,0,.143,0,.285.238.19a3.5,3.5,0,0,0,1.237-3.164,1.784,1.784,0,0,0-2.379-1.641l-.309.167a3.117,3.117,0,0,1,.761-3.14,4.116,4.116,0,0,1,5.8,0,6.09,6.09,0,0,1,.238,7.779c-1.951,2.617-5.115,3.378-8.469,4.187a20.6,20.6,0,0,0-7.137,2.617h0a15.8,15.8,0,0,0-7.708,13.56,12.823,12.823,0,0,0,12.823,12.823,10.42,10.42,0,0,0,10.42-10.42,8.516,8.516,0,0,0-8.493-8.517,6.994,6.994,0,0,0-6.97,6.994,5.733,5.733,0,0,0,5.281,5.686h.381c1.285,0,2.522-1.451,3.568-.357a.19.19,0,0,0,.357-.119,4.5,4.5,0,0,0-2.545-3.545,2.379,2.379,0,0,0-3.4,1.356,2.726,2.726,0,0,0,0,.452,4.068,4.068,0,0,1-2.07-3.521,5.305,5.305,0,0,1,5.305-5.305,6.852,6.852,0,0,1,6.828,6.828,8.755,8.755,0,0,1-8.755,8.755A11.181,11.181,0,0,1,684.04,406.18a14.274,14.274,0,0,1,14.274-14.155l36.232.143a35.374,35.374,0,0,0-8.683,7.137c-3.711,3.735-7.137,7.28-11.895,7.28a5.234,5.234,0,0,1-5.21-5.234,4,4,0,0,1,4-4A3.045,3.045,0,0,1,715.8,400.4a.833.833,0,1,0,1.665,0,4.758,4.758,0,0,0-4.758-4.758,5.686,5.686,0,0,0-5.686,5.662,6.9,6.9,0,0,0,6.9,6.9c5.305,0,9.231-3.949,13.013-7.779s8.16-8.231,14.107-8.231h.143c20.293,0-1.784.167,5.258.167a.763.763,0,0,0,.262-1.5Z" transform="translate(-605.059 -375.26)" fill="#dbb778"/><path d="M714.581,392.7h0a20.483,20.483,0,0,0-7.137-2.617c-3.378-.809-6.542-1.57-8.493-4.187a6.09,6.09,0,0,1,.262-7.779,4.187,4.187,0,0,1,5.781,0,3.115,3.115,0,0,1,.928,2.212,3.046,3.046,0,0,1-.167.928l-.309-.167a1.808,1.808,0,0,0-2.379,1.641A3.5,3.5,0,0,0,704.3,385.9c.119,0,.262,0,.238-.19-.238-1.047.928-1.332,1.594-2h0v-.119a4.758,4.758,0,0,0-.143-6.613,5.781,5.781,0,0,0-8.16,0,7.779,7.779,0,0,0-.4,9.968,10.493,10.493,0,0,0,5.162,3.592l-36.327.167c-21.554,0-1.475.19-8.9.19a.833.833,0,0,0,0,1.665c7.137,0-14.631,0,5.971-.19h.143c5.947,0,10.111,4.187,14.107,8.231s7.708,7.779,13.013,7.779a6.9,6.9,0,0,0,6.9-6.9,5.686,5.686,0,0,0-5.685-5.662,4.758,4.758,0,0,0-4.758,4.758.833.833,0,0,0,1.665,0,3.045,3.045,0,0,1,3.045-3.045,4,4,0,0,1,4,4,5.234,5.234,0,0,1-5.21,5.234c-4.615,0-8.112-3.545-11.895-7.28a35.805,35.805,0,0,0-8.683-7.137l36.232-.143a14.274,14.274,0,0,1,14.155,14.155A11.181,11.181,0,0,1,709.2,417.515a8.754,8.754,0,0,1-8.755-8.755,6.851,6.851,0,0,1,6.828-6.828,5.305,5.305,0,0,1,5.305,5.305,4.069,4.069,0,0,1-2.07,3.521,1.378,1.378,0,0,0,0-.452,2.379,2.379,0,0,0-3.378-1.356,4.448,4.448,0,0,0-2.546,3.545.2.2,0,0,0,.357.119c1.047-1.094,2.379.262,3.568.357h.5a5.733,5.733,0,0,0,5.281-5.686,6.994,6.994,0,0,0-6.97-6.994,8.541,8.541,0,0,0-8.517,8.517,10.444,10.444,0,0,0,10.444,10.42A12.823,12.823,0,0,0,722.074,406.4a15.82,15.82,0,0,0-7.494-13.7Z" transform="translate(-644.02 -375.223)" fill="#dbb778"/><path d="M686,380.192c0,3.14-1.974,8.445-1.974,11.253,0-2.879-1.951-8.112-1.951-11.253C682.07,375.506,686,375.53,686,380.192Z" transform="translate(-605.61 -373.3)" fill="#dbb778"/><path d="M683.48,387.484c0-6.161,4.591-9.064,6.447-9.064.952,0,1.57.476,1.57,1.332C691.5,382.417,683.48,383.487,683.48,387.484Z" transform="translate(-603.665 -370.909)" fill="#dbb778"/><path d="M684.05,384.706c0-2.379,5.162-4.306,6.685-4.306.9,0,1.237.19,1.237.761C691.972,382.589,684.05,382.375,684.05,384.706Z" transform="translate(-602.88 -368.179)" fill="#dbb778"/><path d="M686.933,387.484c0-6.161-4.568-9.064-6.447-9.064-.952,0-1.546.476-1.546,1.332C678.94,382.417,686.933,383.487,686.933,387.484Z" transform="translate(-609.926 -370.909)" fill="#dbb778"/><path d="M686.346,384.706c0-2.379-5.186-4.306-6.709-4.306-.88,0-1.237.19-1.237.761C678.4,382.589,686.346,382.375,686.346,384.706Z" transform="translate(-610.671 -368.179)" fill="#dbb778"/><path d="M724.11,383.441a21.719,21.719,0,0,0-9.135-2.141c-3.473,0-6.3.952-6.3,2.141s2.831,2.165,6.3,2.165a22.648,22.648,0,0,0,9.135-2.165Z" transform="translate(-568.93 -366.937)" fill="#dbb778"/><path d="M649.93,383.441a21.53,21.53,0,0,0,9.135,2.165c3.474,0,6.3-.976,6.3-2.165s-2.831-2.141-6.3-2.141a22.837,22.837,0,0,0-9.135,2.141Z" transform="translate(-649.93 -366.937)" fill="#dbb778"/></g></svg>