<svg xmlns="http://www.w3.org/2000/svg" width="180.941" height="26.723" viewBox="0 0 180.941 26.723"><g transform="translate(-0.028 0.014)"><path d="M759.987,392.828c-6.8-.142-13.318.616-18.625,5.261a4.9,4.9,0,0,0-4.076-5.806,3.815,3.815,0,0,0-3.7,1.445,3.1,3.1,0,0,0,0,3.626,2.512,2.512,0,0,0,3.294.379,1.919,1.919,0,0,0,.877-1.445c0-.687-.64-1.3-1.3-.829s-.213.948-.829,1.066a.83.83,0,0,1-1-.853,1.73,1.73,0,0,1,1.114-1.635,3.081,3.081,0,0,1,3.531,1.279,4.456,4.456,0,0,1,.26,3.531,5.545,5.545,0,0,1-6.588,3.744c-3.246-.45-5.663-3.033-8.009-5.071a19.549,19.549,0,0,0-7.512-4.5,14.43,14.43,0,0,0-10.474.948,13.6,13.6,0,0,0-6.564,9.265c-4.171-9.242-16.73-14.218-25.237-7.512a14.549,14.549,0,0,0-5.521,12.725,11.848,11.848,0,0,0,8.863,10.142,9.858,9.858,0,0,0,11.682-5.569,8.175,8.175,0,0,0-5.521-11.327,6.635,6.635,0,0,0-6.517,2.18,5.994,5.994,0,0,0-.758,6.777,5.332,5.332,0,0,0,2.37,2.18,4.74,4.74,0,0,0,2.37.4c1.659-.19,1.825-1.919,2.8-1.919a1.09,1.09,0,0,1,.971.426h0s.118,0,0-.142a3.65,3.65,0,0,0-3.744-2.536,2.37,2.37,0,0,0-2.37,1.9,3.791,3.791,0,0,1-1.635-3.033,4.739,4.739,0,0,1,4.171-4.739,6.161,6.161,0,0,1,5.9,2.938c2.678,4.36-.806,10.047-5.474,10.971a10.142,10.142,0,0,1-11.208-6.9,12.512,12.512,0,0,1,4.194-12.962c7.915-6.588,19.953-1.445,23.388,7.488a15.476,15.476,0,0,1,.924,3.6c0,.782-.237,3.033.971,3.033s.735-2.37.664-3.2a15.732,15.732,0,0,1,0-4.218,11.327,11.327,0,0,1,11.848-9.81,7.109,7.109,0,0,1,6.825,8.033,4.739,4.739,0,0,1-4.739,3.981A2.819,2.819,0,0,1,713,404.582a1.824,1.824,0,0,1,1.446-2.512c1.3,0,.64,1.706,1.8,1.682s.64-2.133,0-2.678c-1.8-1.635-4.6,0-5,2.156-.545,2.749,2.2,4.739,4.739,4.55a6.28,6.28,0,0,0,5.45-3.7,8.27,8.27,0,0,0-.806-7.678c4.953,3.318,10.047,10.569,16.9,7.109a9.477,9.477,0,0,0,2.678-2.37,23.435,23.435,0,0,1,3.389-3.294,18.956,18.956,0,0,1,7.109-3.578,31.9,31.9,0,0,1,5.782-.9l2.37-.142h.664C759.584,393.231,760.248,392.828,759.987,392.828Z" transform="translate(-579.078 -392.24)" fill="#dbb778"/><path d="M631.474,392.828c6.777-.142,13.318.616,18.6,5.261a4.929,4.929,0,0,1,4.076-5.806,3.815,3.815,0,0,1,3.7,1.445,3.057,3.057,0,0,1,0,3.626,2.512,2.512,0,0,1-3.294.379,1.919,1.919,0,0,1-.877-1.445c0-.687.64-1.3,1.3-.829s.213.948.853,1.066.948-.332.971-.853a1.73,1.73,0,0,0-1.114-1.635,3.081,3.081,0,0,0-3.531,1.28,4.55,4.55,0,0,0-.379,3.483,5.545,5.545,0,0,0,6.588,3.744c3.246-.45,5.664-3.033,8.033-5.071a19.2,19.2,0,0,1,7.512-4.5,14.455,14.455,0,0,1,10.474.948,13.625,13.625,0,0,1,6.54,9.265c4.194-9.242,16.73-14.218,25.237-7.512a14.432,14.432,0,0,1,5.521,12.725,11.847,11.847,0,0,1-8.862,10.142,9.858,9.858,0,0,1-11.682-5.569,8.175,8.175,0,0,1,5.545-11.327,6.683,6.683,0,0,1,6.517,2.18,6.043,6.043,0,0,1,.734,6.777,5.331,5.331,0,0,1-2.37,2.18,4.739,4.739,0,0,1-2.37.4c-1.659-.19-1.825-1.919-2.8-1.919a1.042,1.042,0,0,0-.948.426h0v-.142a3.649,3.649,0,0,1,3.744-2.536,2.37,2.37,0,0,1,2.37,1.9,3.744,3.744,0,0,0,1.635-3.033,4.739,4.739,0,0,0-4.171-4.739,6.161,6.161,0,0,0-5.9,2.938c-2.678,4.36.806,10.047,5.474,10.972a10.118,10.118,0,0,0,11.208-6.9,12.535,12.535,0,0,0-4.17-12.962c-7.938-6.588-19.976-1.445-23.412,7.488a15.476,15.476,0,0,0-.924,3.6c0,.782.237,3.033-.971,3.033s-.735-2.37-.664-3.2a14.807,14.807,0,0,0,0-4.218,11.279,11.279,0,0,0-11.848-9.81A7.109,7.109,0,0,0,671,402.117a4.739,4.739,0,0,0,4.739,3.981,2.82,2.82,0,0,0,2.607-1.564,1.8,1.8,0,0,0-1.446-2.512c-1.3,0-.616,1.706-1.8,1.682s-.64-2.133,0-2.678c1.8-1.635,4.6,0,5,2.156.545,2.749-2.18,4.739-4.739,4.55a6.28,6.28,0,0,1-5.45-3.7,8.269,8.269,0,0,1,.806-7.678c-4.953,3.318-10.047,10.569-16.9,7.109a9.477,9.477,0,0,1-2.678-2.37,23.261,23.261,0,0,0-3.365-3.294,19.239,19.239,0,0,0-7.109-3.578,31.9,31.9,0,0,0-5.782-.9l-2.37-.142h-.664C631.782,393.184,631.19,392.828,631.474,392.828Z" transform="translate(-631.37 -392.24)" fill="#dbb778"/></g></svg>