<svg xmlns="http://www.w3.org/2000/svg" width="692.49" height="49.455" viewBox="0 0 692.49 49.455"><g transform="translate(0 -7.825)"><path d="M694.832,409.044l.839.516c.555.351,1.394.856,2.491,1.515q4.8,2.867,9.939,5.291,3.7,1.747,7.616,3.14c1.42.494,2.93.977,4.518,1.427s3.253.856,5.008,1.2a63.569,63.569,0,0,0,11.385,1.219h3.085l1.575-.077,1.588-.1c2.143-.176,4.324-.439,6.531-.8a53.643,53.643,0,0,0,6.635-1.548,39.757,39.757,0,0,0,6.454-2.558,32,32,0,0,0,3.02-1.756,28.2,28.2,0,0,0,2.749-2.108,19.323,19.323,0,0,0,4.272-5.357,16.259,16.259,0,0,0,1.923-6.367v-3.392a17.041,17.041,0,0,0-.8-3.293,16.552,16.552,0,0,0-1.6-3.162,18.552,18.552,0,0,0-2.349-2.887,23.608,23.608,0,0,0-2.995-2.525,33.073,33.073,0,0,0-3.485-2.2,41.323,41.323,0,0,0-7.99-3.161,45.174,45.174,0,0,0-8.816-1.6,54.36,54.36,0,0,0-9.255.1,59.54,59.54,0,0,0-9.242,1.713,98.22,98.22,0,0,0-17.877,7.015c-5.834,2.843-11.617,6.027-17.658,9.035l-4.518,2.2-4.44,2.2c-2.956,1.493-5.886,2.986-8.829,4.446q-8.686,4.377-17.864,7.981c-3.02,1.164-6.092,2.2-9.19,3.118a77.712,77.712,0,0,1-9.448,2.2,56.63,56.63,0,0,1-9.616.714h-1.2l-1.187-.077h-1.187l-1.187-.143-.581-.066-.594-.088-1.149-.2c-.774-.121-1.536-.318-2.3-.483s-1.5-.377-2.233-.615l-.555-.154-.542-.2-1.084-.4q-.536-.2-1.046-.439l-1.046-.461-.994-.516-.49-.263-.245-.132-.232-.154-.942-.593c-.155-.1-.31-.187-.452-.3l-.439-.329-.865-.659c-.271-.23-.542-.472-.8-.714l-.4-.351c-.129-.121-.245-.253-.374-.384l-.71-.757c-.232-.263-.439-.538-.658-.8l-.31-.406c-.1-.132-.194-.274-.3-.417l-.555-.845c-.168-.285-.31-.582-.478-.867l-.232-.439c-.077-.143-.129-.3-.206-.439l-.387-.9-.31-.911-.155-.45-.116-.461c-.077-.307-.155-.6-.219-.911s-.116-.615-.168-.922v-.922l-.077-.922v-.911a7.159,7.159,0,0,1,0-.911v-.9a7.152,7.152,0,0,1,.116-.9l.065-.45v-.439l.181-.878a22.519,22.519,0,0,1,7.332-12.01,42.273,42.273,0,0,1,5.783-4.018c.516-.285,1.02-.582,1.536-.845l1.549-.768c1.058-.472,2.1-.944,3.175-1.328a42.622,42.622,0,0,1,6.454-1.877c.529-.132,1.071-.22,1.613-.307s1.058-.2,1.588-.263l1.588-.2,1.575-.132c.516-.055,1.033-.066,1.549-.088H641.5l1.42.143a9.6,9.6,0,0,1,1.394.176c.452.066.929.11,1.368.187a55.553,55.553,0,0,1,9.732,2.558,58.082,58.082,0,0,1,7.538,3.4,59.786,59.786,0,0,1,9.216,6.224c.981.779,1.678,1.427,2.156,1.855l.71.637-.736-.615c-.5-.417-1.213-1.032-2.22-1.789a62.3,62.3,0,0,0-9.384-5.95,58.8,58.8,0,0,0-7.564-3.173,53.952,53.952,0,0,0-9.616-2.294l-1.291-.165c-.452,0-.9-.121-1.368-.143l-1.394-.1H635.65a11.666,11.666,0,0,0-1.51.121l-1.51.154-1.523.231c-.516.066-1.02.176-1.536.274s-1.031.2-1.536.329a41.115,41.115,0,0,0-6.144,1.921,39.6,39.6,0,0,0-11.346,6.861c-.4.373-.826.735-1.187,1.1l-.568.6-.529.637-.271.318c-.077.11-.155.22-.245.329l-.478.659c-.168.231-.31.461-.452.692s-.31.461-.439.7c-.258.483-.542.955-.762,1.46-.116.242-.245.494-.349.746l-.31.757-.155.384-.129.4-.258.779c-.077.263-.142.538-.206.8a8.209,8.209,0,0,0-.194.8l-.155.812v.823c0,.274-.077.549-.09.823v2.492c0,.274.065.56.09.834a2.1,2.1,0,0,1,0,.417l.077.417a3.8,3.8,0,0,0,.155.834c.065.274.142.549.219.823s0,.274.1.406l.155.406c.09.263.181.538.284.8s.245.527.361.79a3.92,3.92,0,0,0,.194.4l.219.384c.142.252.271.516.426.768s.349.494.516.735a2.4,2.4,0,0,0,.258.362l.284.351c.194.242.374.472.581.7l.645.67.336.329.349.307.723.615.774.571.387.285q.2.141.413.263l.839.516.206.132.219.11.452.231.891.461.942.406c.323.132.633.274.955.384l.994.34.49.176.5.143c.684.187,1.291.4,2.065.538s1.394.318,2.13.417l1.071.176.542.077.542.055,1.1.121h1.1l1.11.055h1.123a53.4,53.4,0,0,0,9.035-.746,74.845,74.845,0,0,0,9.035-2.119c2.995-.878,5.951-1.921,8.906-3.074,5.886-2.305,11.694-5.039,17.529-7.948,2.917-1.449,5.834-2.942,8.79-4.446,1.484-.746,2.956-1.5,4.466-2.25l4.5-2.2c5.963-2.964,11.759-6.147,17.7-9.024a101.129,101.129,0,0,1,18.523-7.147,63.275,63.275,0,0,1,9.81-1.745,56.9,56.9,0,0,1,9.862,0,47.219,47.219,0,0,1,9.448,1.8,42.7,42.7,0,0,1,8.532,3.48,32.17,32.17,0,0,1,3.769,2.371,25.559,25.559,0,0,1,3.253,2.832,19.159,19.159,0,0,1,2.582,3.293,18.116,18.116,0,0,1,1.742,3.59,18.5,18.5,0,0,1,.826,3.754c0,.318,0,.626,0,.944v1.866a3.716,3.716,0,0,1-.077.922,18.012,18.012,0,0,1-2.259,7.015,21.579,21.579,0,0,1-4.789,5.686,32.752,32.752,0,0,1-3.02,2.2A37.171,37.171,0,0,1,763.5,419.5a41.4,41.4,0,0,1-6.854,2.58,54.367,54.367,0,0,1-6.906,1.471q-3.333.494-6.712.692c-.542,0-1.084.066-1.626.077h-4.789q-3.021-.113-6.015-.5c-1.936-.253-3.795-.593-5.563-.977s-3.446-.856-5.047-1.339-3.111-1.01-4.531-1.548q-3.887-1.5-7.564-3.348a109.6,109.6,0,0,1-9.771-5.577c-1.084-.681-1.9-1.219-2.44-1.581Z" transform="translate(-343.134 -367.035)" fill="#dbb778"/><path d="M715.084,389.5l-.774.1-.929.123-1.291.2a57.618,57.618,0,0,0-7.745,1.94,83.238,83.238,0,0,0-10.8,4.459c-3.95,1.906-8.158,4.214-12.65,6.611-2.246,1.2-4.466,2.352-6.647,3.423q-1.639.8-3.253,1.538l-3.072,1.416c-3.989,1.873-7.577,3.668-10.662,5.05l-1.123.513-1.1.468-1.988.836c-1.291.49-2.349.914-3.253,1.226-1.82.613-2.827.925-2.827.925l2.582-1.3c.826-.435,1.82-.992,2.982-1.617l1.833-1.048.994-.569,1.046-.624,4.66-2.765,2.582-1.527,2.827-1.583c.981-.524,2.014-1.115,3.033-1.594l3.111-1.628,6.454-3.5q6.345-3.464,13.089-6.332a68.117,68.117,0,0,1,11.617-3.69,48.244,48.244,0,0,1,8.209-1.048h3.1Z" transform="translate(-328.903 -366.198)" fill="#dbb778"/><path d="M708.942,380.85l-.774.1-.929.122-1.291.2a57.766,57.766,0,0,0-7.745,1.934,84.987,84.987,0,0,0-10.8,4.445c-3.95,1.9-8.158,4.2-12.65,6.59-2.246,1.2-4.466,2.345-6.648,3.412q-1.639.8-3.253,1.534l-3.124,1.4c-3.989,1.867-7.577,3.656-10.662,5.034l-1.123.511-1.123.445-1.988.833c-1.291.489-2.349.911-3.253,1.234l-2.827.922,2.582-1.311c.826-.433,1.82-.989,2.982-1.611l1.833-1.045.994-.567,1.046-.611,4.66-2.756c.852-.5,1.717-1.011,2.582-1.534l3.008-1.556c.981-.522,2.014-1.111,3.033-1.589l3.111-1.622,6.454-3.478q6.341-3.464,13.089-6.323a67.21,67.21,0,0,1,11.617-3.667,46.169,46.169,0,0,1,8.222-1.045h2.982Z" transform="translate(-331.712 -367.669)" fill="#dbb778"/><path d="M944.36,402.19s-3.7-20.149-29.03.116C915.33,402.306,939.209,422.79,944.36,402.19Zm-5.821.116a.968.968,0,1,1-.968-.955.955.955,0,0,1,.968.955Zm-16.935,0s1.639-6.067,13.256,0c0-.013-10.843,6.209-13.256.039Z" transform="translate(-251.87 -369.377)" fill="#dbb778"/><path d="M914.472,403.624a2.672,2.672,0,0,1-2.672-2.659h0a2.672,2.672,0,0,1,2.659-2.685h0a2.672,2.672,0,0,1,2.672,2.659h0A2.672,2.672,0,0,1,914.472,403.624Z" transform="translate(-252.896 -367.92)" fill="#dbb778"/><path d="M898.6,403.681a2.672,2.672,0,0,1-2.685-2.659h0a2.672,2.672,0,0,1,2.659-2.672h0a2.672,2.672,0,0,1,2.685,2.582h0a2.672,2.672,0,0,1-2.659,2.685Z" transform="translate(-257.514 -367.9)" fill="#dbb778"/><path d="M907.956,409.047s9.139-7.073,9.035-7.112-9.035-7.035-9.035-7.035c-1.071,2.31-9.113,7.1-9.036,7.112S906.871,406.749,907.956,409.047Z" transform="translate(-256.641 -368.903)" fill="#dbb778"/><path d="M725.69,401.645c-16.5-13.192-18.91-.077-18.91-.077C710.136,414.979,725.69,401.645,725.69,401.645Zm-14.5-.62a.633.633,0,1,1-.632.62.62.62,0,0,1,.633-.62Zm1.768.607c7.577-3.872,8.635,0,8.635,0C719.972,405.686,712.963,401.632,712.963,401.632Z" transform="translate(-312.512 -368.652)" fill="#dbb778"/><path d="M722.76,402.5a1.755,1.755,0,0,0,1.755-1.73h0a1.73,1.73,0,0,0-1.743-1.743h0a1.73,1.73,0,0,0-1.743,1.73h0a1.755,1.755,0,0,0,1.73,1.743Z" transform="translate(-308.368 -367.702)" fill="#dbb778"/><rect width="224.931" height="1.885" transform="translate(416.147 32.167)" fill="#dbb778"/><path d="M430.373,402.306c-25.338-20.265-29.043-.116-29.043-.116C406.493,422.79,430.373,402.306,430.373,402.306Zm-22.253-.955a.968.968,0,1,1-.931.446A.968.968,0,0,1,408.12,401.351Zm2.711.942c11.617-6.015,13.256,0,13.256,0C421.673,408.514,410.83,402.293,410.83,402.293Z" transform="translate(-401.33 -369.377)" fill="#dbb778"/><path d="M425.879,403.624a2.672,2.672,0,0,0,2.672-2.659h0a2.672,2.672,0,0,0-2.646-2.685h0a2.672,2.672,0,0,0-2.685,2.659h0A2.672,2.672,0,0,0,425.879,403.624Z" transform="translate(-394.965 -367.92)" fill="#dbb778"/><path d="M441.759,403.681a2.672,2.672,0,0,0,2.685-2.659h0a2.672,2.672,0,0,0-2.659-2.672h0a2.672,2.672,0,0,0-2.685,2.582h0a2.672,2.672,0,0,0,2.659,2.685Z" transform="translate(-390.347 -367.9)" fill="#dbb778"/><path d="M435.266,409.047s-9.126-7.073-9.035-7.112,9.035-7.035,9.035-7.035c1.071,2.31,9.113,7.1,9.1,7.112S436.35,406.749,435.266,409.047Z" transform="translate(-394.09 -368.903)" fill="#dbb778"/><path d="M636.643,401.568s-2.427-13.114-18.923.077C617.72,401.645,633.274,414.979,636.643,401.568Zm-3.795.077a.632.632,0,1,1-.633-.62.62.62,0,0,1,.633.62Zm-11.036,0s1.071-3.95,8.635,0c0-.013-7.061,4.04-8.635.026Z" transform="translate(-338.408 -368.652)" fill="#dbb778"/><path d="M617.173,402.5a1.743,1.743,0,0,1-1.743-1.73h0a1.717,1.717,0,0,1,1.73-1.742h0a1.73,1.73,0,0,1,1.743,1.73h0a1.756,1.756,0,0,1-1.73,1.743Z" transform="translate(-339.074 -367.702)" fill="#dbb778"/><rect width="224.931" height="1.885" transform="translate(51.425 32.167)" fill="#dbb778"/></g></svg>