<svg xmlns="http://www.w3.org/2000/svg" viewBox="0 0 384.659 384.659"><defs><style>.a{opacity:0.6;}.b{fill:none;stroke:#fff;}</style></defs><g class="a" transform="translate(0)"><g transform="translate(1.054 1.054)"><g transform="matrix(0.995, 0.105, -0.105, 0.995, 0, 171.172)"><line class="b" x1="12.211" transform="translate(0 0)"/><line class="b" x1="12.211" transform="translate(372.448 0)"/></g><g transform="matrix(0.978, 0.208, -0.208, 0.978, 3.149, 151.288)"><line class="b" x1="12.211" transform="translate(0 0)"/><line class="b" x1="12.211" transform="translate(372.448 0)"/></g><g transform="matrix(0.951, 0.309, -0.309, 0.951, 8.36, 131.843)"><line class="b" x1="12.211" transform="translate(0 0)"/><line class="b" x1="12.211" transform="translate(372.448 0)"/></g><g transform="matrix(0.914, 0.407, -0.407, 0.914, 15.574, 113.048)"><line class="b" x1="12.211" transform="translate(0 0)"/><line class="b" x1="12.211" transform="translate(372.448 0)"/></g><g transform="translate(24.714 95.111) rotate(30)"><line class="b" x1="12.211"/><line class="b" x1="12.211" transform="translate(372.448 0)"/></g><g transform="matrix(0.809, 0.588, -0.588, 0.809, 35.678, 78.227)"><line class="b" x1="12.211"/><line class="b" x1="12.211" transform="translate(372.448 0)"/></g><g transform="translate(48.347 62.582) rotate(42)"><line class="b" x1="12.211"/><line class="b" x1="12.211" transform="translate(372.448 0)"/></g><g transform="translate(62.582 48.347) rotate(48)"><line class="b" x1="12.211"/><line class="b" x1="12.211" transform="translate(372.448)"/></g><g transform="matrix(0.588, 0.809, -0.809, 0.588, 78.228, 35.678)"><line class="b" x1="12.211"/><line class="b" x1="12.211" transform="translate(372.448 0)"/></g><g transform="translate(95.111 24.714) rotate(60)"><line class="b" x1="12.211"/><line class="b" x1="12.211" transform="translate(372.448 0)"/></g><g transform="matrix(0.407, 0.914, -0.914, 0.407, 113.049, 15.574)"><line class="b" x1="12.211" transform="translate(0 0)"/><line class="b" x1="12.211" transform="translate(372.448 0)"/></g><g transform="matrix(0.309, 0.951, -0.951, 0.309, 131.843, 8.36)"><line class="b" x1="12.211" transform="translate(0 0)"/><line class="b" x1="12.211" transform="translate(372.448 0)"/></g><g transform="matrix(0.208, 0.978, -0.978, 0.208, 151.288, 3.149)"><line class="b" x1="12.211" transform="translate(0 0)"/><line class="b" x1="12.211" transform="translate(372.448 0)"/></g><g transform="matrix(0.105, 0.995, -0.995, 0.105, 171.172, 0)"><line class="b" x1="12.211" transform="translate(0 0)"/><line class="b" x1="12.211" transform="translate(372.448 0)"/></g></g><g transform="translate(384.659 0) rotate(90)"><g transform="translate(0 192.33)"><line class="b" x1="12.211" transform="translate(0 0)"/><line class="b" x1="12.211" transform="translate(372.448 0)"/></g><g transform="matrix(0.995, 0.105, -0.105, 0.995, 1.054, 172.226)"><line class="b" x1="12.211" transform="translate(0 0)"/><line class="b" x1="12.211" transform="translate(372.448 0)"/></g><g transform="matrix(0.978, 0.208, -0.208, 0.978, 4.203, 152.342)"><line class="b" x1="12.211" transform="translate(0 0)"/><line class="b" x1="12.211" transform="translate(372.448 0)"/></g><g transform="matrix(0.951, 0.309, -0.309, 0.951, 9.413, 132.897)"><line class="b" x1="12.211" transform="translate(0 0)"/><line class="b" x1="12.211" transform="translate(372.448 0)"/></g><g transform="matrix(0.914, 0.407, -0.407, 0.914, 16.628, 114.102)"><line class="b" x1="12.211" transform="translate(0 0)"/><line class="b" x1="12.211" transform="translate(372.448 0)"/></g><g transform="translate(25.767 96.165) rotate(30)"><line class="b" x1="12.211" transform="translate(0 0)"/><line class="b" x1="12.211" transform="translate(372.448 0)"/></g><g transform="matrix(0.809, 0.588, -0.588, 0.809, 36.732, 79.281)"><line class="b" x1="12.211" transform="translate(0 0)"/><line class="b" x1="12.211" transform="translate(372.448 0)"/></g><g transform="translate(49.401 63.636) rotate(42)"><line class="b" x1="12.211"/><line class="b" x1="12.211" transform="translate(372.448)"/></g><g transform="translate(63.636 49.401) rotate(48)"><line class="b" x1="12.211" transform="translate(0 0)"/><line class="b" x1="12.211" transform="translate(372.448 0)"/></g><g transform="matrix(0.588, 0.809, -0.809, 0.588, 79.281, 36.732)"><line class="b" x1="12.211" transform="translate(0 0)"/><line class="b" x1="12.211" transform="translate(372.448 0)"/></g><g transform="translate(96.165 25.767) rotate(60)"><line class="b" x1="12.211" transform="translate(0 0)"/><line class="b" x1="12.211" transform="translate(372.448 0)"/></g><g transform="matrix(0.407, 0.914, -0.914, 0.407, 114.102, 16.628)"><line class="b" x1="12.211" transform="translate(0 0)"/><line class="b" x1="12.211" transform="translate(372.448 0)"/></g><g transform="matrix(0.309, 0.951, -0.951, 0.309, 132.897, 9.413)"><line class="b" x1="12.211" transform="translate(0 0)"/><line class="b" x1="12.211" transform="translate(372.448 0)"/></g><g transform="matrix(0.208, 0.978, -0.978, 0.208, 152.342, 4.203)"><line class="b" x1="12.211" transform="translate(0 0)"/><line class="b" x1="12.211" transform="translate(372.448 0)"/></g><g transform="matrix(0.105, 0.995, -0.995, 0.105, 172.226, 1.054)"><line class="b" x1="12.211" transform="translate(0 0)"/><line class="b" x1="12.211" transform="translate(372.448 0)"/></g><g transform="translate(192.33 0) rotate(90)"><line class="b" x1="12.211" transform="translate(0 0)"/><line class="b" x1="12.211" transform="translate(372.448 0)"/></g></g></g></svg>