<svg xmlns="http://www.w3.org/2000/svg" xmlns:xlink="http://www.w3.org/1999/xlink" viewBox="0 0 1625 271">
  <defs>
    <style>
      .cls-1, .cls-3 {
        fill: none;
      }

      .cls-2 {
        opacity: 1;
        clip-path: url(#clip-path);
      }

      .cls-3 {
        stroke: #000;
      }
    </style>
    <clipPath id="clip-path">
      <rect class="cls-1" width="1625" height="271"/>
    </clipPath>
  </defs>
  <g id="вертикальные_линии" data-name="вертикальные линии" class="cls-2">
    <g transform="translate(-262 -31)">
      <line id="Line_23" data-name="Line 23" class="cls-3" y2="1018" transform="translate(262 31)"/>
    </g>
    <g transform="translate(-124 -31)">
      <line id="Line_23-2" data-name="Line 23" class="cls-3" y2="1018" transform="translate(262 31)"/>
    </g>
    <g transform="translate(14 -31)">
      <line id="Line_23-3" data-name="Line 23" class="cls-3" y2="1018" transform="translate(262 31)"/>
    </g>
    <g transform="translate(152 -31)">
      <line id="Line_23-4" data-name="Line 23" class="cls-3" y2="1018" transform="translate(262 31)"/>
    </g>
    <g transform="translate(290 -31)">
      <line id="Line_23-5" data-name="Line 23" class="cls-3" y2="1018" transform="translate(262 31)"/>
    </g>
    <g transform="translate(428 -31)">
      <line id="Line_23-6" data-name="Line 23" class="cls-3" y2="1018" transform="translate(262 31)"/>
    </g>
    <g transform="translate(566 -31)">
      <line id="Line_23-7" data-name="Line 23" class="cls-3" y2="1018" transform="translate(262 31)"/>
    </g>
    <g transform="translate(704 -31)">
      <line id="Line_23-8" data-name="Line 23" class="cls-3" y2="1018" transform="translate(262 31)"/>
    </g>
    <g transform="translate(842 -31)">
      <line id="Line_23-9" data-name="Line 23" class="cls-3" y2="1018" transform="translate(262 31)"/>
    </g>
    <g transform="translate(980 -31)">
      <line id="Line_23-10" data-name="Line 23" class="cls-3" y2="1018" transform="translate(262 31)"/>
    </g>
    <g transform="translate(1118 -31)">
      <line id="Line_23-11" data-name="Line 23" class="cls-3" y2="1018" transform="translate(262 31)"/>
    </g>
    <g transform="translate(1256 -31)">
      <line id="Line_23-12" data-name="Line 23" class="cls-3" y2="1018" transform="translate(262 31)"/>
    </g>
  </g>
</svg>
