<svg id="bonus" xmlns="http://www.w3.org/2000/svg" width="195.504" height="195.504" viewBox="0 0 195.504 195.504">
  <defs>
    <style>
      .cls-1 {
        fill: #fff;
      }
    </style>
  </defs>
  <path id="Path_11" data-name="Path 11" class="cls-1" d="M145.168,210.336A65.168,65.168,0,1,0,80,145.168,65.167,65.167,0,0,0,145.168,210.336ZM86.517,145.168a58.426,58.426,0,0,1,1.718-13.843l27.055,22.787-11.314,32.748a58.456,58.456,0,0,1-17.46-41.691Zm71.768-23.044a3.255,3.255,0,0,0,2.63,1.954l35.007,3.931L169.137,150.57a3.26,3.26,0,0,0-.982,3.556l11.07,32.04-33.267-8.316a3.283,3.283,0,0,0-1.581,0l-33.267,8.316,11.07-32.04a3.26,3.26,0,0,0-.982-3.556L94.415,128.009l35.007-3.931a3.255,3.255,0,0,0,2.63-1.954l13.116-30.6Zm-47.115,70.744,34-8.5,34,8.5a58.253,58.253,0,0,1-68,0Zm75.19-6.009-11.314-32.748L202.1,131.324a58.076,58.076,0,0,1-15.742,55.535Zm12.569-65.069-35.4-3.976L150.219,86.773a58.74,58.74,0,0,1,48.709,35.017ZM140.116,86.773l-13.307,31.041-35.4,3.976a58.74,58.74,0,0,1,48.709-35.017Zm0,0" transform="translate(-47.416 -47.416)"/>
  <path id="Path_12" data-name="Path 12" class="cls-1" d="M40,121.46A81.46,81.46,0,1,0,121.46,40,81.46,81.46,0,0,0,40,121.46Zm81.46-74.943A74.943,74.943,0,1,1,46.517,121.46,74.943,74.943,0,0,1,121.46,46.517Zm0,0" transform="translate(-23.708 -23.708)"/>
  <path id="Path_13" data-name="Path 13" class="cls-1" d="M210.228,221.451l7.72,2.573a3.185,3.185,0,0,0-.172.853v3.258a3.258,3.258,0,1,0,6.517,0v-2l5.486,1.828a3.26,3.26,0,0,0,4.289-3.091V208.584a3.26,3.26,0,0,0-2.227-3.091l-17.323-5.774V187.037l13.034,4.345v4.168a3.258,3.258,0,1,0,6.517,0v-6.517a3.26,3.26,0,0,0-2.227-3.091l-7.548-2.515v-4.168a3.258,3.258,0,0,0-6.517,0v2l-5.486-1.828A3.26,3.26,0,0,0,208,182.517v19.55a3.26,3.26,0,0,0,2.227,3.091l17.323,5.774v9.424l-13.034-4.345v-.91a3.258,3.258,0,0,0-6.517,0v3.258a3.26,3.26,0,0,0,2.227,3.091Zm0,0" transform="translate(-123.282 -104.315)"/>
  <path id="Path_14" data-name="Path 14" class="cls-1" d="M3.258,26.067A16.311,16.311,0,0,1,19.55,42.359a3.258,3.258,0,0,0,6.517,0A16.311,16.311,0,0,1,42.359,26.067a3.258,3.258,0,0,0,0-6.517A16.311,16.311,0,0,1,26.067,3.258a3.258,3.258,0,1,0-6.517,0A16.311,16.311,0,0,1,3.258,19.55a3.258,3.258,0,1,0,0,6.517ZM22.809,15a23,23,0,0,0,7.812,7.812,23,23,0,0,0-7.812,7.812A23,23,0,0,0,15,22.809,23,23,0,0,0,22.809,15Zm0,0"/>
  <path id="Path_15" data-name="Path 15" class="cls-1" d="M390.809,368a3.259,3.259,0,0,0-3.258,3.258,16.311,16.311,0,0,1-16.292,16.292,3.258,3.258,0,1,0,0,6.517,16.311,16.311,0,0,1,16.292,16.292,3.258,3.258,0,1,0,6.517,0,16.311,16.311,0,0,1,16.292-16.292,3.258,3.258,0,1,0,0-6.517,16.311,16.311,0,0,1-16.292-16.292A3.259,3.259,0,0,0,390.809,368Zm7.812,22.809a23,23,0,0,0-7.812,7.812A23,23,0,0,0,383,390.809,23,23,0,0,0,390.809,383,23,23,0,0,0,398.621,390.809Zm0,0" transform="translate(-218.114 -218.114)"/>
</svg>
