<svg id="mix" xmlns="http://www.w3.org/2000/svg" width="149.886" height="149.886" viewBox="0 0 149.886 149.886">
  <defs>
    <style>
      .cls-1 {
        fill: #fff;
      }
    </style>
  </defs>
  <g id="Group_10" data-name="Group 10">
    <g id="Group_9" data-name="Group 9">
      <path id="Path_16" data-name="Path 16" class="cls-1" d="M140.111,0H9.775A9.787,9.787,0,0,0,0,9.775V140.111a9.787,9.787,0,0,0,9.775,9.775H140.111a9.787,9.787,0,0,0,9.775-9.775V9.775A9.787,9.787,0,0,0,140.111,0Zm3.258,140.111a3.26,3.26,0,0,1-3.258,3.258H9.775a3.262,3.262,0,0,1-3.258-3.258V9.775A3.262,3.262,0,0,1,9.775,6.517H140.111a3.26,3.26,0,0,1,3.258,3.258Z"/>
    </g>
  </g>
  <g id="Group_12" data-name="Group 12" transform="translate(84.718 19.55)">
    <g id="Group_11" data-name="Group 11">
      <path id="Path_17" data-name="Path 17" class="cls-1" d="M230.809,48A22.838,22.838,0,0,0,208,70.809v65.168a22.809,22.809,0,0,0,45.618,0V70.809A22.838,22.838,0,0,0,230.809,48ZM247.1,135.977a16.292,16.292,0,0,1-32.584,0V86.739a22.733,22.733,0,0,0,32.584,0ZM230.809,87.1A16.292,16.292,0,1,1,247.1,70.809,16.31,16.31,0,0,1,230.809,87.1Z" transform="translate(-208 -48)"/>
    </g>
  </g>
  <g id="Group_14" data-name="Group 14" transform="translate(19.55 19.55)">
    <g id="Group_13" data-name="Group 13">
      <path id="Path_18" data-name="Path 18" class="cls-1" d="M70.809,48A22.836,22.836,0,0,0,48,70.809v65.168a22.809,22.809,0,1,0,45.618,0V70.809A22.836,22.836,0,0,0,70.809,48Zm0,104.269A16.292,16.292,0,1,1,87.1,135.977,16.31,16.31,0,0,1,70.809,152.269ZM87.1,120.047a22.733,22.733,0,0,0-32.584,0V70.809a16.292,16.292,0,0,1,32.584,0Z" transform="translate(-48 -48)"/>
    </g>
  </g>
</svg>
