<svg id="pay" xmlns="http://www.w3.org/2000/svg" width="208.538" height="139.025" viewBox="0 0 208.538 139.025">
  <defs>
    <style>
      .cls-1 {
        fill: #fff;
      }
    </style>
  </defs>
  <g id="Group_16" data-name="Group 16" transform="translate(0 0)">
    <g id="Group_15" data-name="Group 15">
      <path id="Path_19" data-name="Path 19" class="cls-1" d="M186.815,85.333H21.723A21.753,21.753,0,0,0,0,107.056v95.58a21.753,21.753,0,0,0,21.723,21.723H186.815a21.753,21.753,0,0,0,21.723-21.723v-95.58A21.752,21.752,0,0,0,186.815,85.333Zm13.034,117.3a13.049,13.049,0,0,1-13.034,13.034H21.723A13.049,13.049,0,0,1,8.689,202.635v-95.58A13.049,13.049,0,0,1,21.723,94.022H186.815a13.049,13.049,0,0,1,13.034,13.034v95.58Z" transform="translate(0 -85.333)"/>
    </g>
  </g>
  <g id="Group_18" data-name="Group 18" transform="translate(0 26.067)">
    <g id="Group_17" data-name="Group 17">
      <path id="Path_20" data-name="Path 20" class="cls-1" d="M204.193,149.333H4.345A4.346,4.346,0,0,0,0,153.678v26.067a4.346,4.346,0,0,0,4.345,4.345H204.193a4.346,4.346,0,0,0,4.345-4.345V153.678A4.347,4.347,0,0,0,204.193,149.333ZM199.849,175.4H8.689V158.022H199.848V175.4Z" transform="translate(0 -149.333)"/>
    </g>
  </g>
  <g id="Group_20" data-name="Group 20" transform="translate(26.067 86.891)">
    <g id="Group_19" data-name="Group 19">
      <path id="Path_21" data-name="Path 21" class="cls-1" d="M120.479,298.667H68.345a4.344,4.344,0,1,0,0,8.689h52.134a4.344,4.344,0,1,0,0-8.689Z" transform="translate(-64 -298.667)"/>
    </g>
  </g>
  <g id="Group_22" data-name="Group 22" transform="translate(26.067 104.269)">
    <g id="Group_21" data-name="Group 21">
      <path id="Path_22" data-name="Path 22" class="cls-1" d="M120.479,341.333H68.345a4.345,4.345,0,1,0,0,8.689h52.134a4.345,4.345,0,0,0,0-8.689Z" transform="translate(-64 -341.333)"/>
    </g>
  </g>
  <g id="Group_24" data-name="Group 24" transform="translate(147.714 78.202)">
    <g id="Group_23" data-name="Group 23">
      <path id="Path_23" data-name="Path 23" class="cls-1" d="M384.39,277.333H375.7a13.049,13.049,0,0,0-13.034,13.034v8.689A13.049,13.049,0,0,0,375.7,312.089h8.689a13.049,13.049,0,0,0,13.034-13.034v-8.689A13.05,13.05,0,0,0,384.39,277.333Zm4.345,21.723a4.346,4.346,0,0,1-4.345,4.345H375.7a4.346,4.346,0,0,1-4.345-4.345v-8.689a4.346,4.346,0,0,1,4.345-4.345h8.689a4.346,4.346,0,0,1,4.345,4.345Z" transform="translate(-362.667 -277.333)"/>
    </g>
  </g>
</svg>
