<svg id="support" xmlns="http://www.w3.org/2000/svg" width="232.153" height="232.16" viewBox="0 0 232.153 232.16">
  <defs>
    <style>
      .cls-1 {
        fill: #fff;
      }
    </style>
  </defs>
  <path id="Path_24" data-name="Path 24" class="cls-1" d="M.808,21.327,16.279,48.4A3.865,3.865,0,0,0,18.7,50.232L33.13,53.841l49.5,49.5,5.47-5.468L37.825,47.6a3.857,3.857,0,0,0-1.795-1.018L22.162,43.1,8.99,20.038,20.283,8.745,43.355,21.93,46.837,35.8a3.857,3.857,0,0,0,1.017,1.8L98.132,87.876l5.468-5.47L54.1,32.9,50.488,18.476a3.874,3.874,0,0,0-1.833-2.422L21.581.585a3.868,3.868,0,0,0-4.641.622L1.47,16.678a3.867,3.867,0,0,0-.662,4.649Zm0,0" transform="translate(-0.298 -0.047)"/>
  <path id="Path_25" data-name="Path 25" class="cls-1" d="M264.537,179.188l-85.086,85.087-5.47-5.47,85.087-85.086Zm0,0" transform="translate(-103.23 -102.963)"/>
  <path id="Path_26" data-name="Path 26" class="cls-1" d="M89.744,400.711a3.866,3.866,0,0,0-3.316-1.876h-23.2a3.864,3.864,0,0,0-3.314,1.876l-11.6,19.337a3.867,3.867,0,0,0,0,3.984l11.6,19.337a3.867,3.867,0,0,0,3.314,1.876h23.2a3.87,3.87,0,0,0,3.316-1.876l11.6-19.337a3.867,3.867,0,0,0,0-3.984Zm-5.5,36.8H65.412L56.13,422.041l9.282-15.471H84.24l9.282,15.471Zm0,0" transform="translate(-28.415 -236.39)"/>
  <path id="Path_27" data-name="Path 27" class="cls-1" d="M185.917,92.829A46.25,46.25,0,0,0,230.9,35.2a3.866,3.866,0,0,0-6.485-1.8L200.344,57.459l-19.1-6.366L174.872,32l24.075-24.08a3.868,3.868,0,0,0-1.814-6.49,46.268,46.268,0,0,0-57.627,44.991,45.394,45.394,0,0,0,.94,9.062l-84.7,84.7a45.627,45.627,0,0,0-9.061-.94,46.411,46.411,0,1,0,46.41,46.411,45.512,45.512,0,0,0-.94-9.062l20.278-20.278,8.868,8.868a3.869,3.869,0,0,0,5.47,0l1.933-1.935a4.338,4.338,0,0,1,6.141,6.127l-.008.008-1.933,1.933a3.867,3.867,0,0,0,0,5.468l46.136,46.136a31.215,31.215,0,1,0,44.343-43.944c-.065-.067-.132-.134-.2-.2l-46.136-46.135a3.867,3.867,0,0,0-5.468,0l-1.933,1.933a4.338,4.338,0,0,1-6.143-6.125s.006,0,.008-.008l1.935-1.935a3.867,3.867,0,0,0,0-5.468l-8.868-8.868,20.278-20.278a45.509,45.509,0,0,0,9.061.94Zm15.2,131.5a23.5,23.5,0,0,1-8.226-1.5l30.205-30.207a23.454,23.454,0,0,1-21.98,31.707ZM157.3,123.808A12.07,12.07,0,0,0,174.314,140.8l43.4,43.441c.471.473.912.971,1.338,1.476l-33.068,33.068c-.508-.425-1.006-.866-1.478-1.338L141.072,174.01a12.071,12.071,0,0,0-17.018-17l-6.187-6.187,33.241-33.192Zm15.617-38.9L85.178,172.628a3.873,3.873,0,0,0-1.021,3.675,38.933,38.933,0,1,1-28.125-28.126,3.9,3.9,0,0,0,3.675-1.02l87.716-87.721a3.865,3.865,0,0,0,1.017-3.674A38.488,38.488,0,0,1,188.114,7.806l-20.4,20.41a3.864,3.864,0,0,0-.936,3.955l7.734,23.207a3.871,3.871,0,0,0,2.449,2.444l23.207,7.736a3.868,3.868,0,0,0,3.955-.932l20.4-20.4c.046.738.07,1.469.07,2.2a38.477,38.477,0,0,1-48.023,37.473,3.871,3.871,0,0,0-3.675,1.017h.021Zm0,0" transform="translate(-0.274 0)"/>
  <path id="Path_28" data-name="Path 28" class="cls-1" d="M427.035,421.3l-5.47,5.47L382.89,388.095l5.468-5.47Zm0,0" transform="translate(-227.05 -226.782)"/>
</svg>
