<svg xmlns="http://www.w3.org/2000/svg" width="97.221" height="97.24" viewBox="0 0 97.221 97.24"><g transform="translate(-0.055 0.005)"><path d="M95.684,248.2a7.041,7.041,0,0,0-5.059-2.682,7.2,7.2,0,0,0-5.4,1.8L74.567,257.09a1.8,1.8,0,0,1-1.386.468l-3.6-.324a7.2,7.2,0,0,0-5.959-6.913L45.89,247.314a.9.9,0,0,0-.307,0h-7.2v-1.8a1.8,1.8,0,0,0-1.8-1.8H27.059v-1.8a1.8,1.8,0,0,0-1.8-1.8H1.855a1.8,1.8,0,0,0,0,3.6h21.6v36H1.855a1.8,1.8,0,0,0,0,3.6h23.4a1.8,1.8,0,0,0,1.8-1.8v-1.8H36.51a1.8,1.8,0,0,0,1.8-1.8v-1.8h32.1a12.6,12.6,0,0,0,8.515-3.312l15.843-14.529a7.328,7.328,0,0,0,.918-10.082ZM34.71,276.118H27.059v-28.8H34.71Zm57.608-20.487L76.476,270.159a9,9,0,0,1-6.067,2.358H38.31v-21.6h7.111l17.642,3.1a3.6,3.6,0,0,1,2.863,4.105v.108a2.013,2.013,0,0,0-.127.468,3.6,3.6,0,0,1-4.014,2.341l-12.331-2.178a1.8,1.8,0,1,0-.63,3.546l12.332,2.178a7.562,7.562,0,0,0,1.26.108,7.2,7.2,0,0,0,6.355-3.834l4.176.36a5.4,5.4,0,0,0,4.087-1.3l10.657-9.793a3.52,3.52,0,0,1,5.221.306,3.817,3.817,0,0,1-.576,5.2Zm0,0" transform="translate(0 -186.084)" fill="#600d0d"/><path d="M50.856,357.514a5.4,5.4,0,1,0-5.4,5.4A5.4,5.4,0,0,0,50.856,357.514Zm-7.2,0a1.8,1.8,0,1,1,1.8,1.8A1.8,1.8,0,0,1,43.655,357.514Zm0,0" transform="translate(-30.999 -272.88)" fill="#600d0d"/><path d="M57.813,25.225h9v23.4a1.8,1.8,0,1,0,3.6,0v-23.4h18V55.938a1.8,1.8,0,1,0,3.6,0V25.225h10.8v33.25a1.8,1.8,0,1,0,3.6,0V25.225h18v31.18a1.8,1.8,0,1,0,3.6,0V25.225h9a1.8,1.8,0,0,0,.9-3.367l-4.5-2.592L134.9,17.3a1.8,1.8,0,0,0-1.477-2.881H126.1a11.98,11.98,0,0,0,.126-1.8,12.6,12.6,0,0,0-24.555-4.014,7.2,7.2,0,0,0-8.5,0,12.6,12.6,0,0,0-24.556,4.014,11.867,11.867,0,0,0,.127,1.8H61.414a1.8,1.8,0,0,0-1.44,2.881l1.44,1.962-4.5,2.592a1.8,1.8,0,0,0,.9,3.367Zm72.01-7.2-.54.72a1.8,1.8,0,0,0,.54,2.647l.414.234h-7.813a12.183,12.183,0,0,0,2.575-3.6Zm-25.2-5.4a9,9,0,1,1,18,0,8.721,8.721,0,0,1-.468,2.845v.162A9,9,0,0,1,114,21.625h-9.38v-3.6h9a5.4,5.4,0,1,0-5.4-5.4v1.8h-3.6Zm7.2,1.8v-1.8a1.8,1.8,0,1,1,1.8,1.8Zm-14.4-3.6a3.6,3.6,0,0,1,3.6,3.6v7.2h-7.2v-7.2A3.6,3.6,0,0,1,97.419,10.823Zm-16.2-7.2a9,9,0,0,1,9,9v1.8h-3.6v-1.8a5.4,5.4,0,1,0-5.4,5.4h9v3.6H80.838a9,9,0,0,1-8.1-5.995v-.162a8.749,8.749,0,0,1-.522-2.845,9,9,0,0,1,9-9Zm1.8,10.8h-1.8a1.8,1.8,0,1,1,1.8-1.8Zm-18,6.967a1.8,1.8,0,0,0,.541-2.647l-.541-.72h4.825a12.183,12.183,0,0,0,2.575,3.6H64.6Zm0,0" transform="translate(-43.356 0)" fill="#600d0d"/></g></svg>