<svg xmlns="http://www.w3.org/2000/svg" width="96.854" height="96.857" viewBox="0 0 96.854 96.857"><g transform="translate(-2 -2)"><g transform="translate(2 2)"><path d="M90.783,2H10.071A8.081,8.081,0,0,0,2,10.071v45.2a8.081,8.081,0,0,0,8.071,8.071h3.792a1.614,1.614,0,0,0,0-3.228H10.071A4.843,4.843,0,0,1,5.228,55.27v-45.2a4.843,4.843,0,0,1,4.843-4.843H90.783a4.843,4.843,0,0,1,4.843,4.843v45.2a4.843,4.843,0,0,1-4.843,4.843H86.991a1.614,1.614,0,0,0,0,3.228h3.792a8.081,8.081,0,0,0,8.071-8.071v-45.2A8.081,8.081,0,0,0,90.783,2Z" transform="translate(-2 -2)" fill="#600d0d"/><path d="M6.334,24.284,22.477,45.269a1.614,1.614,0,0,0,2.56,0L41.179,24.284a1.614,1.614,0,0,0,.063-1.881l-6.457-9.685A1.614,1.614,0,0,0,33.442,12H14.071a1.614,1.614,0,0,0-1.343.719L6.271,22.4A1.614,1.614,0,0,0,6.334,24.284Zm30.286.63-8.691,11.3,3.477-11.3Zm-4.168-3.228,1.477-4.429,2.954,4.429Zm-2.723-2.027-2.957-4.429H31.2ZM27.2,21.685H20.315l3.442-5.166Zm-9.414-2.027L16.31,15.228h4.431Zm10.244,5.256L23.757,38.8,19.485,24.914ZM13.587,17.256l1.474,4.429h-.99a1.614,1.614,0,0,0,0,3.228h2.036l3.477,11.3L9.6,23.232Z" transform="translate(0.457 4.142)" fill="#600d0d"/><path d="M31.614,33.371a1.614,1.614,0,1,0,0,3.228H41.3a1.614,1.614,0,0,0,1.614-1.614V15.614A1.614,1.614,0,0,0,41.3,14H31.614A1.614,1.614,0,0,0,30,15.614V25.3a1.614,1.614,0,0,0,1.614,1.614h8.071v6.457Zm1.614-16.142h6.457v6.457H33.228Z" transform="translate(15.198 5.371)" fill="#600d0d"/><path d="M41.614,33.371a1.614,1.614,0,0,0,0,3.228H51.3a1.614,1.614,0,0,0,1.614-1.614V15.614A1.614,1.614,0,0,0,51.3,14H41.614A1.614,1.614,0,0,0,40,15.614V25.3a1.614,1.614,0,0,0,1.614,1.614h8.071v6.457Zm1.614-16.142h6.457v6.457H43.228Z" transform="translate(21.341 5.371)" fill="#600d0d"/><path d="M51.614,33.371a1.614,1.614,0,1,0,0,3.228H61.3a1.614,1.614,0,0,0,1.614-1.614V15.614A1.614,1.614,0,0,0,61.3,14H51.614A1.614,1.614,0,0,0,50,15.614V25.3a1.614,1.614,0,0,0,1.614,1.614h8.071v6.457Zm1.614-16.142h6.457v6.457H53.228Z" transform="translate(27.483 5.371)" fill="#600d0d"/><path d="M19.228,10.843V7.614a1.614,1.614,0,1,0-3.228,0v3.228a1.614,1.614,0,1,0,3.228,0Z" transform="translate(6.599 0.457)" fill="#600d0d"/><path d="M22.611,12.457a1.614,1.614,0,0,0,1.453-.893l1.614-3.228a1.615,1.615,0,0,0-2.889-1.443l-1.614,3.228a1.614,1.614,0,0,0,1.437,2.336Z" transform="translate(9.673 0.457)" fill="#600d0d"/><path d="M13.226,12.457a1.614,1.614,0,0,0,1.453-2.336L13.064,6.893a1.615,1.615,0,1,0-2.889,1.443l1.614,3.228A1.614,1.614,0,0,0,13.226,12.457Z" transform="translate(2.917 0.457)" fill="#600d0d"/><path d="M41.843,38a4.843,4.843,0,1,0,4.843,4.843A4.843,4.843,0,0,0,41.843,38Zm0,6.457a1.614,1.614,0,1,1,1.614-1.614A1.614,1.614,0,0,1,41.843,44.457Z" transform="translate(19.498 20.112)" fill="#600d0d"/><path d="M47.843,52.685A4.843,4.843,0,1,0,43,47.843,4.843,4.843,0,0,0,47.843,52.685Zm0-6.457a1.614,1.614,0,1,1-1.614,1.614A1.614,1.614,0,0,1,47.843,46.228Z" transform="translate(23.183 23.183)" fill="#600d0d"/><path d="M22.457,57.371h6.457a1.614,1.614,0,0,0,1.614-1.614V52.528h3.228a1.614,1.614,0,0,0,1.614-1.614V44.457a1.614,1.614,0,0,0-1.614-1.614H30.528V39.614A1.614,1.614,0,0,0,28.914,38H22.457a1.614,1.614,0,0,0-1.614,1.614v3.228H17.614a1.614,1.614,0,0,0,0,3.228h4.843a1.614,1.614,0,0,0,1.614-1.614V41.228H27.3v3.228a1.614,1.614,0,0,0,1.614,1.614h3.228V49.3H28.914A1.614,1.614,0,0,0,27.3,50.914v3.228H24.071V50.914A1.614,1.614,0,0,0,22.457,49.3H17.614a1.614,1.614,0,1,0,0,3.228h3.228v3.228A1.614,1.614,0,0,0,22.457,57.371Z" transform="translate(6.599 20.112)" fill="#600d0d"/><circle cx="1.5" cy="1.5" r="1.5" transform="translate(44 56)" fill="#600d0d"/><circle cx="1.5" cy="1.5" r="1.5" transform="translate(50 56)" fill="#600d0d"/><path d="M61.041,33H28.757A17.777,17.777,0,0,0,11,50.757V69.69a10.123,10.123,0,0,0,19.669,3.369l1.745-4.944a17.6,17.6,0,0,0,8.5-4.444h7.978a17.6,17.6,0,0,0,8.5,4.444l1.745,4.944A10.123,10.123,0,0,0,78.8,69.69V63.67a1.614,1.614,0,0,0-3.228,0V69.69a6.894,6.894,0,0,1-13.4,2.294l-2.057-5.827a1.614,1.614,0,0,0-1.28-1.059,14.422,14.422,0,0,1-8.141-4.171,1.614,1.614,0,0,0-1.149-.484H40.253a1.614,1.614,0,0,0-1.149.484A14.422,14.422,0,0,1,30.96,65.1a1.614,1.614,0,0,0-1.28,1.059l-2.053,5.824a6.894,6.894,0,0,1-13.4-2.294V50.757A14.544,14.544,0,0,1,28.757,36.228H61.041A14.544,14.544,0,0,1,75.569,50.757v6.457a1.614,1.614,0,1,0,3.228,0V50.757A17.777,17.777,0,0,0,61.041,33Z" transform="translate(3.528 17.041)" fill="#600d0d"/></g></g></svg>