<svg xmlns="http://www.w3.org/2000/svg" width="81.429" height="97.714" viewBox="0 0 81.429 97.714"><g transform="translate(-6 -2)"><g transform="translate(6 2)"><path d="M83.227,29.429a6.417,6.417,0,0,0,.945-3.257,6.514,6.514,0,0,0-13.029,0,6.368,6.368,0,0,0,.912,3.257H67.169a20.08,20.08,0,0,0,.717-4.886,19.543,19.543,0,1,0-39.086,0,20.08,20.08,0,0,0,.635,4.886H10.886A4.886,4.886,0,0,0,6,34.314V76.657a4.886,4.886,0,0,0,4.886,4.886H30.64l-4.348,6.514H22.286A4.886,4.886,0,0,0,17.4,92.943V96.2a1.629,1.629,0,0,0,1.629,1.629H74.4A1.629,1.629,0,0,0,76.028,96.2V92.943a4.886,4.886,0,0,0-4.886-4.886H67.136l-4.348-6.514H82.543a4.886,4.886,0,0,0,4.886-4.886V34.314a4.886,4.886,0,0,0-4.2-4.886ZM74.4,26.171a3.257,3.257,0,1,1,3.257,3.257A3.257,3.257,0,0,1,74.4,26.171ZM48.343,8.257A16.286,16.286,0,1,1,32.057,24.543,16.286,16.286,0,0,1,48.343,8.257ZM44.4,55.486a3.257,3.257,0,0,1-3.762,2.638L29.484,56.153a1.653,1.653,0,0,0-.57,3.257L40.07,61.381a6.741,6.741,0,0,0,1.14.1,6.514,6.514,0,0,0,5.733-3.469l3.795.326a4.886,4.886,0,0,0,3.729-1.221l9.641-8.859a3.257,3.257,0,0,1,4.723.342,3.453,3.453,0,0,1-.521,4.658L53.978,66.4a8.143,8.143,0,0,1-5.5,2.117H19.436V48.971h6.433l15.96,2.8A3.257,3.257,0,0,1,44.4,55.486ZM16.179,71.771H9.257V45.714h6.921ZM72.771,92.943v1.629H20.657V92.943a1.629,1.629,0,0,1,1.629-1.629H71.143A1.629,1.629,0,0,1,72.771,92.943Zm-9.56-4.886H30.217l4.348-6.514h24.3Zm20.96-11.4a1.629,1.629,0,0,1-1.629,1.629H10.886a1.629,1.629,0,0,1-1.629-1.629V75.028h8.55A1.629,1.629,0,0,0,19.436,73.4V71.771H48.473a11.4,11.4,0,0,0,7.7-3L70.508,55.632a6.628,6.628,0,0,0,.831-9.12,6.368,6.368,0,0,0-4.576-2.427,6.514,6.514,0,0,0-4.886,1.629l-9.641,8.843a1.629,1.629,0,0,1-1.254.423l-3.257-.293a6.514,6.514,0,0,0-5.374-6.254l-16.058-2.72a.814.814,0,0,0-.277,0H19.5V44.086a1.629,1.629,0,0,0-1.629-1.629H9.257V34.314a1.629,1.629,0,0,1,1.629-1.629H30.608a19.543,19.543,0,0,0,35.47,0H82.543a1.629,1.629,0,0,1,1.629,1.629Z" transform="translate(-6 -0.114)" fill="#600d0d"/><path d="M16.514,21.029A6.514,6.514,0,1,0,10,14.514,6.514,6.514,0,0,0,16.514,21.029Zm0-9.771a3.257,3.257,0,1,1-3.257,3.257A3.257,3.257,0,0,1,16.514,11.257Z" transform="translate(-3.486 1.771)" fill="#600d0d"/><path d="M50.629,18.286a1.629,1.629,0,0,0,1.629-1.629V3.629a1.629,1.629,0,1,0-3.257,0V16.657A1.629,1.629,0,0,0,50.629,18.286Z" transform="translate(21.028 -2)" fill="#600d0d"/><path d="M44.629,13.4a1.629,1.629,0,0,0,1.629-1.629V3.629a1.629,1.629,0,1,0-3.257,0v8.143A1.629,1.629,0,0,0,44.629,13.4Z" transform="translate(17.257 -2)" fill="#600d0d"/><path d="M21.629,11.771a1.629,1.629,0,0,0,1.629-1.629V3.629a1.629,1.629,0,0,0-3.257,0v6.514A1.629,1.629,0,0,0,21.629,11.771Z" transform="translate(2.8 -2)" fill="#600d0d"/><path d="M14.629,8.514a1.629,1.629,0,0,0,1.629-1.629V3.629a1.629,1.629,0,0,0-3.257,0V6.886A1.629,1.629,0,0,0,14.629,8.514Z" transform="translate(-1.6 -2)" fill="#600d0d"/><path d="M34.208,28.543A2.443,2.443,0,0,1,31.765,26.1a1.629,1.629,0,0,0-3.257,0,5.7,5.7,0,0,0,4.071,5.439v1.889a1.629,1.629,0,1,0,3.257,0V31.539A5.684,5.684,0,0,0,34.208,20.4a2.443,2.443,0,1,1,2.443-2.443,1.629,1.629,0,1,0,3.257,0,5.7,5.7,0,0,0-4.071-5.439V10.629a1.629,1.629,0,1,0-3.257,0v1.889a5.684,5.684,0,0,0,1.629,11.139,2.443,2.443,0,1,1,0,4.886Z" transform="translate(8.135 2.4)" fill="#600d0d"/></g></g></svg>