<svg xmlns="http://www.w3.org/2000/svg" width="97.849" height="97.849" viewBox="0 0 97.849 97.849"><g transform="translate(-0.004 0)"><path d="M21.434,27.3,59.823,10.226a1.73,1.73,0,0,1,1.337,0L99.632,27.3a4.786,4.786,0,0,0,1.989.424,4.923,4.923,0,0,0,1.99-9.426L63.754.7a8.154,8.154,0,0,0-6.621,0L17.455,18.364A4.891,4.891,0,1,0,21.434,27.3Zm-3.523-5.056a1.632,1.632,0,0,1,.865-.9L58.5,3.687a4.892,4.892,0,0,1,3.979,0l39.726,17.662a1.618,1.618,0,1,1-1.288,2.968L62.481,7.258a4.892,4.892,0,0,0-3.979,0L20.1,24.317a1.631,1.631,0,0,1-2.153-.815,1.764,1.764,0,0,1-.033-1.256Zm0,0" transform="translate(-11.564)" fill="#600d0d"/><path d="M115.614,187.558a4.892,4.892,0,0,0,6.914,0l41.52-41.52a4.892,4.892,0,1,0-6.914-6.915l-41.521,41.521a4.892,4.892,0,0,0,0,6.914Zm2.3-4.648L159.4,141.439a1.655,1.655,0,1,1,2.348,2.332l-41.488,41.472a1.655,1.655,0,1,1-2.348-2.332Zm0,0" transform="translate(-90.904 -109.522)" fill="#600d0d"/><path d="M267.42,302.835A11.416,11.416,0,1,0,256,291.42,11.416,11.416,0,0,0,267.42,302.835Zm0-19.57a8.154,8.154,0,1,1-8.154,8.154A8.154,8.154,0,0,1,267.42,283.266Zm0,0" transform="translate(-203.814 -222.925)" fill="#600d0d"/><path d="M292.9,321.789A4.892,4.892,0,1,0,288,316.9,4.892,4.892,0,0,0,292.9,321.789Zm0-6.523a1.631,1.631,0,1,1-1.631,1.631A1.631,1.631,0,0,1,292.9,315.266Zm0,0" transform="translate(-229.291 -248.401)" fill="#600d0d"/><path d="M131.42,150.835A11.416,11.416,0,1,0,120,139.42,11.416,11.416,0,0,0,131.42,150.835Zm0-19.57a8.154,8.154,0,1,1-8.154,8.154A8.154,8.154,0,0,1,131.42,131.266Zm0,0" transform="translate(-95.538 -101.91)" fill="#600d0d"/><path d="M156.9,169.789A4.892,4.892,0,1,0,152,164.9,4.892,4.892,0,0,0,156.9,169.789Zm0-6.523a1.631,1.631,0,1,1-1.631,1.631A1.631,1.631,0,0,1,156.9,163.266Zm0,0" transform="translate(-121.015 -127.387)" fill="#600d0d"/><path d="M378.271,192.439l-9.785,9.785a1.64,1.64,0,0,0,1.158,2.789h1.631v4.892a1.631,1.631,0,0,0,3.262,0v-6.523a1.632,1.632,0,0,0-1.061-1.533l5.953-5.952,5.952,5.952a1.63,1.63,0,0,0-1.06,1.533v14.677a1.631,1.631,0,1,0,3.262,0V205.013h1.631a1.641,1.641,0,0,0,1.158-2.789l-9.785-9.785a1.63,1.63,0,0,0-2.316,0Zm0,0" transform="translate(-292.992 -152.826)" fill="#600d0d"/><path d="M416,249.635v8.154a1.631,1.631,0,0,0,3.262,0v-8.154a1.631,1.631,0,1,0-3.262,0Zm0,0" transform="translate(-331.198 -197.448)" fill="#600d0d"/><path d="M411.266,147.5v-3.62a1.631,1.631,0,1,0-3.262,0v3.62a1.631,1.631,0,0,0,3.262,0Zm0,0" transform="translate(-324.829 -113.249)" fill="#600d0d"/><path d="M96.222,207.837H3.266v-1.631a3.261,3.261,0,0,1,3.262-3.262h84.8a1.631,1.631,0,1,0,0-3.262H86.437V183.375a1.631,1.631,0,1,0-3.262,0v16.308H14.681V143.877a1.631,1.631,0,1,0-3.262,0v55.806H6.527A6.523,6.523,0,0,0,0,206.206v3.262A1.631,1.631,0,0,0,1.635,211.1H96.222a1.631,1.631,0,0,0,0-3.262Zm0,0" transform="translate(0 -113.249)" fill="#600d0d"/></g></svg>