<svg xmlns="http://www.w3.org/2000/svg" width="97.867" height="97.857" viewBox="0 0 97.867 97.857"><g transform="translate(0.001 -0.051)"><path d="M46.63,10.277l38.4,17.074a4.675,4.675,0,0,0,1.973.424A4.886,4.886,0,0,0,89,18.414L49.272.753a8.154,8.154,0,0,0-6.621,0L2.925,18.414a4.934,4.934,0,1,0,4.044,9L45.309,10.277a1.631,1.631,0,0,1,1.321,0ZM5.583,24.367A1.6,1.6,0,0,1,3.43,22.3a1.536,1.536,0,0,1,.848-.9L44.053,3.737a4.892,4.892,0,0,1,3.979,0L87.676,21.4a1.618,1.618,0,1,1-1.288,2.969L47.951,7.309a4.892,4.892,0,0,0-3.979,0Zm0,0" fill="#600d0d"/><path d="M396.735,153.686a1.631,1.631,0,0,0-3.262,0v22.831a1.631,1.631,0,1,0,3.262,0Zm0,0" transform="translate(-313.266 -121.019)" fill="#600d0d"/><path d="M203.051,264.983a2.462,2.462,0,0,1-2.446-2.446,1.631,1.631,0,0,0-3.262,0A5.725,5.725,0,0,0,201.42,268v1.875a1.631,1.631,0,0,0,3.262,0V268a5.708,5.708,0,0,0-1.631-11.171,2.446,2.446,0,1,1,2.446-2.446,1.631,1.631,0,0,0,3.262,0,5.707,5.707,0,0,0-4.077-5.479v-1.859a1.631,1.631,0,0,0-3.262,0V248.9a5.708,5.708,0,0,0,1.631,11.187,2.446,2.446,0,0,1,0,4.892Zm0,0" transform="translate(-157.09 -195.347)" fill="#600d0d"/><path d="M135.2,179.47a1.631,1.631,0,0,0,.946-1.484v-8.3a1.631,1.631,0,1,0-3.262,0v7.306a21.2,21.2,0,1,0,19.569,0v-4.044a1.631,1.631,0,0,0-3.262,0V178a1.631,1.631,0,0,0,.963,1.483,17.939,17.939,0,1,1-14.955,0Zm0,0" transform="translate(-96.704 -133.757)" fill="#600d0d"/><path d="M217.473,133.1a1.631,1.631,0,1,0,3.262,0v-4.892a1.631,1.631,0,0,1,1.631-1.631,4.893,4.893,0,0,0,4.892-4.892,1.631,1.631,0,1,0-3.262,0,1.631,1.631,0,0,1-1.631,1.631,4.893,4.893,0,0,0-4.892,4.892Zm0,0" transform="translate(-173.143 -95.542)" fill="#600d0d"/><path d="M284.735,121.686a1.631,1.631,0,1,1-1.631-1.631A1.631,1.631,0,0,1,284.735,121.686Zm0,0" transform="translate(-224.097 -95.542)" fill="#600d0d"/><path d="M220.735,121.686a1.631,1.631,0,1,1-1.631-1.631A1.631,1.631,0,0,1,220.735,121.686Zm0,0" transform="translate(-173.143 -95.542)" fill="#600d0d"/><path d="M252.735,89.685a1.631,1.631,0,1,1-1.631-1.631A1.631,1.631,0,0,1,252.735,89.685Zm0,0" transform="translate(-198.62 -70.065)" fill="#600d0d"/><path d="M272.587,97.85a1.63,1.63,0,1,0,1.158-.483,1.631,1.631,0,0,0-1.158.483Zm0,0" transform="translate(-216.646 -77.479)" fill="#600d0d"/><path d="M272.549,145.483a1.63,1.63,0,1,0-.483-1.158A1.631,1.631,0,0,0,272.549,145.483Zm0,0" transform="translate(-216.608 -113.566)" fill="#600d0d"/><path d="M229.649,100.2a1.632,1.632,0,1,0-2.3,0A1.629,1.629,0,0,0,229.649,100.2Zm0,0" transform="translate(-180.622 -77.512)" fill="#600d0d"/><path d="M130.758,201.99a1.63,1.63,0,0,0-1.5-1.011h-4.892v-21.2a1.631,1.631,0,1,0-3.262,0v22.831a1.631,1.631,0,0,0,1.631,1.631h2.593l-10.747,10.747L103.835,204.24h2.593a1.631,1.631,0,0,0,1.631-1.631V186.3a1.631,1.631,0,1,0-3.262,0v14.677H99.9a1.641,1.641,0,0,0-1.158,2.789l3.75,3.735H44.735V153.686a1.631,1.631,0,0,0-3.262,0v55.446a1.631,1.631,0,0,0,1.631,1.631h62.654l7.665,7.681a1.63,1.63,0,0,0,2.316,0l14.677-14.677A1.63,1.63,0,0,0,130.758,201.99Zm0,0" transform="translate(-33.02 -121.019)" fill="#600d0d"/><path d="M393.744,336.055a1.631,1.631,0,0,0-1.631,1.631v9.785a1.631,1.631,0,0,0,3.262,0v-9.785A1.631,1.631,0,0,0,393.744,336.055Zm0,0" transform="translate(-312.183 -267.511)" fill="#600d0d"/></g></svg>