<svg xmlns="http://www.w3.org/2000/svg" width="97.508" height="97.508" viewBox="0 0 97.508 97.508"><path d="M95.882,160h-13a1.625,1.625,0,0,0,0,3.25H94.257v53.629a4.876,4.876,0,0,1-4.875,4.875H8.126a4.876,4.876,0,0,1-4.875-4.875V163.25H69.88a1.625,1.625,0,0,0,0-3.25H1.625A1.625,1.625,0,0,0,0,161.625v55.254a8.126,8.126,0,0,0,8.126,8.126H89.382a8.126,8.126,0,0,0,8.126-8.126V161.625A1.625,1.625,0,0,0,95.882,160Zm0,0" transform="translate(0 -127.497)" fill="#600d0d"/><path d="M89.382,11.376H84.507V6.5a1.625,1.625,0,1,0-3.25,0v13a3.25,3.25,0,0,1-6.5,0V6.5a3.25,3.25,0,0,1,3.25-3.25,1.625,1.625,0,0,0,0-3.25,6.5,6.5,0,0,0-6.5,6.5v4.875h-6.5V6.5a1.625,1.625,0,1,0-3.25,0v13a3.25,3.25,0,1,1-6.5,0V6.5A3.25,3.25,0,0,1,58.5,3.25,1.625,1.625,0,0,0,58.5,0,6.5,6.5,0,0,0,52,6.5v4.875H45.5V6.5a1.625,1.625,0,0,0-3.25,0v13a3.25,3.25,0,0,1-6.5,0V6.5A3.25,3.25,0,0,1,39,3.25,1.625,1.625,0,0,0,39,0a6.5,6.5,0,0,0-6.5,6.5v4.875H26V6.5a1.625,1.625,0,0,0-3.25,0v13a3.25,3.25,0,0,1-6.5,0V6.5A3.25,3.25,0,0,1,19.5,3.25,1.625,1.625,0,0,0,19.5,0,6.5,6.5,0,0,0,13,6.5v4.875H8.126A8.126,8.126,0,0,0,0,19.5V26a1.625,1.625,0,0,0,3.25,0V19.5a4.876,4.876,0,0,1,4.875-4.875H13V19.5a6.5,6.5,0,0,0,13,0V14.626h6.5V19.5a6.5,6.5,0,0,0,13,0V14.626H52V19.5a6.5,6.5,0,0,0,13,0V14.626h6.5V19.5a6.5,6.5,0,0,0,13,0V14.626h4.875A4.876,4.876,0,0,1,94.257,19.5V26a1.625,1.625,0,1,0,3.25,0V19.5A8.126,8.126,0,0,0,89.382,11.376Zm0,0" fill="#600d0d"/><path d="M78.684,224A22.752,22.752,0,1,0,97.34,259.753h12.221a1.625,1.625,0,0,0,0-3.25H99.241a22.747,22.747,0,0,0,2.194-9.751,1.625,1.625,0,0,0-1.625-1.625h-19.5v-19.5A1.625,1.625,0,0,0,78.684,224Zm19.5,24.377a19.5,19.5,0,0,1-2.551,8.126H80.309a1.625,1.625,0,0,0,0,3.25h12.9a19.5,19.5,0,1,1-16.154-32.5v19.5a1.625,1.625,0,0,0,1.625,1.625Zm0,0" transform="translate(-44.556 -178.496)" fill="#600d0d"/><path d="M224.5,203.376H213.322A22.753,22.753,0,0,0,193.625,192,1.625,1.625,0,0,0,192,193.625v21.127a1.625,1.625,0,0,0,1.625,1.625h21.127a1.625,1.625,0,0,0,1.625-1.625,22.75,22.75,0,0,0-1.495-8.126H224.5a1.625,1.625,0,0,0,0-3.25Zm-11.376,9.751H195.25V195.25a19.5,19.5,0,0,1,14.2,8.126H205a1.625,1.625,0,0,0,0,3.25h6.355A19.413,19.413,0,0,1,213.127,213.127Zm0,0" transform="translate(-152.997 -152.997)" fill="#600d0d"/><path d="M387.376,237A1.625,1.625,0,0,0,389,235.376v-9.751A1.625,1.625,0,0,0,387.376,224h-9.751A1.625,1.625,0,0,0,376,225.625v9.751A1.625,1.625,0,0,0,377.625,237Zm-8.126-9.751h6.5v6.5h-6.5Zm0,0" transform="translate(-299.619 -178.496)" fill="#600d0d"/><path d="M344,369.625v6.5a1.625,1.625,0,0,0,1.625,1.625h16.251a1.625,1.625,0,0,0,0-3.25H347.25v-3.25h14.626a1.625,1.625,0,0,0,0-3.25H345.625A1.625,1.625,0,0,0,344,369.625Zm0,0" transform="translate(-274.12 -293.244)" fill="#600d0d"/></svg>