<svg xmlns="http://www.w3.org/2000/svg" width="93.632" height="96.857" viewBox="0 0 93.632 96.857"><g transform="translate(-3 -2)"><g transform="translate(3 2)"><path d="M27.144,50H12.614a1.614,1.614,0,0,0,0,3.229H27.144a1.614,1.614,0,1,0,0-3.229Z" transform="translate(1.915 27.489)" fill="#600d0d"/><path d="M20.614,42a1.614,1.614,0,1,0,0,3.229h1.614a1.614,1.614,0,1,0,0-3.229Z" transform="translate(6.83 22.574)" fill="#600d0d"/><path d="M12.614,34a1.614,1.614,0,1,0,0,3.229h6.457a1.614,1.614,0,1,0,0-3.229Z" transform="translate(1.915 17.659)" fill="#600d0d"/><ellipse cx="2" cy="1.5" rx="2" ry="1.5" transform="translate(40 26)" fill="#600d0d"/><circle cx="1.5" cy="1.5" r="1.5" transform="translate(47 26)" fill="#600d0d"/><path d="M33.6,19.614A1.614,1.614,0,0,0,31.987,18H12.614a1.614,1.614,0,0,0,0,3.229H31.987A1.614,1.614,0,0,0,33.6,19.614Z" transform="translate(1.915 7.83)" fill="#600d0d"/><ellipse cx="2" cy="1.5" rx="2" ry="1.5" transform="translate(40 13)" fill="#600d0d"/><circle cx="1.5" cy="1.5" r="1.5" transform="translate(47 13)" fill="#600d0d"/><ellipse cx="2" cy="1.5" rx="2" ry="1.5" transform="translate(53 13)" fill="#600d0d"/><path d="M12.614,10a1.614,1.614,0,0,0,0,3.229H31.987a1.614,1.614,0,1,0,0-3.229Z" transform="translate(1.915 2.915)" fill="#600d0d"/><path d="M52.4,92.4H6.229V89.175H44.65a1.614,1.614,0,0,0,0-3.229H12.686V76.26H33.511a1.614,1.614,0,1,0,0-3.229H12.686V63.345H30.678a1.614,1.614,0,0,0,0-3.229H12.686V50.431H30.444a1.614,1.614,0,0,0,0-3.229H12.686V37.516h17.78a1.614,1.614,0,0,0,0-3.229H12.686V24.6h45.2a1.614,1.614,0,1,0,0-3.229h-45.2V11.686H64.345v4.843a1.614,1.614,0,0,0,3.229,0V11.686h4.843a1.614,1.614,0,0,0,1.614-1.614V3.614A1.614,1.614,0,0,0,72.417,2H4.614A1.614,1.614,0,0,0,3,3.614v6.457a1.614,1.614,0,0,0,1.614,1.614H9.457v74.26H4.614A1.614,1.614,0,0,0,3,87.561v6.457a1.614,1.614,0,0,0,1.614,1.614H52.4a1.614,1.614,0,1,0,0-3.229ZM6.229,5.229H70.8V8.457H6.229Z" transform="translate(-3 -2)" fill="#600d0d"/><path d="M23.072,26H16.614a1.614,1.614,0,1,0,0,3.229h6.457a1.614,1.614,0,0,0,0-3.229Z" transform="translate(4.372 12.744)" fill="#600d0d"/><circle cx="1.5" cy="1.5" r="1.5" transform="translate(26 52)" fill="#600d0d"/><circle cx="1.5" cy="1.5" r="1.5" transform="translate(13 65)" fill="#600d0d"/><ellipse cx="2" cy="1.5" rx="2" ry="1.5" transform="translate(19 65)" fill="#600d0d"/><ellipse cx="1.5" cy="2" rx="1.5" ry="2" transform="translate(34 77)" fill="#600d0d"/><circle cx="1.5" cy="1.5" r="1.5" transform="translate(13 39)" fill="#600d0d"/><path d="M83.766,30.494a1.614,1.614,0,0,0-1.324-.349A24.223,24.223,0,0,1,57.273,18.559l-2.205-3.776a1.681,1.681,0,0,0-2.79,0l-2.205,3.776A24.215,24.215,0,0,1,24.9,30.145a1.635,1.635,0,0,0-1.324.349,1.614,1.614,0,0,0-.58,1.24V50.512A33.809,33.809,0,0,0,35.2,76.556L52.633,91.085a1.614,1.614,0,0,0,2.07,0L72.138,76.556A33.809,33.809,0,0,0,84.345,50.512V31.734a1.614,1.614,0,0,0-.58-1.24ZM81.117,50.512a30.592,30.592,0,0,1-11.037,23.57L53.673,87.752,37.266,74.076A30.592,30.592,0,0,1,26.229,50.512V33.6A27.444,27.444,0,0,0,52.866,20.186l.807-1.392.807,1.392A27.444,27.444,0,0,0,81.117,33.6Z" transform="translate(9.287 5.397)" fill="#600d0d"/><path d="M46.3,61.058a11.3,11.3,0,1,0,0-22.6,1.614,1.614,0,1,1,1.614-1.614,1.614,1.614,0,0,0,3.229,0A4.843,4.843,0,1,0,46.3,41.686a8.072,8.072,0,1,1-8.072,8.072,1.614,1.614,0,1,0-3.229,0,11.313,11.313,0,0,0,11.3,11.3Z" transform="translate(16.659 16.431)" fill="#600d0d"/><path d="M46.3,31.229A8.081,8.081,0,0,1,54.372,39.3a1.614,1.614,0,0,0,3.229,0A11.3,11.3,0,1,0,46.3,50.6a1.614,1.614,0,1,1-1.614,1.614,1.614,1.614,0,0,0-3.229,0A4.843,4.843,0,1,0,46.3,47.372a8.072,8.072,0,1,1,0-16.144Z" transform="translate(16.659 13.973)" fill="#600d0d"/><path d="M68.293,36h-.037a1.614,1.614,0,0,0-1.614,1.577,24.188,24.188,0,0,1-8.68,18.047L45.692,65.851l-6.979-5.812a1.614,1.614,0,1,0-2.062,2.476l8.012,6.677a1.614,1.614,0,0,0,2.07,0L60.041,58.1A27.418,27.418,0,0,0,69.88,37.651,1.614,1.614,0,0,0,68.293,36Z" transform="translate(17.267 18.888)" fill="#600d0d"/><path d="M73.91,32.489A30.82,30.82,0,0,1,52.44,21.852a1.614,1.614,0,0,0-2.449,0A30.834,30.834,0,0,1,28.52,32.489,1.614,1.614,0,0,0,27,34.1V46.061a27.376,27.376,0,0,0,9.875,21.085l.333.278a1.615,1.615,0,1,0,2.066-2.483l-.333-.276a24.154,24.154,0,0,1-8.711-18.607V35.589A34.1,34.1,0,0,0,51.216,25.3,34.1,34.1,0,0,0,72.2,35.589v4.606a1.614,1.614,0,1,0,3.229,0V34.1A1.614,1.614,0,0,0,73.91,32.489Z" transform="translate(11.744 9.851)" fill="#600d0d"/></g></g></svg>