<svg xmlns="http://www.w3.org/2000/svg" width="97.857" height="97.857" viewBox="0 0 97.857 97.857"><g transform="translate(-2 -2)"><g transform="translate(2 2)"><circle cx="1.5" cy="1.5" r="1.5" transform="translate(51 49)" fill="#600d0d"/><circle cx="1.5" cy="1.5" r="1.5" transform="translate(57 49)" fill="#600d0d"/><circle cx="1.5" cy="1.5" r="1.5" transform="translate(64 49)" fill="#600d0d"/><path d="M35.048,33.631A1.631,1.631,0,0,0,33.417,32H23.631a1.631,1.631,0,1,0,0,3.262h9.786A1.631,1.631,0,0,0,35.048,33.631Z" transform="translate(10.619 16.929)" fill="#600d0d"/><circle cx="1.5" cy="1.5" r="1.5" transform="translate(51 36)" fill="#600d0d"/><circle cx="1.5" cy="1.5" r="1.5" transform="translate(57 36)" fill="#600d0d"/><circle cx="1.5" cy="1.5" r="1.5" transform="translate(64 36)" fill="#600d0d"/><path d="M33.417,24H23.631a1.631,1.631,0,1,0,0,3.262h9.786a1.631,1.631,0,0,0,0-3.262Z" transform="translate(10.619 11.881)" fill="#600d0d"/><circle cx="1.5" cy="1.5" r="1.5" transform="translate(51 23)" fill="#600d0d"/><circle cx="1.5" cy="1.5" r="1.5" transform="translate(57 23)" fill="#600d0d"/><circle cx="1.5" cy="1.5" r="1.5" transform="translate(64 23)" fill="#600d0d"/><path d="M23.631,16a1.631,1.631,0,1,0,0,3.262h9.786a1.631,1.631,0,0,0,0-3.262Z" transform="translate(10.619 6.833)" fill="#600d0d"/><path d="M65.245,65.757a1.631,1.631,0,1,0-2.306,2.306l2.621,2.619L56.332,79.91,52,75.577a1.631,1.631,0,0,0-1.918-.287,25.9,25.9,0,0,1-4.526,1.885A1.631,1.631,0,0,0,44.4,78.734V84.85H31.357V78.734a1.631,1.631,0,0,0-1.152-1.559A25.9,25.9,0,0,1,25.68,75.29a1.631,1.631,0,0,0-1.918.287L19.43,79.91,10.2,70.682l4.333-4.33a1.631,1.631,0,0,0,.287-1.918,26.055,26.055,0,0,1-1.885-4.528,1.631,1.631,0,0,0-1.559-1.151H5.262V45.707h6.116a1.631,1.631,0,0,0,1.559-1.152,26.055,26.055,0,0,1,1.885-4.527,1.631,1.631,0,0,0-.287-1.918L10.2,33.78l9.228-9.228,2.619,2.621a1.631,1.631,0,1,0,2.306-2.306l-3.773-3.774a1.631,1.631,0,0,0-2.308,0L6.743,32.626a1.631,1.631,0,0,0,0,2.308l4.651,4.65A29.26,29.26,0,0,0,10.2,42.445H3.631A1.631,1.631,0,0,0,2,44.076v16.31a1.631,1.631,0,0,0,1.631,1.631H10.2a29.262,29.262,0,0,0,1.194,2.862l-4.651,4.65a1.631,1.631,0,0,0,0,2.308L18.275,83.369a1.631,1.631,0,0,0,2.308,0l4.65-4.651A29.328,29.328,0,0,0,28.1,79.912v6.569a1.631,1.631,0,0,0,1.631,1.631h16.31a1.631,1.631,0,0,0,1.631-1.631V79.912a29.324,29.324,0,0,0,2.862-1.194l4.65,4.651a1.631,1.631,0,0,0,2.308,0L69.019,71.837a1.631,1.631,0,0,0,0-2.308Z" transform="translate(-2 9.745)" fill="#600d0d"/><path d="M15.523,40.008a1.631,1.631,0,0,0-1.468,1.784,17.872,17.872,0,0,0,25.59,14.352,1.631,1.631,0,1,0-1.414-2.936,14.473,14.473,0,0,1-6.32,1.469,14.62,14.62,0,0,1-14.6-13.211,1.631,1.631,0,0,0-1.784-1.46Z" transform="translate(5.601 21.976)" fill="#600d0d"/><path d="M88.131,18.31H83.639c-.09-.227-.183-.452-.284-.678l3.179-3.177a1.631,1.631,0,0,0,0-2.306l-6.92-6.92a1.631,1.631,0,0,0-2.306,0L74.131,8.406c-.227-.1-.452-.194-.678-.285V3.631A1.631,1.631,0,0,0,71.821,2H62.036A1.631,1.631,0,0,0,60.4,3.631v4.49c-.227.091-.452.186-.678.285L56.549,5.228a1.631,1.631,0,0,0-2.306,0l-6.92,6.92a1.631,1.631,0,1,0,2.308,2.306L55.4,8.687l2.843,2.843a1.631,1.631,0,0,0,1.908.292,14.6,14.6,0,0,1,2.38-.995,1.631,1.631,0,0,0,1.142-1.556V5.262h6.524V9.272a1.631,1.631,0,0,0,1.142,1.556,14.6,14.6,0,0,1,2.379.995,1.631,1.631,0,0,0,1.908-.292l2.839-2.844L83.075,13.3l-2.843,2.843a1.631,1.631,0,0,0-.292,1.908,14.805,14.805,0,0,1,.995,2.378,1.631,1.631,0,0,0,1.556,1.142H86.5V28.1H82.489a1.631,1.631,0,0,0-1.556,1.142,14.8,14.8,0,0,1-.995,2.378,1.631,1.631,0,0,0,.292,1.908l2.844,2.843L78.461,40.98l-2.843-2.843a1.631,1.631,0,0,0-1.908-.292,14.6,14.6,0,0,1-2.38.995A1.631,1.631,0,0,0,70.189,40.4v5.64a1.631,1.631,0,1,0,3.262,0v-4.49c.227-.091.452-.186.678-.285l3.177,3.179a1.631,1.631,0,0,0,2.306,0l.364-.36v20.2a4.893,4.893,0,0,0-2.962,2.962H60.4V65.607a1.631,1.631,0,0,0-1.631-1.631H47.357V60.714H65.3a1.631,1.631,0,0,0,1.631-1.631V19.94A1.631,1.631,0,0,0,65.3,18.31H53.881a1.631,1.631,0,1,0,0,3.262h9.786v9.786h-42.4V21.571h26.1a1.631,1.631,0,1,0,0-3.262H19.631A1.631,1.631,0,0,0,18,19.94V59.083a1.631,1.631,0,0,0,1.631,1.631h6.524a1.631,1.631,0,0,0,0-3.262H21.262V47.667h42.4v9.786H32.679a1.631,1.631,0,1,0,0,3.262h4.893v3.262H27.786a1.631,1.631,0,0,0-1.631,1.631v1.631H21.262a1.631,1.631,0,1,0,0,3.262h4.893v1.631a1.631,1.631,0,0,0,1.631,1.631H58.774A1.631,1.631,0,0,0,60.4,72.131V70.5h16.61a4.881,4.881,0,1,0,6.224-6.224V40.817l3.3-3.3a1.631,1.631,0,0,0,0-2.306l-3.179-3.177c.1-.227.194-.452.284-.678h4.492a1.631,1.631,0,0,0,1.631-1.631V19.94A1.631,1.631,0,0,0,88.131,18.31ZM21.262,44.4V34.619h42.4V44.4ZM57.143,70.5H29.417V67.238H39.2a1.631,1.631,0,0,0,1.631-1.631V60.714H44.1v4.893a1.631,1.631,0,0,0,1.631,1.631H57.143Zm24.464,0a1.631,1.631,0,1,1,1.631-1.631A1.631,1.631,0,0,1,81.607,70.5Z" transform="translate(8.095 -2)" fill="#600d0d"/><path d="M50.684,24.327a1.631,1.631,0,1,0,1.957,2.6,9.712,9.712,0,0,0,0-15.576,1.634,1.634,0,0,0-1.967,2.61,6.452,6.452,0,0,1,0,10.373Z" transform="translate(28.254 3.693)" fill="#600d0d"/></g></g></svg>