<svg xmlns="http://www.w3.org/2000/svg" width="81.434" height="97.742" viewBox="0 0 81.434 97.742"><g transform="translate(-2 -1.972)"><g transform="translate(2 1.972)"><path d="M50.141,42H43.628a1.628,1.628,0,1,0,0,3.257h6.513a1.628,1.628,0,1,0,0-3.257Z" transform="translate(23.131 23.176)" fill="#600d0d"/><path d="M52.026,46h-11.4a1.628,1.628,0,1,0,0,3.257h11.4a1.628,1.628,0,0,0,0-3.257Z" transform="translate(21.246 25.689)" fill="#600d0d"/><path d="M9.628,45.257h6.513a1.628,1.628,0,1,0,0-3.257H9.628a1.628,1.628,0,1,0,0,3.257Z" transform="translate(1.77 23.176)" fill="#600d0d"/><path d="M19.026,46H7.628a1.628,1.628,0,1,0,0,3.257h11.4a1.628,1.628,0,1,0,0-3.257Z" transform="translate(0.513 25.689)" fill="#600d0d"/><path d="M78.529,31.326H74.2A32.24,32.24,0,0,0,68.141,19.2L71.1,16.672l10.909-1.628a1.633,1.633,0,0,0,.521-3.077L76.51,8.937,73.482,2.913a1.628,1.628,0,0,0-3.094.5l-1.547,10.8-2.849,2.54A32.566,32.566,0,0,0,11.216,31.326H6.885A4.885,4.885,0,0,0,2,36.211V78.547a4.885,4.885,0,0,0,4.885,4.885H26.636l-4.348,6.513H18.283A4.885,4.885,0,0,0,13.4,94.829v3.257a1.628,1.628,0,0,0,1.628,1.628H70.388a1.628,1.628,0,0,0,1.628-1.628V94.829a4.885,4.885,0,0,0-4.885-4.885H63.126l-4.348-6.513H78.529a4.885,4.885,0,0,0,4.885-4.885V36.211A4.885,4.885,0,0,0,78.529,31.326ZM72.9,9.035l.928,1.856a1.531,1.531,0,0,0,.716.716l1.856.928-4.087.586ZM42.707,10.159A29.179,29.179,0,0,1,63.549,18.9l-3.664,3.257a24.815,24.815,0,1,0,2.149,2.459L65.7,21.361a29.309,29.309,0,1,1-22.991-11.2ZM55.733,39.468A13.026,13.026,0,1,1,51.3,29.7l-3.712,3.257A8.272,8.272,0,1,0,49.741,35.4l3.729-3.257a12.88,12.88,0,0,1,2.263,7.327Zm-8.141,0a4.951,4.951,0,1,1-2.524-4.25l-3.436,3.029a1.627,1.627,0,0,0,2.149,2.442l3.452-3.045a4.885,4.885,0,0,1,.358,1.824Zm6.171-11.919a16.413,16.413,0,1,0,2.149,2.442l3.68-3.257a21,21,0,1,1-2.149-2.459Zm15,67.281v1.628H16.655V94.829A1.628,1.628,0,0,1,18.283,93.2H67.131A1.628,1.628,0,0,1,68.76,94.829ZM59.2,89.945H26.213l4.348-6.513H54.854Zm20.956-11.4a1.628,1.628,0,0,1-1.628,1.628H6.885a1.628,1.628,0,0,1-1.628-1.628V36.211a1.628,1.628,0,0,1,1.628-1.628h3.664a32.24,32.24,0,0,0-.407,4.885,32.566,32.566,0,0,0,65.131,0,32.238,32.238,0,0,0-.407-4.885h3.664a1.628,1.628,0,0,1,1.628,1.628Z" transform="translate(-2 -1.972)" fill="#600d0d"/></g></g></svg>