<svg xmlns="http://www.w3.org/2000/svg" width="103.258" height="98.095" viewBox="0 0 103.258 98.095"><g transform="translate(0 0)"><path d="M49.721,232A1.721,1.721,0,0,0,48,233.721v27.536a1.721,1.721,0,0,0,3.442,0V233.721A1.721,1.721,0,0,0,49.721,232Zm0,0" transform="translate(-37.674 -182.092)" fill="#600d0d"/><path d="M24.851,36.14a1.721,1.721,0,0,0,1.721-1.721,1.485,1.485,0,0,0-.1-.55,1.72,1.72,0,0,0-1.48-1.205,8.605,8.605,0,0,1-7.779-7.917.648.648,0,0,0,0-.189v-.189a1.51,1.51,0,0,1,0-.276v-8.6h7.056a1.721,1.721,0,1,0,0-3.442H15.489a1.721,1.721,0,0,0-1.721,1.721v7.675a10.325,10.325,0,0,1-3.442-7.675V3.442H30.978a10.325,10.325,0,0,1,8.467,4.423A1.721,1.721,0,0,0,42.268,5.9,13.767,13.767,0,0,0,30.978,0H10.326A3.442,3.442,0,0,0,6.884,3.442V13.768a13.768,13.768,0,0,0,6.987,12.047A12.049,12.049,0,0,0,17.313,32.7H12.047A12.046,12.046,0,0,0,0,44.745V79.165a1.721,1.721,0,0,0,3.442,0V44.745a8.605,8.605,0,0,1,8.6-8.6Zm0,0" transform="translate(0 0)" fill="#600d0d"/><path d="M93.158,192.191l-1.239-4.749h5.611a1.721,1.721,0,0,0,0-3.442H89.716a1.708,1.708,0,0,0-1.67,2.134l1.721,6.884a1.745,1.745,0,0,0,3.391-.827Zm0,0" transform="translate(-69.064 -144.418)" fill="#600d0d"/><path d="M417.721,232A1.721,1.721,0,0,0,416,233.721v27.536a1.721,1.721,0,0,0,3.442,0V233.721A1.721,1.721,0,0,0,417.721,232Zm0,0" transform="translate(-326.509 -182.092)" fill="#600d0d"/><path d="M322.915,33.869V17.209A17.209,17.209,0,0,0,305.705,0h-3.442a17.212,17.212,0,0,0-13.148,6.144,1.721,1.721,0,1,0,2.634,2.2,13.767,13.767,0,0,1,10.515-4.9h3.442a13.767,13.767,0,0,1,13.768,13.768V32.818a7.013,7.013,0,0,1-1.187-.1h-5.851a12.046,12.046,0,0,0,3.6-8.622V13.767a1.721,1.721,0,0,0-1.721-1.721H301.368a1.721,1.721,0,0,0,0,3.442h11.221v8.6a8.605,8.605,0,0,1-7.779,8.6,1.72,1.72,0,0,0-1.48,1.205,1.485,1.485,0,0,0-.1.55,1.721,1.721,0,0,0,1.721,1.721h4.715l-6.539,11.754a1.726,1.726,0,0,0,3.012,1.687L313.6,36.14h4.527a8.43,8.43,0,0,1,2.495.482h.138a8.606,8.606,0,0,1,5.593,8.123V79.164a1.721,1.721,0,0,0,3.442,0V44.745a12.046,12.046,0,0,0-6.884-10.876Zm0,0" transform="translate(-226.54)" fill="#600d0d"/><path d="M155.024,93.861h-5.765a15.483,15.483,0,0,0,5.352-8.519,13.768,13.768,0,0,0,7.3-12.132V69.768A13.767,13.767,0,0,0,148.14,56H120.6a3.442,3.442,0,0,0-3.442,3.442V73.21a13.768,13.768,0,0,0,7.3,12.132,15.483,15.483,0,0,0,5.352,8.519h-5.765A12.046,12.046,0,0,0,112,105.908v34.419a1.721,1.721,0,0,0,3.442,0V105.908a8.605,8.605,0,0,1,8.6-8.6h30.977a8.605,8.605,0,0,1,8.6,8.6v34.419a1.721,1.721,0,0,0,3.442,0V105.908A12.046,12.046,0,0,0,155.024,93.861ZM120.6,73.21V59.442H148.14a10.326,10.326,0,0,1,10.326,10.326V73.21a10.325,10.325,0,0,1-3.442,7.675V68.047a1.721,1.721,0,0,0-1.721-1.721H125.768a1.721,1.721,0,0,0-1.721,1.721V80.885A10.325,10.325,0,0,1,120.6,73.21ZM127.7,84.086a.648.648,0,0,0,0-.189,14.461,14.461,0,0,1-.207-1.824v-12.3h24.094v12.3a14.752,14.752,0,0,1-.189,1.824.6.6,0,0,0,0,.189,12.047,12.047,0,0,1-23.681,0Zm0,0" transform="translate(-87.906 -43.954)" fill="#600d0d"/><path d="M220.437,263.763a1.722,1.722,0,0,0-2.083,1.256l-1.393,5.628h-4.2l-1.342-5.576a1.721,1.721,0,1,0-3.339.827l1.721,6.608L207.977,291.8a1.721,1.721,0,0,0,.585,1.445l5.163,4.509a1.722,1.722,0,0,0,2.272,0l5.163-4.509a1.721,1.721,0,0,0,.585-1.445l-1.721-19.292,1.721-6.608a1.721,1.721,0,0,0-1.308-2.134Zm-5.576,30.409-3.442-2.874,1.514-17.21h3.718L218.3,291.3Zm0,0" transform="translate(-163.232 -206.972)" fill="#600d0d"/><path d="M161.721,312A1.721,1.721,0,0,0,160,313.721v27.536a1.721,1.721,0,1,0,3.442,0V313.721A1.721,1.721,0,0,0,161.721,312Zm0,0" transform="translate(-125.58 -244.882)" fill="#600d0d"/><path d="M305.721,312A1.721,1.721,0,0,0,304,313.721v27.536a1.721,1.721,0,1,0,3.442,0V313.721A1.721,1.721,0,0,0,305.721,312Zm0,0" transform="translate(-238.603 -244.882)" fill="#600d0d"/></g></svg>