<svg xmlns="http://www.w3.org/2000/svg" xmlns:xlink="http://www.w3.org/1999/xlink" width="97" height="35" viewBox="0 0 97 35">
  <defs>
    <clipPath id="clip-path">
      <rect width="97" height="35" fill="none"/>
    </clipPath>
  </defs>
  <g id="Separator" clip-path="url(#clip-path)">
    <g id="Separator-2" data-name="Separator" transform="translate(-198 -946)">
      <g id="pawn" transform="translate(185.994 945.999)">
        <path id="Path_191" data-name="Path 191" d="M12.553,35H33.328a.546.546,0,0,0,.547-.547V32.813a.546.546,0,0,0-.547-.547h-.544V31.23c0-.015.009-.029.009-.045a9.857,9.857,0,0,0-5.479-8.818V15.313a.547.547,0,0,0,0-1.094v-.545a.547.547,0,0,0,0-1.094V10.134a6.016,6.016,0,1,0-8.748,0V12.58h0a.547.547,0,1,0,0,1.094h0v.545h0a.547.547,0,0,0,0,1.094h0v7.056a9.857,9.857,0,0,0-5.476,8.816c0,.016.008.03.009.045v1.037h-.547a.546.546,0,0,0-.547.547v1.641a.546.546,0,0,0,.547.547ZM22.941,1.095a4.922,4.922,0,1,1-3.432,8.443c-.009-.01-.019-.018-.029-.026a4.919,4.919,0,0,1,3.461-8.417Zm-3.28,9.958a5.982,5.982,0,0,0,6.561,0V12.58H19.66Zm0,2.621h6.561v.545H19.66Zm0,1.639h6.561V21.9a9.665,9.665,0,0,0-6.561,0ZM14.186,31.148a8.756,8.756,0,0,1,17.513,0c0,.013-.008.023-.008.036v1.082h-17.5V31.184C14.194,31.171,14.187,31.161,14.186,31.148ZM13.1,33.36H32.781v.547H13.1Z" fill="#AC1AFF"/>
      </g>
      <g id="soccer-ball-variant" transform="translate(240 946)">
        <path id="Path_192" data-name="Path 192" d="M10.915,1.281A17.5,17.5,0,0,0,5.126,29.874a17.486,17.486,0,0,0,24.749,0,17.486,17.486,0,0,0,0-24.749,17.524,17.524,0,0,0-18.96-3.844ZM4.374,24.867a12.012,12.012,0,0,1-2.307-1.856,16.5,16.5,0,0,1-.532-9.194,14.7,14.7,0,0,1,1.121-1.86c.13-.183.251-.374.39-.552l3.949,2.337v.1a30.421,30.421,0,0,0,.635,6.311c0,.01,0,.015,0,.024l-3.063,4.8C4.5,24.945,4.438,24.908,4.374,24.867Zm11.742,8.119a15.037,15.037,0,0,0,2.1.88,16.412,16.412,0,0,1-8.879-2.151l6.62,1.18C16.01,32.927,16.062,32.958,16.116,32.986Zm-.024-1.2L8.28,30.4a24.4,24.4,0,0,1-2.443-3.539c-.18-.319-.381-.629-.533-.962l3.06-4.8c.068.017.143.035.229.058a50.776,50.776,0,0,0,5.824,1.162c.115.016.21.03.292.039L18.376,28.7q-.955,1.342-1.938,2.665C16.329,31.51,16.213,31.651,16.092,31.791Zm13-2.7a16.279,16.279,0,0,1-1.973,1.683,15,15,0,0,0-.591-2.69l3.913-7.3a18.281,18.281,0,0,0,3.083-1.738,1.379,1.379,0,0,0,.312-.3A16.307,16.307,0,0,1,29.09,29.089Zm-.174-9.468c.146.278.289.558.433.842l-3.78,7.051c-.022,0-.043.01-.064.013a34.478,34.478,0,0,1-6.18.594L15.553,21.6q.881-1.635,1.746-3.279c.392-.743.777-1.491,1.161-2.238l7.807-.8A43.58,43.58,0,0,1,28.916,19.621Zm-1.584-8.364c-.37.978-.767,1.947-1.161,2.917l-7.605.781c-.091-.12-.185-.238-.284-.351q-1.347-1.526-2.7-3.041c.008-.01.016-.018.025-.027l-1.093-1.092,2.117-6.375a2.969,2.969,0,0,1,.442-.087c1.151-.117,2.3-.25,3.457-.316a16.816,16.816,0,0,1,2.136-.012l5.239,5.9C27.718,10.128,27.542,10.7,27.332,11.257ZM29.09,5.91a16.318,16.318,0,0,1,3.355,4.859,16.636,16.636,0,0,0-3.126-1.68c-.171-.071-.347-.133-.525-.194L23.638,3.084a6.817,6.817,0,0,0,.062-.756A16.312,16.312,0,0,1,29.09,5.91ZM12.252,2.022c.02.015.03.028.042.031a13.107,13.107,0,0,1,3.262,1.718L13.577,9.728a.213.213,0,0,0-.03.01c-.4.167-.817.317-1.216.5A34.871,34.871,0,0,0,7.581,12.8l-3.9-2.309a1.18,1.18,0,0,1,.068-.356c.262-.7.52-1.4.816-2.085a15.634,15.634,0,0,1,.772-1.534c.186-.205.378-.408.576-.606a16.293,16.293,0,0,1,6.377-3.947C12.276,1.982,12.264,2,12.252,2.022Z" fill="#AC1AFF"/>
      </g>
    </g>
  </g>
</svg>
