<svg xmlns="http://www.w3.org/2000/svg" width="156.616" height="24" viewBox="0 0 156.616 24"><path d="M184.654,220.373a19.706,19.706,0,0,0-13.036,4.888A4.232,4.232,0,0,0,170.1,222.3a4,4,0,0,0-3.137-.881,4.1,4.1,0,0,1,3.121,2.517,3.728,3.728,0,0,1-.714,3.608,14.2,14.2,0,0,0-3.488,9.293c-.8-.944-1.591-1.888-2.448-2.811a7.853,7.853,0,0,1-1.591-1.909,2.812,2.812,0,0,1-.386-2.422,2.716,2.716,0,0,1,1.651-1.773c-1.775-.357-2.856,1.384-2.876,3.042a11.349,11.349,0,0,0-9.486-2.349,8.064,8.064,0,0,0-6.467,6.482,6.463,6.463,0,0,0-5.386-2.308,10.437,10.437,0,0,0-7.365,4.2c-1,1.091-1.918,2.287-2.917,3.377a6.117,6.117,0,0,1-3.2,2.245,2.673,2.673,0,0,1-3.019-1.531,1.915,1.915,0,0,1,.009-1.573,1.829,1.829,0,0,1,1.174-1.008c-1.489-.357-2.366,1.28-2.183,2.622a3.441,3.441,0,0,0,3.631,2.748c3.407,0,5.733-4.2,7.813-6.44s5.692-4.51,9.017-2.727c2.876,1.552,3.162,6.461-.184,7.636a2.846,2.846,0,0,1-2.463-.171,3,3,0,0,1-1.453-2.052,2.314,2.314,0,0,1,.959-2.287c.53,1.049,1.51.692,2.183,0s1.428-.524,1.306.441c.245-1.888-2.04-2.664-3.488-2.1a3.687,3.687,0,0,0-2.407,3.482,4.314,4.314,0,0,0,3.346,4.2,4.96,4.96,0,0,0,5.529-3.251c2.815,4.657,10.363,4.447,11.547-1.468a5.2,5.2,0,0,0-3.325-6.02c-1.918-.608-4.9.378-4.753,2.874a1.011,1.011,0,0,1,1.02-.965c.408,0,.653.441.938.671a1.687,1.687,0,0,0,1.618.583,1.729,1.729,0,0,0,1.3-1.15,3.832,3.832,0,0,1,1.755,2.9,3.876,3.876,0,0,1-1.2,3.183,4.752,4.752,0,0,1-5.855.482c-4.3-2.622-3.06-9.356,1.183-11.244,5.243-2.349,9.976,1.007,13.444,4.867,3.162,3.524,7.059,10.174,12.607,8.391a4.269,4.269,0,0,0,2.647-2.2,4.475,4.475,0,0,0,.229-3.489,2.914,2.914,0,0,0-2.836-1.867,2.326,2.326,0,0,0-1.693.9c0,.126-.653,1.217-.408,1.3a2.078,2.078,0,0,1,1.336-1.534,2,2,0,0,1,1.969.381,2.912,2.912,0,0,1,0,3.923c-2.693,3.4-8.16.147-9.2-3.293s.938-7.027,3-9.545a18.338,18.338,0,0,1,8.16-5.6c6.12-2.1,14.28-.9,17.034,5.916a9.281,9.281,0,0,1-.714,8.852,8.041,8.041,0,0,1-8.283,3.042,6.147,6.147,0,0,1-3.971-3.145,6.453,6.453,0,0,1-.354-5.141c1.326-3.377,6.589-4.867,8.4-1.049-1.9,0-2.428,1.993-1.571,3.377.245.42.653.818.571,1.322a1.217,1.217,0,0,1-.533.778,1.156,1.156,0,0,1-.915.145c2.2.692,4.427-1.8,4.3-3.944a5.577,5.577,0,0,0-3.856-5.139c-5.223-1.573-9.364,3.9-7.895,8.894s7.426,6.776,11.853,4.615a10,10,0,0,0,4.61-12.23,13.2,13.2,0,0,0-12.689-8.6Z" transform="translate(-121.368 -220.367)" fill="#ffbb87"/><path d="M234.894,239.656a1.785,1.785,0,0,0-2.04-1.112,1.849,1.849,0,0,1,1.177,1.006,1.936,1.936,0,0,1,.026,1.574,2.676,2.676,0,0,1-2.9,1.552,5.848,5.848,0,0,1-3.325-2.265c-1.02-1.091-1.918-2.286-2.917-3.377a10.626,10.626,0,0,0-7.2-4.195,6.54,6.54,0,0,0-5.549,2.307,8.084,8.084,0,0,0-6.467-6.481,11.41,11.41,0,0,0-9.507,2.349c0-1.657-1.081-3.4-2.876-3.041a2.715,2.715,0,0,1,1.663,1.767,2.811,2.811,0,0,1-.378,2.428,9.415,9.415,0,0,1-1.591,1.909c-.857.923-1.652,1.867-2.468,2.81a14.065,14.065,0,0,0-3.468-9.291,3.77,3.77,0,0,1-.734-3.607,4.1,4.1,0,0,1,3.142-2.517,4,4,0,0,0-3.137.88,4.232,4.232,0,0,0-1.515,2.958,18.5,18.5,0,0,0-18.2-3.922,12.3,12.3,0,0,0-7.936,13.129,9.572,9.572,0,0,0,4.709,6.664,9.1,9.1,0,0,0,8,.446c5.263-2.454,6.3-10.906.551-13.465a5.762,5.762,0,0,0-7.63,2.706,4.6,4.6,0,0,0,0,4.195,3.481,3.481,0,0,0,3.754,1.888,1.22,1.22,0,0,1-1.428-.839c-.122-.545.306-.965.571-1.405.836-1.384.306-3.461-1.571-3.377,1.53-3.251,6.12-2.685,7.834,0a6.4,6.4,0,0,1-1.775,8.389,7.7,7.7,0,0,1-8.731-.524,8.518,8.518,0,0,1-2.9-8.264c1.224-7.215,8.67-9.92,14.994-8.809s13.342,6.292,13.995,13.3a6.035,6.035,0,0,1-2.2,5.39,5.283,5.283,0,0,1-6.12,1.321,3.271,3.271,0,0,1-1.448-4.195c.877-1.531,3.57-1.384,3.733.587.184,0-.2-1.007-.265-1.07a2.191,2.191,0,0,0-1.346-1.049,2.781,2.781,0,0,0-3.04,1.237,4.269,4.269,0,0,0,1.183,5.516c5.1,3.586,9.629-2.475,12.607-5.977,3.407-4.006,7.426-8.159,13.077-7.047a6.631,6.631,0,0,1,5.263,4.363,6.426,6.426,0,0,1-1.2,6.544,4.979,4.979,0,0,1-6.467.818,3.94,3.94,0,0,1,0-6.5,1.748,1.748,0,0,0,1.311,1.147,1.707,1.707,0,0,0,1.626-.58c.286-.231.53-.629.938-.671a1.011,1.011,0,0,1,1.02.965c.143-2.622-3.04-3.524-4.978-2.79a5.192,5.192,0,0,0-3.08,6.061c1.285,5.81,8.731,5.956,11.526,1.342a4.96,4.96,0,0,0,5.508,3.251,4.292,4.292,0,0,0,3.366-4.195,3.686,3.686,0,0,0-2.407-3.482c-1.408-.5-3.733.273-3.488,2.1-.122-.965.857-.818,1.306-.44s1.652.944,2.183,0c1.877,1.216.8,4.069-1.061,4.593-3.386.944-5.2-3.23-3.835-5.915s5.569-2.936,8.017-1.426c2.856,1.762,4.57,4.845,7.018,7.089a4.975,4.975,0,0,0,4.651,1.552,3.02,3.02,0,0,0,2.151-1.519,3.181,3.181,0,0,0,.2-2.675Z" transform="translate(-78.402 -220.255)" fill="#ffbb87"/></svg>