<svg xmlns="http://www.w3.org/2000/svg" width="37.16" height="40.259" viewBox="0 0 37.16 40.259"><path d="M54.258,22.5a6.993,6.993,0,0,0,1.185-3.943,6.278,6.278,0,0,0-6.193-6.17H44.992a10.622,10.622,0,0,0,1.162-4.645,10.038,10.038,0,0,0-.847-4.5A5.317,5.317,0,0,0,42.839.786,8.264,8.264,0,0,0,39.186,0a3.069,3.069,0,0,0-2.177.9,5.817,5.817,0,0,0-1.5,2.613q-.46,1.6-.738,3.06a4.106,4.106,0,0,1-.859,2.068q-1.186,1.282-2.589,3.1a21.4,21.4,0,0,1-3.314,3.75H21.38a3.1,3.1,0,0,0-3.1,3.1V34.064a3.1,3.1,0,0,0,3.1,3.1h6.967a17.89,17.89,0,0,1,3.339.968q2.976,1.04,5.238,1.585a19.523,19.523,0,0,0,4.585.545h3.121A7.711,7.711,0,0,0,50.12,38.31,6.852,6.852,0,0,0,52.177,33a6.81,6.81,0,0,0,1.451-4.306,7.319,7.319,0,0,0-.072-1.04,6.948,6.948,0,0,0,.92-3.484A6.318,6.318,0,0,0,54.258,22.5Zm-30.241,11.1a1.519,1.519,0,1,1,.46-1.089A1.489,1.489,0,0,1,24.017,33.605Zm27.81-13.063q-.52,1.113-1.294,1.137a3.268,3.268,0,0,1,.6,1.149,4.35,4.35,0,0,1,.241,1.343A3.824,3.824,0,0,1,50.1,27.049a3.345,3.345,0,0,1,.436,1.669,4.075,4.075,0,0,1-.423,1.778,2.7,2.7,0,0,1-1.149,1.27,8.272,8.272,0,0,1,.121,1.355q0,4.04-4.646,4.04H41.509a26.729,26.729,0,0,1-8.274-1.766q-.121-.048-.7-.254l-.859-.3q-.278-.1-.847-.278t-.919-.266q-.351-.084-.8-.157a4.877,4.877,0,0,0-.762-.072h-.774V18.582h.774a2.08,2.08,0,0,0,.859-.218,4.089,4.089,0,0,0,.968-.653q.5-.436.931-.859a13.765,13.765,0,0,0,.968-1.064q.532-.641.835-1.028t.762-.992q.459-.6.556-.726,1.33-1.645,1.863-2.2a6.144,6.144,0,0,0,1.439-2.649q.448-1.609.737-3.036a4,4,0,0,1,.92-2.057q2.322,0,3.1,1.137a6.318,6.318,0,0,1,.774,3.508A9.882,9.882,0,0,1,41.9,11.626a9.869,9.869,0,0,0-1.161,3.859H49.25a3.209,3.209,0,0,1,3.1,3.1A4.755,4.755,0,0,1,51.827,20.542Z" transform="translate(-18.283 0)" fill="#fff"/></svg>