<svg xmlns="http://www.w3.org/2000/svg" viewBox="0 0 53.69 53.745"><defs><style>.a{fill:#fff;}</style></defs><g transform="translate(0 0)"><path class="a" d="M45.69,53.745H8a8.009,8.009,0,0,1-8-8V8A8.009,8.009,0,0,1,8,0H45.69a8.009,8.009,0,0,1,8,8V45.745A8.009,8.009,0,0,1,45.69,53.745Zm-28.9-26.719a2.461,2.461,0,0,0-2.183,1.4,2.322,2.322,0,0,0,.009,2.56,9.807,9.807,0,0,0,2.791,2.268,17.667,17.667,0,0,0,7.422,2.214l-1.686,1.688c-1.9,1.9-3.749,3.751-5.225,5.23l-1.03,1.032a2.44,2.44,0,0,0,0,3.446l.287.287a2.431,2.431,0,0,0,3.442,0l6.257-6.261,3.184,3.186.11.11,2.962,2.965a2.435,2.435,0,0,0,3.443,0l.287-.287a2.444,2.444,0,0,0,0-3.446L30.6,37.158l-1.691-1.693a17.6,17.6,0,0,0,7.371-2.208,9.806,9.806,0,0,0,2.791-2.268,2.323,2.323,0,0,0,.009-2.56,2.46,2.46,0,0,0-2.183-1.4,3.75,3.75,0,0,0-2.282.935c-2.948,2.326-7.724,2.353-7.772,2.353s-4.825-.027-7.772-2.353A3.754,3.754,0,0,0,16.791,27.026ZM26.847,5.879A10.627,10.627,0,1,0,37.463,16.506,10.634,10.634,0,0,0,26.847,5.879Zm0,15.855a5.228,5.228,0,1,1,5.223-5.228A5.232,5.232,0,0,1,26.847,21.734Z" transform="translate(0 0)"/></g></svg>