<?xml version="1.0" encoding="UTF-8" standalone="no"?>
<!DOCTYPE svg PUBLIC "-//W3C//DTD SVG 1.1//EN" "http://www.w3.org/Graphics/SVG/1.1/DTD/svg11.dtd">
<svg version="1.1" xmlns="http://www.w3.org/2000/svg" xmlns:xlink="http://www.w3.org/1999/xlink" preserveAspectRatio="xMidYMid meet" viewBox="0 0 640 640" width="640" height="640"><defs><path d="M560 0C613.33 0 640 26.67 640 80C640 368 640 528 640 560C640 613.33 613.33 640 560 640C272 640 112 640 80 640C26.67 640 0 613.33 0 560C0 272 0 112 0 80C0 26.67 26.67 0 80 0C368 0 528 0 560 0Z" id="c190L0zfg"></path><path d="M328.82 70.09L333.9 70.6L338.92 71.32L343.87 72.23L348.75 73.33L353.56 74.62L358.3 76.09L362.95 77.74L367.51 79.57L371.99 81.56L376.37 83.73L380.65 86.05L384.83 88.54L388.9 91.18L392.87 93.97L396.72 96.91L400.45 99.99L404.06 103.2L407.54 106.56L410.89 110.04L414.11 113.65L417.19 117.38L420.13 121.23L422.92 125.2L425.56 129.27L428.04 133.45L430.37 137.74L432.53 142.12L434.53 146.59L436.35 151.16L438.01 155.81L439.48 160.54L440.77 165.35L441.87 170.23L442.78 175.19L443.49 180.21L444.01 185.29L444.32 190.42L444.43 195.61L444.32 200.81L444.01 205.94L443.49 211.03L442.78 216.04L441.87 221L440.77 225.88L439.48 230.69L438.01 235.42L436.35 240.07L434.53 244.64L432.53 249.11L430.37 253.49L428.04 257.78L425.56 261.96L422.92 266.03L420.13 270L417.19 273.85L414.11 277.58L410.89 281.19L407.54 284.67L404.06 288.03L400.45 291.24L396.72 294.32L392.87 297.26L388.9 300.05L384.83 302.69L380.65 305.18L376.37 307.5L371.99 309.67L367.51 311.66L362.95 313.49L358.3 315.14L353.56 316.61L348.75 317.9L343.87 319L338.92 319.91L333.9 320.63L328.82 321.14L323.68 321.46L318.49 321.56L313.3 321.46L308.16 321.14L303.08 320.63L298.06 319.91L293.1 319L288.22 317.9L283.41 316.61L278.68 315.14L274.03 313.49L269.46 311.66L264.99 309.67L260.6 307.5L256.32 305.18L252.14 302.69L248.07 300.05L244.1 297.26L240.25 294.32L236.52 291.24L232.91 288.03L229.43 284.67L226.07 281.19L222.86 277.58L219.78 273.85L216.84 270L214.05 266.03L211.41 261.96L208.92 257.78L206.6 253.49L204.43 249.11L202.44 244.64L200.61 240.07L198.96 235.42L197.49 230.69L196.2 225.88L195.1 221L194.19 216.04L193.47 211.02L192.96 205.94L192.65 200.81L192.54 195.61L192.65 190.42L192.96 185.29L193.47 180.21L194.19 175.19L195.1 170.23L196.2 165.35L197.49 160.54L198.96 155.81L200.61 151.16L202.44 146.59L204.43 142.12L206.6 137.74L208.92 133.45L211.41 129.27L214.05 125.2L216.84 121.23L219.78 117.38L222.86 113.65L226.07 110.04L229.43 106.56L232.91 103.2L236.52 99.99L240.25 96.91L244.1 93.97L248.07 91.18L252.14 88.54L256.32 86.05L260.6 83.73L264.99 81.56L269.46 79.57L274.03 77.74L278.68 76.09L283.41 74.62L288.22 73.33L293.1 72.23L298.06 71.32L303.08 70.6L308.16 70.09L313.3 69.77L318.49 69.67L323.68 69.77L328.82 70.09ZM313.41 133.86L310.91 134.11L308.44 134.47L306 134.91L303.6 135.46L301.23 136.09L298.9 136.81L296.61 137.63L294.37 138.52L292.17 139.51L290.01 140.57L287.9 141.71L285.85 142.94L283.84 144.24L281.89 145.61L280 147.05L278.16 148.57L276.38 150.15L274.67 151.8L273.02 153.51L271.44 155.29L269.92 157.13L268.48 159.02L267.1 160.97L265.8 162.98L264.58 165.03L263.44 167.14L262.37 169.29L261.39 171.5L260.49 173.74L259.68 176.03L258.95 178.36L258.32 180.72L257.78 183.13L257.33 185.56L256.98 188.03L256.72 190.53L256.57 193.06L256.52 195.61L256.57 198.17L256.72 200.7L256.98 203.2L257.33 205.67L257.78 208.1L258.32 210.51L258.95 212.87L259.68 215.2L260.49 217.49L261.39 219.73L262.37 221.94L263.44 224.09L264.58 226.2L265.8 228.25L267.1 230.26L268.48 232.21L269.92 234.1L271.44 235.94L273.02 237.72L274.67 239.43L276.38 241.08L278.16 242.66L280 244.18L281.89 245.62L283.84 246.99L285.85 248.29L287.9 249.52L290.01 250.66L292.17 251.72L294.37 252.71L296.61 253.6L298.9 254.42L301.23 255.14L303.6 255.77L306 256.32L308.44 256.76L310.91 257.12L313.41 257.37L315.93 257.52L318.49 257.58L321.04 257.52L323.57 257.37L326.07 257.12L328.54 256.76L330.97 256.32L333.38 255.77L335.74 255.14L338.07 254.42L340.36 253.6L342.6 252.71L344.8 251.72L346.96 250.66L349.07 249.52L351.12 248.29L353.13 246.99L355.08 245.62L356.97 244.18L358.81 242.66L360.58 241.08L362.3 239.43L363.95 237.72L365.53 235.94L367.05 234.1L368.49 232.21L369.87 230.26L371.16 228.25L372.39 226.2L373.53 224.09L374.6 221.94L375.58 219.73L376.48 217.49L377.29 215.2L378.01 212.87L378.65 210.51L379.19 208.1L379.64 205.67L379.99 203.2L380.24 200.7L380.4 198.17L380.45 195.61L380.4 193.06L380.24 190.53L379.99 188.03L379.64 185.56L379.19 183.13L378.65 180.72L378.01 178.36L377.29 176.03L376.48 173.74L375.58 171.5L374.6 169.29L373.53 167.14L372.39 165.03L371.16 162.98L369.87 160.97L368.49 159.02L367.05 157.13L365.53 155.29L363.95 153.51L362.3 151.8L360.58 150.15L358.81 148.57L356.97 147.05L355.08 145.61L353.13 144.24L351.12 142.94L349.07 141.71L346.96 140.57L344.8 139.51L342.6 138.52L340.36 137.63L338.07 136.81L335.74 136.09L333.38 135.46L330.97 134.91L328.54 134.47L326.07 134.11L323.57 133.86L321.04 133.71L318.49 133.65L315.93 133.71L313.41 133.86Z" id="mEc1Fn0hv"></path><path d="M318.49 359.26C318.49 359.26 261.66 359.26 226.28 331.38C200.11 310.76 180.41 322.64 173.3 336.93C160.91 361.83 174.91 373.87 206.52 394.15C233.52 411.49 270.62 417.97 294.57 420.39C292.57 422.39 276.57 438.38 274.57 440.38C246.4 468.54 219.22 495.73 200.36 514.6C189.08 525.87 189.08 544.17 200.36 555.44C200.7 555.78 203.42 558.5 203.76 558.84C215.04 570.12 233.33 570.12 244.6 558.84C252.02 551.42 311.4 492.05 318.82 484.63C346.99 512.79 374.17 539.98 393.03 558.84C404.31 570.12 422.6 570.12 433.88 558.84C434.22 558.5 436.94 555.78 437.28 555.44C448.56 544.15 448.56 525.87 437.28 514.6C432.33 509.65 407.59 484.91 363.06 440.37C351.02 428.34 344.34 421.65 343 420.32C366.97 417.85 403.67 411.35 430.44 394.15C462.05 373.87 476.06 361.83 463.66 336.93C456.56 322.64 436.85 310.76 410.69 331.38C375.31 359.26 336.93 353.69 318.49 359.26Z" id="a5Xx4TzNsP"></path></defs><g><g><g><use xlink:href="#c190L0zfg" opacity="1" fill="#ff6636" fill-opacity="1"></use><g><use xlink:href="#c190L0zfg" opacity="1" fill-opacity="0" stroke="#000000" stroke-width="1" stroke-opacity="0"></use></g></g><g><use xlink:href="#mEc1Fn0hv" opacity="1" fill="#ffffff" fill-opacity="1"></use><g><use xlink:href="#mEc1Fn0hv" opacity="1" fill-opacity="0" stroke="#000000" stroke-width="1" stroke-opacity="0"></use></g></g><g><use xlink:href="#a5Xx4TzNsP" opacity="1" fill="#ffffff" fill-opacity="1"></use><g><use xlink:href="#a5Xx4TzNsP" opacity="1" fill-opacity="0" stroke="#000000" stroke-width="1" stroke-opacity="0"></use></g></g></g></g></svg>