<svg xmlns="http://www.w3.org/2000/svg" viewBox="0 0 53.759 53.759"><defs><style>.a{fill:#fff;}</style></defs><g transform="translate(0)"><path class="a" d="M29.777,29.628a6.234,6.234,0,0,0-3.033-.5h-3.2v6.586h2.933a6.04,6.04,0,0,0,3.407-.58,3.418,3.418,0,0,0,1.346-2.8A3.356,3.356,0,0,0,29.777,29.628ZM28.571,24a3.062,3.062,0,0,0,1.084-2.4,2.772,2.772,0,0,0-1.271-2.4c-.861-.5-2.434-.386-3.444-.386H23.548v5.8H25.39A5.059,5.059,0,0,0,28.571,24ZM44.309,0H9.449A9.449,9.449,0,0,0,0,9.45v34.86a9.45,9.45,0,0,0,9.449,9.45H44.309a9.451,9.451,0,0,0,9.45-9.45V9.45A9.45,9.45,0,0,0,44.309,0ZM28.338,40.619H17.355V14.112h12c3.476,0,6.683,2.213,6.683,6.115a5.64,5.64,0,0,1-3.828,5.718v.078c3.182.657,5.454,2.386,5.454,6.555C37.664,36.436,35.036,40.619,28.338,40.619Z"/></g></svg>