<svg xmlns="http://www.w3.org/2000/svg" width="81.792" height="88.007" viewBox="0 0 81.792 88.007"><g transform="translate(-0.252 0)"><path d="M66.755,320.451h-24.1a10.719,10.719,0,0,0-10.431-8.277H29.93a1.277,1.277,0,0,0-1.228.928l-2.792,9.841-1.992-3.557,1.652-5.274a1.277,1.277,0,0,0-1.218-1.659h-5.8a1.277,1.277,0,0,0-1.218,1.659l1.659,5.294-1.7,3.287-2.506-9.772a1.277,1.277,0,0,0-1.341-.955l-2.535.208A10.711,10.711,0,0,0,.3,323.9v17.895a1.277,1.277,0,0,0,1.277,1.277H57.636a1.278,1.278,0,0,0,1.163-.748l9.12-20.063a1.277,1.277,0,0,0-1.163-1.8Zm-44.142-5.445L21.6,318.249h-.289l-1.016-3.244Zm-19.765,8.7a8.157,8.157,0,0,1,8.117-8.979c.035,0,.07,0,.1,0l1.512-.124,3.069,11.968a1.277,1.277,0,0,0,2.333.338c.014-.023.026-.046.039-.07l3.126-6.033h.638l3.4,6.071a1.277,1.277,0,0,0,2.343-.276l3.368-11.871h1.327a8.166,8.166,0,0,1,7.788,5.724H35.748a1.277,1.277,0,0,0-1.162.747l-8.78,19.316H2.854v-16.68a1.263,1.263,0,0,0-.006-.128Zm53.965,16.809h-28.2l7.959-17.51h28.2Zm0,0" transform="translate(0 -255.062)" fill="#e81564"/><path d="M69.091,196.2a10.369,10.369,0,0,0,10.356-10.356v-3.631a10.356,10.356,0,1,0-20.712,0v3.631A10.368,10.368,0,0,0,69.091,196.2Zm-7.8-13.987a7.8,7.8,0,1,1,15.6,0v3.631a7.8,7.8,0,0,1-15.6,0Zm0,0" transform="translate(-47.816 -140.514)" fill="#e81564"/><path d="M226.932,0a22.254,22.254,0,0,0-11.157,41.507v6.176a1.277,1.277,0,0,0,1.956,1.082l6.969-4.371c.737.073,1.486.11,2.233.11a22.252,22.252,0,1,0,0-44.5Zm0,41.951a19.872,19.872,0,0,1-2.383-.142,1.279,1.279,0,0,0-.831.186l-5.39,3.381V40.758a1.278,1.278,0,0,0-.675-1.126,19.7,19.7,0,1,1,9.279,2.319Zm0,0" transform="translate(-167.141)" fill="#e81564"/><path d="M289.608,127.215H274.3a1.277,1.277,0,1,0,0,2.554h15.308a1.277,1.277,0,1,0,0-2.554Zm0,0" transform="translate(-223.02 -104.012)" fill="#e81564"/><path d="M273.7,89.769h10.056a1.277,1.277,0,1,0,0-2.554H273.7a1.277,1.277,0,0,0,0,2.554Zm0,0" transform="translate(-222.528 -71.308)" fill="#e81564"/></g></svg>