<svg xmlns="http://www.w3.org/2000/svg" width="93.945" height="74.006" viewBox="0 0 93.945 74.006"><g transform="translate(0)"><path d="M92.377,57.134h-2.65V9.41A9.354,9.354,0,0,0,80.463,0H13.481A9.354,9.354,0,0,0,4.218,9.41V57.134H1.568A1.509,1.509,0,0,0,0,58.6V64.6a9.439,9.439,0,0,0,9.364,9.41H84.581a9.439,9.439,0,0,0,9.364-9.41V58.6a1.509,1.509,0,0,0-1.568-1.468ZM7.285,9.41a6.283,6.283,0,0,1,6.2-6.343H80.463a6.283,6.283,0,0,1,6.2,6.343V57.134h-4.6V9.859a1.57,1.57,0,0,0-1.492-1.615H13.379a1.57,1.57,0,0,0-1.492,1.615V57.134h-4.6ZM72.276,51.416a3.806,3.806,0,0,0-3.814-3.772l-.9,0a3.823,3.823,0,0,0-.562.053,3.445,3.445,0,0,0-3.444-3.214H61.862a3.442,3.442,0,0,0-1.01.151,3.452,3.452,0,0,0-2.841-1.493H56.3a3.387,3.387,0,0,0-.38.033c0-1.049.006-2.142.008-3.1H68.693a1.529,1.529,0,0,0,1.478-1.582V16.33a1.516,1.516,0,0,0-1.478-1.567H25.112a1.559,1.559,0,0,0-1.53,1.567V38.489a1.573,1.573,0,0,0,1.53,1.582H47.467c0,2.876,0,6.268,0,9.493a5.628,5.628,0,0,0-7.322-.1l-.786.6a1.567,1.567,0,0,0-.406,1.988l5.168,9.307H42.85a6.307,6.307,0,0,1-4.6-2.045l-1.582-1.7a1.52,1.52,0,0,0-1.128-.475H14.954V11.312H78.99V57.134H72.281v-.348c0-1.732,0-1.836-.005-5.371ZM55.941,35.331a3.711,3.711,0,0,0-3.814-3.7h-.84a3.889,3.889,0,0,0-1.871.419,3.878,3.878,0,0,0,.816-2.583V22.556c0-.526-.5-.878-1.246-.878s-1.246.345-1.246.878V29.47c0,.061,0,.119-.005.176,0,.031-.005.061-.008.091s0,.048-.007.07A1.155,1.155,0,0,1,46.4,30.88c-.9,0-1.342-.461-1.342-1.411V22.556c0-.526-.5-.878-1.246-.878s-1.246.345-1.246.878V29.47c0,2.367,1.362,3.67,3.834,3.67a4.686,4.686,0,0,0,2.1-.432,3.72,3.72,0,0,0-1.022,2.567c0,.513,0,1.152,0,1.727H26.65V17.83H67.1V37H55.938c0-.959,0-1.484,0-1.673ZM44.863,29.47c0,.063,0,.125.006.185C44.866,29.6,44.863,29.534,44.863,29.47Zm.019.318c0,.011,0,.023,0,.035C44.885,29.812,44.884,29.8,44.883,29.788ZM49.54,55a1.533,1.533,0,0,0,.995-1.438c0-6.116-.005-14.087.005-18.254,0-.449.388-.605.747-.605h.84c.359,0,.746.157.747.607,0,.279,0,1.514-.006,3.181,0,.007,0,0,0,.01s0,.007,0,.014c-.01,4.266,0,11.154,0,11.25,0,.071.046.138.046.206v.716a1.534,1.534,0,0,0,3.068,0V46.564c0-.211.108-.359.319-.359h1.71c.211,0,.464.148.464.359v5.464a1.534,1.534,0,1,0,3.068,0V47.906c0-.211.108-.359.319-.359h1.693c.211,0,.288.148.288.359v4.122a1.534,1.534,0,1,0,3.068,0v-.62c.192-.243.118-.452.237-.572a.547.547,0,0,1,.389-.128l.912,0a.728.728,0,0,1,.752.713c.009,3.526.012,3.6.008,5.323,0,.922,0,2.364-.005,5a5.924,5.924,0,0,1-5.866,5.928H54.572a5.925,5.925,0,0,1-5.124-3.072L42.272,51.7a2.546,2.546,0,0,1,3.385.374l2.188,2.5A1.532,1.532,0,0,0,49.54,55Zm41.337,9.6a6.367,6.367,0,0,1-6.3,6.343H9.364a6.367,6.367,0,0,1-6.3-6.343V60.2h31.8l1.126,1.217a9.352,9.352,0,0,0,6.859,3h2.978l.939,1.708a8.969,8.969,0,0,0,7.8,4.619H63.34a8.968,8.968,0,0,0,8.934-8.958c0-.583,0-1.2,0-1.587h18.6Zm0,0" fill="#e81564"/><path d="M177.331,119.028a2.66,2.66,0,0,0,.963-2.23c0-1.883-1.057-2.8-3.23-2.8h-2.851c-.721,0-1.138.218-1.2.613a.426.426,0,0,0-.013.1v9.6a1.181,1.181,0,0,0,1.213.995h3.132c2.021,0,3.133-1.257,3.133-3.536v-.311a2.488,2.488,0,0,0-1.147-2.438Zm-2.2-2.9a.824.824,0,0,1,.7.928c0,.646-.3.974-.894.974h-1.439v-1.917h1.424a1.394,1.394,0,0,1,.209.016Zm-.181,6.886h-1.453v-2.876h1.453c.786,0,1.04.3,1.04,1.242v.237C175.985,122.606,175.684,123.011,174.946,123.011Zm.392-4.854a1.145,1.145,0,0,1-.141.037A1.3,1.3,0,0,0,175.338,118.158Zm-.192.044a1.486,1.486,0,0,1-.216.016,1.611,1.611,0,0,0,.216-.016ZM175.1,123.2a1.536,1.536,0,0,1-.155.007c.055,0,.106,0,.156-.007Zm0,0" transform="translate(-138.216 -92.144)" fill="#e81564"/><path d="M277.554,123.541v-3.7l.013-.014a.382.382,0,0,0,.048-.056l3.061-5.284a.671.671,0,0,0,.1-.34c0-.7-.915-1.085-1.548-1.085a.859.859,0,0,0-.831.537l-2,3.787L274.4,113.6a.858.858,0,0,0-.849-.543c-.637,0-1.558.387-1.558,1.086a.851.851,0,0,0,.07.31l3.014,5.282a.227.227,0,0,0-.015.08v3.723c0,.587.627.893,1.246.893.734,0,1.246-.368,1.246-.893Zm0,0" transform="translate(-219.845 -91.382)" fill="#e81564"/></g></svg>