<svg xmlns="http://www.w3.org/2000/svg" width="87.907" height="87.907" viewBox="0 0 87.907 87.907"><g transform="translate(-0.464 0.005)"><path d="M217.1,158.184a1.48,1.48,0,0,0-1.481-1.481h-9.706V142.789a1.481,1.481,0,0,0-2.961,0V158.14a1.463,1.463,0,0,0,1.413,1.525h11.255A1.481,1.481,0,0,0,217.1,158.184Zm0,0" transform="translate(-165.012 -115.158)" fill="#e81564"/><path d="M80.907,47.574A40.5,40.5,0,1,0,48.043,80.439,23.256,23.256,0,1,0,80.907,47.574ZM40.993,78.09A37.566,37.566,0,1,1,78.559,40.523a38.028,38.028,0,0,1-.322,4.916,23.179,23.179,0,0,0-6.355-3.062c.037-.617.057-1.237.057-1.854A30.946,30.946,0,1,0,40.993,71.471c.617,0,1.237-.02,1.854-.057a23.171,23.171,0,0,0,3.063,6.355,38.035,38.035,0,0,1-4.916.321Zm.846-13.452a23.393,23.393,0,0,0,.32,3.846c-.388.016-.777.025-1.166.025A27.985,27.985,0,1,1,68.978,40.523c0,.388-.01.777-.027,1.166A23.27,23.27,0,0,0,41.839,64.638ZM65.107,84.944A20.306,20.306,0,1,1,85.414,64.638,20.306,20.306,0,0,1,65.107,84.944Zm0,0" transform="translate(0 0)" fill="#e81564"/><path d="M299.034,315.58c1.695-1.16,3.815-2.6,3.815-5.09,0-2.549-2.264-3.924-4.4-3.924-2.073,0-4.273,1.277-4.273,3.646,0,1.071.456,1.592,1.39,1.592,1.045,0,1.61-.591,1.61-1.148a1.175,1.175,0,0,1,1.3-1.3,1.19,1.19,0,0,1,1.314,1.222c0,1.066-1.291,2.01-2.651,3.008-1.565,1.15-3.189,2.337-3.189,3.914v1.8c0,.6.81.947,1.361.947H301.9c.513,0,.962-.584.962-1.314s-.441-1.277-.962-1.277h-4.8v-.151c0-.614.912-1.222,1.94-1.925Zm0,0" transform="translate(-239.162 -249.829)" fill="#e81564"/><path d="M360.273,314.467h-.787v-1.133c0-.711-.771-.962-1.481-.962s-1.481.252-1.481.962v1.133h-1.377l3.212-6.407a.917.917,0,0,0,.1-.37c0-.735-.995-1.176-1.536-1.176a1.394,1.394,0,0,0-1.285.8l-4.276,8.384a1.342,1.342,0,0,0-.159.621,1.034,1.034,0,0,0,1.055,1.113h4.266v1.829c0,.674.74.981,1.481.981s1.481-.307,1.481-.981v-1.829h.787c.5,0,.981-.762.981-1.481C361.254,315.261,360.948,314.467,360.273,314.467Zm0,0" transform="translate(-285.822 -249.786)" fill="#e81564"/></g></svg>