<svg xmlns="http://www.w3.org/2000/svg" width="89.61" height="88.461" viewBox="0 0 89.61 88.461"><path d="M83.669,47.6H79.441a6.326,6.326,0,0,0,.978-3.372v-.009a6.505,6.505,0,0,0-6.465-6.45,9.843,9.843,0,0,0-7.9,4.206V37.893a6.577,6.577,0,0,0,4.4-6.15V23.369a6.4,6.4,0,0,0-6.453-6.4h-9.2l.67-2.735a11.117,11.117,0,0,0-.927-7.82,10.712,10.712,0,0,0-5.916-5.173,11.187,11.187,0,0,0-13.4,4.9A11.623,11.623,0,0,0,25.588.5h-.033a11.185,11.185,0,0,0-6.264,1.963,11.018,11.018,0,0,0-4.384,11.752l.672,2.752H6.545A6.476,6.476,0,0,0,0,23.369v8.373a6.5,6.5,0,0,0,4.6,6.15V80.74a8.138,8.138,0,0,0,8.038,8.221h67.81a5.99,5.99,0,0,0,5.911-5.968V63.3h1.661a1.614,1.614,0,0,0,1.594-1.565V53.5a5.958,5.958,0,0,0-5.941-5.9ZM67.636,45.033c1.754-2.793,3.875-4.2,6.3-4.2a3.429,3.429,0,0,1,3.4,3.39A3.323,3.323,0,0,1,74,47.6H66.309a17.537,17.537,0,0,1,1.328-2.569Zm-27.043-25V35.157H29.87V20.03Zm0,18.19V49.152A5.988,5.988,0,0,0,38.678,53.5v8.234A1.568,1.568,0,0,0,40.219,63.3h.374V85.9H29.87V38.22Zm3.064,0h8.356a6.53,6.53,0,0,0-4.144,6v.009a6.323,6.323,0,0,0,.984,3.372H44.566a7.734,7.734,0,0,0-.91.089ZM63,43.01a12.075,12.075,0,0,0-5.815-4.79H63ZM50.958,44.223a3.439,3.439,0,0,1,3.395-3.4c4.153,0,6.554,4.295,7.628,6.784H54.294a3.322,3.322,0,0,1-3.336-3.379ZM67.4,23.369v8.373a3.394,3.394,0,0,1-3.389,3.414H43.657V20.03H64.011A3.332,3.332,0,0,1,67.4,23.369ZM44.833,3.653a8.113,8.113,0,0,1,2.781.463,7.958,7.958,0,0,1,4.892,9.376l-.856,3.475H36.764v-5a1,1,0,0,0-.033-.168h.01s0-.132,0-.2a8.253,8.253,0,0,1,8.1-7.942ZM17.879,13.494A7.951,7.951,0,0,1,21.007,5.02a8.159,8.159,0,0,1,4.548-1.457h.024a8.308,8.308,0,0,1,8.111,7.99c0,.123.01.289.01.412v5H18.738ZM3.064,31.742V23.369A3.409,3.409,0,0,1,6.545,20.03H26.807V35.157H6.545a3.472,3.472,0,0,1-3.481-3.414Zm4.6,49V38.22H26.807V85.9H12.634A5.072,5.072,0,0,1,7.659,80.74ZM47.85,85.9A2.928,2.928,0,0,1,45,82.993V63.3H57.251V85.9Zm12.465,0V63.3h7.659V85.9Zm22.977-2.9a2.924,2.924,0,0,1-2.847,2.9H71.037V63.3H83.292ZM86.547,60.24h-44.8V53.5a2.845,2.845,0,0,1,2.824-2.838h39.1A2.891,2.891,0,0,1,86.547,53.5Zm0,0" transform="translate(0 -0.5)" fill="#e81564"/></svg>