<svg xmlns="http://www.w3.org/2000/svg" width="95.577" height="70.693" viewBox="0 0 95.577 70.693"><path d="M90.8,35.086h-.072a4.638,4.638,0,0,0-2.4.694,4.826,4.826,0,0,0-2.729-2.2V9.172A9.019,9.019,0,0,0,76.67.121H12.835a9.1,9.1,0,0,0-9.016,9.05v45.4H1.482A1.449,1.449,0,0,0,0,56.052v5.712a9.01,9.01,0,0,0,8.913,9.05H80.595a8.941,8.941,0,0,0,7.281-3.788,11,11,0,0,0,7.688-10.665c0-2.52.005-4.418.007-5.95.005-4.159.007-5.741,0-10.314A4.917,4.917,0,0,0,90.8,35.086ZM6.877,9.171a6.037,6.037,0,0,1,5.959-5.993H76.67a5.959,5.959,0,0,1,5.868,5.993V33.687a3.929,3.929,0,0,0-.972.546,4.636,4.636,0,0,0-3.232-1.95V9.6a1.5,1.5,0,0,0-1.567-1.453H12.738A1.413,1.413,0,0,0,11.271,9.6V49.211a1.489,1.489,0,0,0,1.467,1.542h47.1l1.97,3.821h-6.16a1.5,1.5,0,0,0-1.124.467l-1.508,1.64a5.924,5.924,0,0,1-4.338,1.905H40.825a5.931,5.931,0,0,1-4.338-1.918L34.978,55.05a1.506,1.506,0,0,0-1.122-.475H6.877ZM56.148,43.65l2.1,4.046H14.328V11.2H75.277v9.983a4.746,4.746,0,0,0-8.825,2.664l-.018,17.721a6.25,6.25,0,0,0-4.341-2.22,6.167,6.167,0,0,0-4.611,1.621l-.952.793a1.533,1.533,0,0,0-.381,1.885ZM8.911,67.758a5.949,5.949,0,0,1-5.856-5.994V57.631H33.184l1.054,1.134a8.977,8.977,0,0,0,6.586,2.878h7.857a8.979,8.979,0,0,0,6.587-2.878l1.052-1.134H63.4l2.126,4.062a10.311,10.311,0,0,0,9.11,5.682h7.825a6.174,6.174,0,0,1-1.868.382ZM92.514,50.4c0,1.533,0,3.423-.007,5.945,0,4.4-3.3,7.978-7.349,7.978H74.638a7.29,7.29,0,0,1-6.4-4.062L59.43,43.328l.03-.026.059-.052a3.138,3.138,0,0,1,2.357-.851,3.225,3.225,0,0,1,2.273,1.21l2.625,3.2a1.528,1.528,0,0,0,2.71-.969L69.5,23.852a1.753,1.753,0,1,1,3.486,0V37.1c0,.049,0,.1,0,.146,0,.027,0,.054,0,.08v5.648a1.529,1.529,0,0,0,3.057,0V37.152a1.774,1.774,0,0,1,1.645-1.876h.077a1.873,1.873,0,0,1,1.717,1.972v5.186a1.528,1.528,0,1,0,3.057,0v-4.07a1.732,1.732,0,1,1,3.439,0V42.2a1.528,1.528,0,1,0,3.057,0V40.126a1.866,1.866,0,0,1,1.694-1.983H90.8A1.859,1.859,0,0,1,92.511,40.1c.01,4.567.007,6.142,0,10.3Zm0,0" transform="translate(0.002 -0.121)" fill="#e81564"/></svg>