<svg xmlns="http://www.w3.org/2000/svg" width="75.175" height="88" viewBox="0 0 75.175 88"><g transform="translate(-0.25)"><path d="M65.455,6.253h-3.5V2a2,2,0,0,0-4,0V6.273H17.63V2a2,2,0,0,0-4,0V6.273h-3.4A9.993,9.993,0,0,0,.25,16.261v61.75A9.993,9.993,0,0,0,10.239,88h55.2a9.993,9.993,0,0,0,9.989-9.989V16.242a9.989,9.989,0,0,0-9.969-9.989Zm5.993,71.738a6.01,6.01,0,0,1-5.993,5.993H10.239a6.01,6.01,0,0,1-5.993-5.993V16.242a6.01,6.01,0,0,1,5.993-5.993h3.4v3.1a2,2,0,0,0,4,0v-3.1H57.964v3.1a2,2,0,0,0,4,0v-3.1h3.5a6.01,6.01,0,0,1,5.993,5.993Zm0,0" fill="#e81564"/><path d="M70.7,209.71l-7.371,7.032-3.4-3.4a1.992,1.992,0,1,0-2.817,2.817l4.775,4.774a1.961,1.961,0,0,0,1.418.58,1.935,1.935,0,0,0,1.379-.56l8.77-8.39A1.985,1.985,0,1,0,70.7,209.71Zm0,0" transform="translate(-45.035 -167.358)" fill="#e81564"/><path d="M210.421,230.2H187.447a2,2,0,1,0,0,4h22.974a2,2,0,0,0,0-4Zm0,0" transform="translate(-148.201 -184.212)" fill="#e81564"/><path d="M70.7,109.71l-7.371,7.032-3.4-3.4a1.992,1.992,0,0,0-2.817,2.817l4.775,4.774a1.961,1.961,0,0,0,1.418.58,1.935,1.935,0,0,0,1.379-.56l8.77-8.39A1.985,1.985,0,1,0,70.7,109.71Zm0,0" transform="translate(-45.035 -87.335)" fill="#e81564"/><path d="M210.421,130.2H187.447a2,2,0,1,0,0,4h22.974a2,2,0,0,0,0-4Zm0,0" transform="translate(-148.201 -104.189)" fill="#e81564"/><path d="M70.7,309.71l-7.371,7.032-3.4-3.4a1.992,1.992,0,0,0-2.817,2.817l4.775,4.774a1.961,1.961,0,0,0,1.418.58,1.936,1.936,0,0,0,1.379-.56l8.77-8.39A1.985,1.985,0,1,0,70.7,309.71Zm0,0" transform="translate(-45.035 -247.381)" fill="#e81564"/><path d="M210.421,330.2H187.447a2,2,0,1,0,0,4h22.974a2,2,0,1,0,0-4Zm0,0" transform="translate(-148.201 -264.234)" fill="#e81564"/></g></svg>