<svg xmlns="http://www.w3.org/2000/svg" width="96.363" height="66.839" viewBox="0 0 96.363 66.839"><g transform="translate(0 -0.5)"><path d="M172.306,86.975a16.169,16.169,0,1,0-16.169-16.169A16.169,16.169,0,0,0,172.306,86.975Zm0-29.058a12.889,12.889,0,1,1-12.889,12.889A12.889,12.889,0,0,1,172.306,57.917Zm0,0" transform="translate(-124.124 -43.037)" fill="#e81564"/><path d="M94.723.5H1.64A1.643,1.643,0,0,0,0,2.143V65.7a1.643,1.643,0,0,0,1.64,1.643H94.723a1.643,1.643,0,0,0,1.64-1.643V2.143A1.643,1.643,0,0,0,94.723.5ZM3.28,55.038h89.8v2.87H3.28Zm0-51.257h89.8V51.757H3.28Zm0,60.278v-2.87h89.8v2.87Zm0,0" transform="translate(0 0)" fill="#e81564"/><path d="M70.21,110.651a7.941,7.941,0,1,0-7.941-7.941A7.941,7.941,0,0,0,70.21,110.651Zm0-12.6a4.66,4.66,0,1,1-4.66,4.66A4.66,4.66,0,0,1,70.21,98.049Zm0,0" transform="translate(-49.502 -74.941)" fill="#e81564"/><path d="M338.21,110.651a7.941,7.941,0,1,0-7.941-7.941A7.941,7.941,0,0,0,338.21,110.651Zm0-12.6a4.66,4.66,0,1,1-4.66,4.66A4.66,4.66,0,0,1,338.21,98.049Zm0,0" transform="translate(-262.555 -74.941)" fill="#e81564"/><path d="M36.644,72.467a1.639,1.639,0,0,0,1.327.677h70.6a1.639,1.639,0,0,0,1.327-.677l5.263-7.244a1.641,1.641,0,0,0,.313-.964V39.314a1.641,1.641,0,0,0-.313-.963L109.9,31.14a1.61,1.61,0,0,0-1.327-.642h-70.6a1.608,1.608,0,0,0-1.327.642l-5.3,7.227a1.618,1.618,0,0,0-.348.947V64.26a1.672,1.672,0,0,0,.348.963ZM34.28,39.847l4.527-6.069h68.926l4.458,6.069V63.726l-4.458,6.137H38.807L34.28,63.726Zm0,0" transform="translate(-24.644 -23.847)" fill="#e81564"/><path d="M213.673,94.968a2.221,2.221,0,0,1-2.219-2.218,1.64,1.64,0,0,0-3.28,0,5.508,5.508,0,0,0,3.654,5.18v.893a1.64,1.64,0,1,0,3.28,0v-.765a5.5,5.5,0,0,0-1.435-10.807,2.219,2.219,0,0,1-.255-4.423l.05,0a1.65,1.65,0,0,0,.226-.018,2.222,2.222,0,0,1,2.2,2.218,1.64,1.64,0,1,0,3.28,0,5.508,5.508,0,0,0-4.065-5.308V79.14a1.64,1.64,0,0,0-3.28,0v.711a5.5,5.5,0,0,0,1.845,10.68,2.219,2.219,0,1,1,0,4.438Zm0,0" transform="translate(-165.491 -61.213)" fill="#e81564"/></g></svg>