<svg xmlns="http://www.w3.org/2000/svg" width="86.195" height="85.561" viewBox="0 0 86.195 85.561"><g transform="translate(0 -0.345)"><path d="M116.757,37.4l0,.055a9.3,9.3,0,0,0,5.31,8.875l.035.017a6.255,6.255,0,0,1,2.833,2.725l.014.026a9.721,9.721,0,0,0,9.136,5.1l.058,0a6.652,6.652,0,0,1,3.933,1.023,9.972,9.972,0,0,0,10.575,0,6.652,6.652,0,0,1,3.933-1.023l.058,0a9.726,9.726,0,0,0,9.138-5.1l.009-.018a6.266,6.266,0,0,1,2.841-2.73l.028-.014a9.3,9.3,0,0,0,5.31-8.876l0-.052A5.952,5.952,0,0,1,171,33.716a9.153,9.153,0,0,0,0-10.35,5.952,5.952,0,0,1-1.037-3.688l0-.055a9.3,9.3,0,0,0-5.313-8.877l-.031-.016a6.249,6.249,0,0,1-2.829-2.715l-.018-.035a9.728,9.728,0,0,0-9.135-5.1l-.059,0a6.648,6.648,0,0,1-3.931-1.023h0a9.972,9.972,0,0,0-10.575,0,6.658,6.658,0,0,1-3.933,1.022l-.058,0a9.722,9.722,0,0,0-9.134,5.1L124.933,8a6.259,6.259,0,0,1-2.836,2.728l-.033.016a9.3,9.3,0,0,0-5.31,8.876l0,.052a5.949,5.949,0,0,1-1.036,3.688,9.153,9.153,0,0,0,0,10.351A5.948,5.948,0,0,1,116.757,37.4Zm1.606-12.217a9.175,9.175,0,0,0,1.6-5.692l0-.055a6.1,6.1,0,0,1,3.505-5.8l.027-.013a9.449,9.449,0,0,0,4.28-4.12l.016-.03a6.508,6.508,0,0,1,6.123-3.385l.056,0a9.832,9.832,0,0,0,5.816-1.512,6.745,6.745,0,0,1,7.154,0,9.854,9.854,0,0,0,5.815,1.512l.056,0a6.5,6.5,0,0,1,6.121,3.379l.021.04a9.448,9.448,0,0,0,4.276,4.115l.027.013a6.1,6.1,0,0,1,3.508,5.8l0,.057a9.174,9.174,0,0,0,1.6,5.691,5.927,5.927,0,0,1,0,6.705,9.183,9.183,0,0,0-1.6,5.693l0,.054a6.1,6.1,0,0,1-3.509,5.806l-.023.011a9.46,9.46,0,0,0-4.284,4.126l-.012.024a6.5,6.5,0,0,1-6.124,3.385l-.056,0a9.85,9.85,0,0,0-5.817,1.512,6.745,6.745,0,0,1-7.153,0,9.835,9.835,0,0,0-5.272-1.527q-.272,0-.545.015l-.056,0a6.5,6.5,0,0,1-6.125-3.388l-.016-.031a9.438,9.438,0,0,0-4.273-4.113l-.03-.015a6.1,6.1,0,0,1-3.508-5.8l0-.057a9.182,9.182,0,0,0-1.6-5.691,5.927,5.927,0,0,1,0-6.7Zm0,0" transform="translate(-91.225)" fill="#e81564"/><path d="M205.26,90.361a1.6,1.6,0,0,0,2.211-.512l19.011-30.455a1.605,1.605,0,1,0-2.723-1.7L204.748,88.15A1.6,1.6,0,0,0,205.26,90.361Zm0,0" transform="translate(-163.48 -45.231)" fill="#e81564"/><path d="M188.521,76.882c3.908,0,7.088-3.626,7.088-8.082s-3.18-8.081-7.088-8.081-7.087,3.625-7.087,8.081S184.613,76.882,188.521,76.882Zm0-12.954c2.138,0,3.878,2.185,3.878,4.872s-1.74,4.872-3.878,4.872-3.877-2.187-3.877-4.872S186.383,63.928,188.521,63.928Zm0,0" transform="translate(-145.038 -48.262)" fill="#e81564"/><path d="M267.684,148.6c0,4.456,3.179,8.081,7.087,8.081s7.088-3.626,7.088-8.081-3.179-8.081-7.087-8.081S267.684,144.14,267.684,148.6Zm10.965,0c0,2.686-1.74,4.872-3.878,4.872s-3.877-2.185-3.877-4.872,1.74-4.872,3.877-4.872S278.649,145.909,278.649,148.6Zm0,0" transform="translate(-213.987 -112.052)" fill="#e81564"/><path d="M85.987,275.162a8.106,8.106,0,0,0-10.7-3.263l-12.571,5.94a10.24,10.24,0,0,0-8.729-5.386l-11.6-.32a12.268,12.268,0,0,1-5.274-1.362l-1.181-.612a20.829,20.829,0,0,0-19.293.02L16.7,267.5a1.6,1.6,0,0,0-1.56-1.649l-12.725-.35a1.6,1.6,0,0,0-1.648,1.56L0,294.992a1.6,1.6,0,0,0,1.56,1.649l12.725.35h.045a1.606,1.606,0,0,0,1.6-1.561l.036-1.336,3.306-1.77a5.673,5.673,0,0,1,4.233-.463L43.251,297.4c.034.01.069.018.1.026a21.138,21.138,0,0,0,4.34.447,21.413,21.413,0,0,0,8.945-1.952,1.574,1.574,0,0,0,.2-.108L85.462,277.3a1.6,1.6,0,0,0,.526-2.138ZM3.254,293.476l.68-24.717,9.517.262-.681,24.718Zm51.939-.421A18.189,18.189,0,0,1,44.066,294.3l-19.688-5.525a8.87,8.87,0,0,0-6.615.723l-1.689.9.453-16.434a17.639,17.639,0,0,1,17.92-.956l1.181.612a15.492,15.492,0,0,0,6.663,1.721l11.6.32a7.037,7.037,0,0,1,6.69,5.608L43.3,280.794A1.6,1.6,0,0,0,43.21,284l19.076.525h.045a1.606,1.606,0,0,0,1.6-1.561,10.241,10.241,0,0,0-.155-2.082l12.892-6.092.038-.018a4.9,4.9,0,0,1,5.545.776Zm0,0" transform="translate(0 -211.969)" fill="#e81564"/></g></svg>