<svg xmlns="http://www.w3.org/2000/svg" width="87.5" height="87.5" viewBox="0 0 87.5 87.5"><path d="M81.667,125v2.917a2.916,2.916,0,0,1,2.917,2.917v43.75H2.917v-43.75a2.916,2.916,0,0,1,2.917-2.917V125A5.834,5.834,0,0,0,0,130.833v49.583a5.834,5.834,0,0,0,5.833,5.833H34.5L31,197.917h-3.29v2.917H59.792v-2.917H56.5L53,186.25H81.667a5.834,5.834,0,0,0,5.833-5.833V130.833A5.834,5.834,0,0,0,81.667,125Zm-28.21,72.917H34.043l3.5-11.667H49.957Zm31.127-17.5a2.916,2.916,0,0,1-2.917,2.917H5.833a2.916,2.916,0,0,1-2.917-2.917V177.5H84.583Zm0,0" transform="translate(0 -113.333)" fill="#e81564"/><path d="M93.75,5.833v52.5h2.917V5.833a2.916,2.916,0,0,1,2.917-2.917h58.333a2.916,2.916,0,0,1,2.917,2.917v52.5h2.917V5.833A5.834,5.834,0,0,0,157.917,0H99.583A5.834,5.834,0,0,0,93.75,5.833Zm0,0" transform="translate(-85)" fill="#e81564"/><path d="M156.25,62.5h2.917v2.917H156.25Zm0,0" transform="translate(-141.667 -56.667)" fill="#e81564"/><path d="M218.75,62.5h2.917v2.917H218.75Zm0,0" transform="translate(-198.333 -56.667)" fill="#e81564"/><path d="M281.25,62.5h2.917v2.917H281.25Zm0,0" transform="translate(-255 -56.667)" fill="#e81564"/><path d="M156.25,125h58.333v2.917H156.25Zm0,0" transform="translate(-141.667 -113.333)" fill="#e81564"/><path d="M173.75,190.417a2.916,2.916,0,0,0-2.917-2.917H159.167a2.916,2.916,0,0,0-2.917,2.917v8.75a2.916,2.916,0,0,0,2.917,2.917h11.667a2.916,2.916,0,0,0,2.917-2.917Zm-14.583,8.75v-8.75h11.667v8.75Zm0,0" transform="translate(-141.667 -170)" fill="#e81564"/><path d="M392.5,190.417a2.916,2.916,0,0,0-2.917-2.917H377.917A2.916,2.916,0,0,0,375,190.417v8.75a2.916,2.916,0,0,0,2.917,2.917h11.667a2.916,2.916,0,0,0,2.917-2.917Zm-14.583,8.75v-8.75h11.667v8.75Zm0,0" transform="translate(-340 -170)" fill="#e81564"/><path d="M611.25,190.417a2.916,2.916,0,0,0-2.917-2.917H596.667a2.916,2.916,0,0,0-2.917,2.917v8.75a2.916,2.916,0,0,0,2.917,2.917h11.667a2.916,2.916,0,0,0,2.917-2.917Zm-14.583,8.75v-8.75h11.667v8.75Zm0,0" transform="translate(-538.333 -170)" fill="#e81564"/><path d="M173.75,377.917A2.916,2.916,0,0,0,170.833,375H159.167a2.916,2.916,0,0,0-2.917,2.917v8.75a2.916,2.916,0,0,0,2.917,2.917h11.667a2.916,2.916,0,0,0,2.917-2.917Zm-14.583,8.75v-8.75h11.667v8.75Zm0,0" transform="translate(-141.667 -340)" fill="#e81564"/><path d="M392.5,377.917A2.916,2.916,0,0,0,389.583,375H377.917A2.916,2.916,0,0,0,375,377.917v8.75a2.916,2.916,0,0,0,2.917,2.917h11.667a2.916,2.916,0,0,0,2.917-2.917Zm-14.583,8.75v-8.75h11.667v8.75Zm0,0" transform="translate(-340 -340)" fill="#e81564"/><path d="M611.25,377.917A2.916,2.916,0,0,0,608.333,375H596.667a2.916,2.916,0,0,0-2.917,2.917v8.75a2.916,2.916,0,0,0,2.917,2.917h11.667a2.916,2.916,0,0,0,2.917-2.917Zm-14.583,8.75v-8.75h11.667v8.75Zm0,0" transform="translate(-538.333 -340)" fill="#e81564"/><path d="M173.75,568.333v-2.917a2.916,2.916,0,0,0-2.917-2.917H159.167a2.916,2.916,0,0,0-2.917,2.917v2.917h2.917v-2.917h11.667v2.917Zm0,0" transform="translate(-141.667 -510)" fill="#e81564"/><path d="M392.5,568.333v-2.917a2.916,2.916,0,0,0-2.917-2.917H377.917A2.916,2.916,0,0,0,375,565.417v2.917h2.917v-2.917h11.667v2.917Zm0,0" transform="translate(-340 -510)" fill="#e81564"/><path d="M611.25,568.333v-2.917a2.916,2.916,0,0,0-2.917-2.917H596.667a2.916,2.916,0,0,0-2.917,2.917v2.917h2.917v-2.917h11.667v2.917Zm0,0" transform="translate(-538.333 -510)" fill="#e81564"/></svg>