<svg xmlns="http://www.w3.org/2000/svg" viewBox="0 0 260.992 46.822"><defs><style>.a{fill:#fff;}.a,.b,.d,.e{stroke:#fff;}.a,.b,.c,.d{stroke-linecap:round;}.a,.b{stroke-linejoin:round;}.b,.c,.d,.e{fill:none;}.c{stroke:#707070;}</style></defs><g transform="translate(0.541 0.5)"><path class="a" d="M220.164,23.351H0L259.77,0,220.164,23.351h0Zm0,0L259.77,0,0,23.351Z" transform="translate(0 0)"/><path class="b" d="M9.585,45.641-8.68,23.1,9.585,0" transform="translate(250.185)"/><path class="c" d="M1372.5,518.5" transform="translate(-1120.884 -518.5)"/><line class="d" x2="39.606" y2="22.29" transform="translate(220.164 23.351)"/><line class="d" x1="259.77" y1="22.29" transform="translate(0 23.351)"/><line class="e" y1="3.05" x2="11.183" transform="translate(22.899 20.279)"/><line class="e" y1="5.083" x2="20.332" transform="translate(37.131 18.246)"/><line class="e" y1="8.133" x2="36.09" transform="translate(54.922 15.196)"/><line class="e" y1="11.183" x2="47.273" transform="translate(77.288 12.146)"/><line class="e" y1="14.232" x2="55.406" transform="translate(104.736 9.096)"/><line class="e" y1="17.282" x2="61.505" transform="translate(132.185 6.046)"/><line class="e" y1="21.349" x2="74.721" transform="translate(162.683 1.98)"/><line class="e" y1="20.332" x2="60.489" transform="translate(194.198 2.996)"/></g></svg>