<svg xmlns="http://www.w3.org/2000/svg" width="23.406" height="23.407" viewBox="0 0 23.406 23.407"><path d="M11.934,23.409H11.7c-1.835,0-3.53-.042-5.179-.143a6.923,6.923,0,0,1-3.99-1.51A6.405,6.405,0,0,1,.38,18.281,15.4,15.4,0,0,1,.027,14.6C.015,13.749,0,12.737,0,11.707s.015-2.047.026-2.9A15.4,15.4,0,0,1,.38,5.129,6.405,6.405,0,0,1,2.532,1.655,6.923,6.923,0,0,1,6.523.144C8.171.044,9.867,0,11.706,0s3.53.042,5.179.143a6.923,6.923,0,0,1,3.99,1.51,6.4,6.4,0,0,1,2.152,3.475,15.4,15.4,0,0,1,.353,3.677c.012.855.024,1.867.026,2.9v0c0,1.03-.015,2.042-.026,2.9a15.39,15.39,0,0,1-.353,3.677,6.4,6.4,0,0,1-2.152,3.475,6.923,6.923,0,0,1-3.99,1.51c-1.579.1-3.2.143-4.95.143ZM11.7,21.58c1.8,0,3.462-.041,5.072-.139a5.037,5.037,0,0,0,2.946-1.1,4.617,4.617,0,0,0,1.536-2.51,14.008,14.008,0,0,0,.3-3.25c.012-.849.024-1.854.026-2.874s-.015-2.025-.026-2.874a14.011,14.011,0,0,0-.3-3.25,4.617,4.617,0,0,0-1.536-2.51,5.039,5.039,0,0,0-2.946-1.1c-1.61-.1-3.267-.143-5.068-.139s-3.462.041-5.072.139a5.038,5.038,0,0,0-2.946,1.1,4.617,4.617,0,0,0-1.536,2.51,14.01,14.01,0,0,0-.3,3.25c-.012.85-.024,1.855-.026,2.876s.015,2.022.026,2.872a14.008,14.008,0,0,0,.3,3.25,4.617,4.617,0,0,0,1.536,2.51,5.039,5.039,0,0,0,2.946,1.1C8.244,21.538,9.9,21.584,11.7,21.58Zm-.044-4.16a5.715,5.715,0,1,1,5.715-5.715A5.721,5.721,0,0,1,11.658,17.42Zm0-9.6a3.886,3.886,0,1,0,3.886,3.886A3.891,3.891,0,0,0,11.658,7.819Zm6.355-3.657a1.372,1.372,0,1,0,1.372,1.372A1.372,1.372,0,0,0,18.013,4.162Zm0,0" transform="translate(-0.001 -0.001)" fill="#fff"/></svg>